<?xml version="1.0" encoding="UTF-8"?>
<svg version="1.1" xmlns="http://www.w3.org/2000/svg" width="1254" height="1254">
<path d="M0 0 C413.82 0 827.64 0 1254 0 C1254 413.82 1254 827.64 1254 1254 C840.18 1254 426.36 1254 0 1254 C0 840.18 0 426.36 0 0 Z " fill="#F6F6F6" transform="translate(0,0)"/>
<path d="M0 0 C7.28104868 0.002307 14.56209502 0.00256106 21.84314396 0.00148464 C22.89154906 0.00133141 23.93995416 0.00117817 25.02012911 0.0010203 C27.15202577 0.00070047 29.28392244 0.00037626 31.4158191 0.00004771 C51.27007892 -0.00278387 71.12433406 0.00044276 90.97859311 0.00584807 C107.89145544 0.01031067 124.80431091 0.00954011 141.71717312 0.00492931 C161.50742689 -0.00046364 181.29767659 -0.00250598 201.087931 0.00054158 C203.21218655 0.00086002 205.33644211 0.00117439 207.46069767 0.00148464 C209.02715982 0.00171605 209.02715982 0.00171605 210.62526767 0.00195214 C217.86688903 0.0028035 225.10850771 0.00136218 232.35012867 -0.00099491 C306.79741801 -0.02282829 306.79741801 -0.02282829 335.95252468 0.51860119 C336.87656861 0.53374319 337.80061253 0.54888519 338.75265779 0.56448603 C356.70404988 0.87518393 374.90649963 1.76686025 392.61146023 4.88530041 C393.58752224 5.05448986 394.56358425 5.22367931 395.5692239 5.39799572 C437.58683147 13.02094362 478.11625092 33.62752901 505.48646023 67.13530041 C505.92071316 67.6518922 506.35496609 68.168484 506.8023782 68.70073009 C513.88113177 77.12522733 520.09384464 85.69122103 525.45716335 95.30424572 C526.44559173 97.06259791 527.47309423 98.79881122 528.50208523 100.53373791 C545.43551954 129.73446773 550.78367508 163.93442445 552.55231716 197.11940075 C552.5959773 197.93578741 552.63963744 198.75217408 552.68462061 199.59329974 C553.72184311 219.52173644 553.77365237 239.43548806 553.74790956 259.38606978 C553.7432904 264.70993512 553.75041448 270.03378868 553.75586941 275.35765148 C553.7646661 285.72920315 553.76288557 296.10072554 553.75704413 306.47227826 C553.75248924 314.91595319 553.75193106 323.35962004 553.75409176 331.80329586 C553.75439822 333.01446289 553.75470469 334.22562991 553.75502044 335.47349897 C553.75566002 337.93550835 553.75630845 340.39751773 553.75696563 342.8595271 C553.7626403 365.83272806 553.75615607 388.80591294 553.74536489 411.77911126 C553.73642973 431.40745187 553.73798675 451.03576881 553.74720242 470.664109 C553.75795208 493.56975033 553.76209362 516.47537765 553.75597789 539.38102115 C553.75534092 541.83232626 553.75471218 544.28363137 553.75409176 546.73493648 C553.75378321 547.94039805 553.75347466 549.14585962 553.75315676 550.38785033 C553.75144401 558.80320384 553.75431385 567.21854831 553.75905086 575.63390041 C553.76471217 585.91521157 553.76303459 596.19649228 553.75248938 606.47780003 C553.74730257 611.70367862 553.74505327 616.92950679 553.75178768 622.15538479 C553.77449981 641.45000756 553.65504463 660.69801241 552.57966091 679.967057 C552.51980237 681.05447772 552.51980237 681.05447772 552.45873456 682.16386654 C549.27281641 738.36497843 531.70192388 790.27299986 489.48646023 829.13530041 C481.56729775 836.03054498 473.14924659 842.21755619 464.48646023 848.13530041 C463.69110867 848.67928478 462.8957571 849.22326916 462.07630398 849.78373791 C427.94143847 871.57707356 386.26648374 876.60495802 346.73375942 877.68971325 C345.99035061 877.71068478 345.24694179 877.73165631 344.48100544 877.75326335 C325.80340812 878.2684593 307.12719263 878.2787044 288.44383349 878.26602507 C283.38781511 878.26371731 278.33179984 878.26727672 273.27578213 878.270005 C263.42319603 878.27440546 253.57061763 878.27351201 243.71803125 878.27059235 C235.69572042 878.2683154 227.67341172 878.26803562 219.65110065 878.26911617 C217.92532733 878.26934602 217.92532733 878.26934602 216.1646899 878.26958051 C213.82596992 878.2699003 211.48724994 878.27022452 209.14852996 878.2705531 C187.31989006 878.27339116 165.49125439 878.27014736 143.66261519 878.26475274 C125.01608551 878.26028683 106.36956206 878.26106214 87.72303249 878.2656715 C65.96336245 878.27104805 44.20369609 878.273116 22.44402548 878.27005924 C20.11456217 878.26974075 17.78509887 878.26942638 15.45563557 878.26911617 C14.31009946 878.2689619 13.16456335 878.26880762 11.98431403 878.26864867 C3.99129034 878.26779267 -4.00173097 878.26922642 -11.9947543 878.27159572 C-21.76376063 878.27442838 -31.53275896 878.27358359 -41.3017644 878.26831498 C-46.26635023 878.26572392 -51.2309228 878.26459266 -56.19550846 878.26796413 C-74.85311693 878.27949862 -93.49987651 878.20325823 -112.15173863 877.70533825 C-112.87512926 877.68698666 -113.59851989 877.66863507 -114.34383145 877.64972737 C-136.75098307 877.06358064 -158.83748805 875.07372061 -180.51353977 869.13530041 C-181.41910618 868.88844494 -182.32467258 868.64158947 -183.2576804 868.38725353 C-185.97392415 867.63497461 -188.68262383 866.86137732 -191.38853977 866.07280041 C-192.19114231 865.83972179 -192.99374485 865.60664318 -193.82066868 865.36650158 C-199.02483816 863.78083041 -203.71102214 861.67398066 -208.51353977 859.13530041 C-209.72004123 858.54818759 -210.92815909 857.96437365 -212.13853977 857.38530041 C-223.03248735 851.89560525 -232.93779727 845.72213353 -242.51353977 838.13530041 C-243.35787571 837.49592541 -244.20221165 836.85655041 -245.07213352 836.19780041 C-286.06357775 804.25317416 -308.71439397 757.97954842 -315.51353977 707.13530041 C-318.57236558 680.8921425 -318.94962247 654.72901326 -318.89105473 628.33784819 C-318.88204803 622.75502624 -318.89070257 617.17222393 -318.89691685 611.58940197 C-318.90631182 600.70755777 -318.89988828 589.8257808 -318.88765391 578.94394168 C-318.87390126 566.22910128 -318.87568325 553.51427613 -318.87778724 540.79943018 C-318.88105893 517.40950303 -318.86824221 494.01961671 -318.8479422 470.62970174 C-318.82956553 449.35600572 -318.82376518 428.08234336 -318.8292136 406.80864025 C-318.82956004 405.44139599 -318.82990614 404.07415173 -318.83025189 402.70690747 C-318.83042289 402.03090914 -318.83059388 401.3549108 -318.83077006 400.65842767 C-318.83162384 397.25427299 -318.8324476 393.85011832 -318.83323906 390.44596363 C-318.83339614 389.77411309 -318.83355322 389.10226255 -318.83371506 388.4100529 C-318.83771929 370.53571644 -318.83216523 352.66138321 -318.82372777 334.78704847 C-318.82252068 332.22067166 -318.82131469 329.65429486 -318.82010983 327.08791805 C-318.81950629 325.82574003 -318.81890275 324.56356201 -318.81828092 323.26313616 C-318.81442551 314.43121191 -318.81478604 305.59929373 -318.81669567 296.76736904 C-318.81883206 285.98737336 -318.81348504 275.20740977 -318.79908212 264.42742308 C-318.79190914 258.94307051 -318.78769933 253.45876433 -318.79232548 247.97440792 C-318.84084764 182.07619681 -315.21697114 113.71268579 -266.23717258 63.89408947 C-264.30867505 61.92625714 -262.40848359 59.93270906 -260.50572727 57.93998791 C-251.82502305 48.94765845 -242.98480001 40.97607555 -232.51353977 34.13530041 C-231.91895969 33.7443922 -231.32437962 33.353484 -230.71178196 32.95073009 C-192.65345742 8.27373724 -148.72619472 1.59656399 -104.12560032 0.58110119 C-103.22113017 0.56013889 -102.31666003 0.5391766 -101.3847817 0.51757909 C-67.59919472 -0.22963197 -33.79171804 -0.0109916 0 0 Z " fill="#FDFDFD" transform="translate(509.5135397724807,172.8646995946765)"/>
<path d="M0 0 C10.56 0 21.12 0 32 0 C32 48.51 32 97.02 32 147 C42.56 147 53.12 147 64 147 C69.42516066 147.28849752 74.68608909 147.60094784 80.0625 148.1875 C82.01216675 148.3882312 82.01216675 148.3882312 84.0012207 148.59301758 C107.56570703 151.09500232 130.15085344 155.37994454 152.8425293 162.10083008 C155.88099909 162.96611147 158.92704278 163.72506238 162 164.45703125 C168.59101886 166.07620122 174.93218206 168.2607028 181.3125 170.5625 C183.13793335 171.22004272 183.13793335 171.22004272 185.00024414 171.89086914 C210.88850031 181.34792834 235.52669506 192.95080938 258 209 C258.59216309 209.42104004 259.18432617 209.84208008 259.79443359 210.27587891 C272.57742467 219.46793418 286.31269555 230.69830077 295 244 C295 244.99 295 245.98 295 247 C290.02417628 245.26494323 285.6952003 242.55345578 281.1875 239.875 C273.2552462 235.22644697 265.23861423 230.9191853 256.95068359 226.94287109 C255.01597599 226.00772206 253.09569673 225.04712507 251.17578125 224.08203125 C230.98887655 214.08258224 209.39053735 207.15812513 187.81982422 200.83007812 C185.39650671 200.11672059 182.98087183 199.38319235 180.56640625 198.640625 C155.15956339 191.00643028 128.2271374 186.57938024 102 183 C100.96172058 182.8562796 100.96172058 182.8562796 99.90246582 182.70965576 C77.06824971 179.58032875 54.30462635 178.67952663 31.28497314 178.41627502 C27.63001331 178.3728718 23.97517263 178.32103276 20.3203125 178.27001953 C13.21363419 178.17201235 6.10687142 178.08295023 -1 178 C-1.02332647 154.93933894 -1.04097794 131.87867982 -1.05181217 108.81800938 C-1.05697567 98.11133493 -1.06401937 87.4046678 -1.07543945 76.69799805 C-1.08538467 67.36963917 -1.09185304 58.04128559 -1.09408849 48.71292156 C-1.09539588 43.77041051 -1.09848348 38.82791461 -1.10573006 33.8854084 C-1.11248771 29.23898765 -1.11461748 24.59258838 -1.11310768 19.94616318 C-1.11338412 18.23565873 -1.11539075 16.52515361 -1.11920547 14.8146534 C-1.12413875 12.48969501 -1.12299966 10.16481908 -1.12025452 7.83985901 C-1.12117631 6.53552194 -1.1220981 5.23118486 -1.12304783 3.88732243 C-1 1 -1 1 0 0 Z " fill="#043478" transform="translate(314,595)"/>
<path d="M0 0 C0.89110474 -0.00241196 1.78220947 -0.00482391 2.70031738 -0.00730896 C4.57971661 -0.00633178 6.45914507 0.00703114 8.33837891 0.03198242 C11.2096568 0.06629758 14.07785638 0.05263414 16.94921875 0.03320312 C18.77865889 0.04010187 20.60809111 0.04977452 22.4375 0.0625 C23.72049988 0.0550602 23.72049988 0.0550602 25.02941895 0.04747009 C29.10987071 0.12780903 31.21193091 0.30804384 34.73632812 2.53930664 C38.46462792 6.46917338 37.84793632 10.20711656 37.81640625 15.35546875 C37.8149913 16.21828461 37.81357635 17.08110046 37.81211853 17.97006226 C37.80651188 20.73137855 37.79395827 23.49261437 37.78125 26.25390625 C37.77623586 28.12369675 37.7716728 29.99348851 37.76757812 31.86328125 C37.75654029 36.45185402 37.7392712 41.04036648 37.71875 45.62890625 C38.86875488 45.60272217 40.01875977 45.57653809 41.20361328 45.54956055 C45.48612881 45.45879449 49.76855999 45.40156156 54.05175781 45.35424805 C55.90248938 45.3291638 57.75312247 45.2950878 59.60351562 45.25170898 C62.26977883 45.1907863 64.93472825 45.16263634 67.6015625 45.140625 C68.83472702 45.10191536 68.83472702 45.10191536 70.09280396 45.06242371 C74.00194888 45.06053187 76.96528022 45.33444009 80.24536133 47.5793457 C83.62849774 51.75057824 83.54179436 54.68694288 83.41015625 59.91015625 C83.40878159 60.80126099 83.40740692 61.69236572 83.4059906 62.61047363 C83.39694872 64.48994978 83.37336504 66.36940511 83.33618164 68.24853516 C83.28142694 71.11962837 83.27465269 73.98781419 83.27539062 76.859375 C83.26064182 78.68882708 83.2431554 80.51825957 83.22265625 82.34765625 C83.21931778 83.2029895 83.21597931 84.05832275 83.21253967 84.9395752 C83.10159724 89.60190106 82.84191505 92.91252175 79.71875 96.62890625 C76.05962538 99.52381084 71.45922975 98.88080865 67.015625 98.82421875 C66.17783508 98.82138885 65.34004517 98.81855896 64.47686768 98.81564331 C61.80734837 98.80446974 59.1381675 98.77937046 56.46875 98.75390625 C54.65625485 98.74387279 52.84375444 98.73474758 51.03125 98.7265625 C46.59362007 98.70453965 42.15624237 98.67002929 37.71875 98.62890625 C37.74493408 99.77891113 37.77111816 100.92891602 37.7980957 102.11376953 C37.88886176 106.39628506 37.94609469 110.67871624 37.9934082 114.96191406 C38.01849245 116.81264563 38.05256845 118.66327872 38.09594727 120.51367188 C38.15686995 123.17993508 38.18501991 125.8448845 38.20703125 128.51171875 C38.23283768 129.33382843 38.2586441 130.15593811 38.28523254 131.00296021 C38.28711531 134.89334826 38.01599811 137.87647104 35.79785156 141.15112305 C31.51365864 144.59865508 28.32059203 144.48134467 22.96484375 144.390625 C22.02697525 144.39399368 21.08910675 144.39736237 20.12281799 144.40083313 C18.14505515 144.40053478 16.16724558 144.38533247 14.18969727 144.35620117 C11.16214108 144.31648353 8.13895746 144.3355098 5.11132812 144.36132812 C3.18748301 144.35376989 1.26364761 144.34281731 -0.66015625 144.328125 C-1.56439835 144.3351091 -2.46864044 144.3420932 -3.40028381 144.34928894 C-7.42770963 144.25872751 -9.5899394 144.1527435 -12.8581543 141.67626953 C-14.84468181 137.4223947 -14.78182547 133.81068513 -14.671875 129.171875 C-14.66621521 128.2689119 -14.66055542 127.36594879 -14.65472412 126.43562317 C-14.63239895 123.56200322 -14.58221018 120.68964697 -14.53125 117.81640625 C-14.51117999 115.86395035 -14.4929301 113.91147483 -14.4765625 111.95898438 C-14.43254682 107.18180747 -14.36354626 102.40557085 -14.28125 97.62890625 C-15.49707764 97.66032715 -16.71290527 97.69174805 -17.96557617 97.72412109 C-22.48467416 97.83287738 -27.003657 97.9016595 -31.52368164 97.95849609 C-33.47830671 97.98863456 -35.43279692 98.02955395 -37.38696289 98.08154297 C-40.19971999 98.15449014 -43.01068706 98.18839084 -45.82421875 98.21484375 C-47.13074654 98.26129532 -47.13074654 98.26129532 -48.46366882 98.3086853 C-52.95744352 98.31116743 -54.7323913 98.07207672 -58.33300781 95.16479492 C-61.04541148 91.17637919 -60.9851928 87.15661045 -60.91015625 82.46875 C-60.91256821 81.60125626 -60.91498016 80.73376251 -60.91746521 79.83998108 C-60.91648938 78.01363535 -60.90315901 76.18725907 -60.87817383 74.36108398 C-60.84380755 71.57107879 -60.85754164 68.78423409 -60.87695312 65.99414062 C-60.87005553 64.21483032 -60.86038392 62.43552815 -60.84765625 60.65625 C-60.85261612 59.82592758 -60.85757599 58.99560516 -60.86268616 58.14012146 C-60.78116942 54.11951879 -60.58053485 52.09915637 -58.37084961 48.62719727 C-54.40341444 44.8331259 -50.54816229 45.50013632 -45.3359375 45.53125 C-44.00841965 45.53337242 -44.00841965 45.53337242 -42.65408325 45.53553772 C-39.82143809 45.54114485 -36.98887136 45.55369854 -34.15625 45.56640625 C-32.23828239 45.57142033 -30.32031354 45.5759834 -28.40234375 45.58007812 C-23.69528218 45.59111659 -18.9882794 45.608386 -14.28125 45.62890625 C-14.30743408 44.44337158 -14.33361816 43.25783691 -14.3605957 42.03637695 C-14.45124021 37.62901759 -14.50855088 33.22174025 -14.5559082 28.8137207 C-14.58101999 26.90765518 -14.61511645 25.00168566 -14.65844727 23.09594727 C-14.71924744 20.35278627 -14.74749245 17.61090039 -14.76953125 14.8671875 C-14.79533768 14.01804276 -14.8211441 13.16889801 -14.84773254 12.29402161 C-14.84967316 8.18081215 -14.59926292 6.12425646 -12.33081055 2.59082031 C-8.13764079 -0.10682697 -4.89165827 -0.07582381 0 0 Z " fill="#04659B" transform="translate(623.28125,461.37109375)"/>
<path d="M0 0 C10.89 0 21.78 0 33 0 C33 58.74 33 117.48 33 178 C19.47 178.33 5.94 178.66 -8 179 C-25.38533058 179.9456456 -42.15433125 181.68264122 -59.2890625 184.55810547 C-62.81019561 185.13206539 -66.33746467 185.6009137 -69.875 186.0625 C-74.98328499 186.77615746 -79.86931669 187.90580967 -84.8515625 189.2265625 C-88.30064059 190.07385464 -91.75178701 190.69941113 -95.25 191.3125 C-109.53444158 193.87088124 -123.63279623 197.64404917 -137.5625 201.6875 C-138.2217749 201.87747559 -138.8810498 202.06745117 -139.56030273 202.26318359 C-143.85712343 203.5447013 -147.88695677 205.22705436 -152 207 C-153.7830405 207.54963933 -155.57532793 208.07003959 -157.375 208.5625 C-183.25036857 216.41963247 -208.44882247 228.43599375 -231.55566406 242.39404297 C-232.35069336 242.8685791 -233.14572266 243.34311523 -233.96484375 243.83203125 C-234.6518335 244.25202393 -235.33882324 244.6720166 -236.04663086 245.10473633 C-238 246 -238 246 -242 246 C-227.64046685 214.20730672 -172.82018806 189.21203751 -142.34667969 176.93066406 C-138.79891083 175.59335191 -135.22678696 174.3548155 -131.62109375 173.18359375 C-128.45435303 172.14851021 -125.35371091 171.00003232 -122.23950195 169.8190918 C-113.28148773 166.54272227 -104.11106542 163.81377205 -95 161 C-94.06784668 160.71157227 -93.13569336 160.42314453 -92.17529297 160.12597656 C-62.11417382 150.97959143 -31.26253209 148.3026055 0 147 C0 98.49 0 49.98 0 0 Z " fill="#053478" transform="translate(884,595)"/>
<path d="M0 0 C10.34007863 1.36775968 19.83560772 5.07838192 29 10 C30.32 10.66 31.64 11.32 33 12 C33 50.61 33 89.22 33 129 C35.64 129.33 38.28 129.66 41 130 C85.51109374 137.73572658 132.45572345 152.46888583 169 180 C170.2560469 180.92771123 171.51260274 181.85473359 172.76953125 182.78125 C176.25008956 185.35656581 179.70654226 187.96179384 183.14892578 190.58789062 C184.7084312 191.777574 186.27350832 192.9599485 187.83984375 194.140625 C210.76898461 212.08824219 230.67546763 236.03870469 242 263 C239 263 239 263 237.01953125 261.27734375 C236.29121094 260.50519531 235.56289063 259.73304688 234.8125 258.9375 C231.4335447 255.45024485 228.01861449 252.145086 224.328125 248.9921875 C222.52866385 247.45238014 220.7529545 245.89493998 218.984375 244.3203125 C203.93310578 231.01893492 187.59234284 220.62554905 170 211 C169.23091309 210.57557617 168.46182617 210.15115234 167.66943359 209.71386719 C157.68637565 204.22066047 147.5328465 199.34590122 137 195 C136.31196289 194.70931641 135.62392578 194.41863281 134.91503906 194.11914062 C126.63391344 190.69707174 118.13642295 187.90974082 109.625 185.125 C108.81839935 184.86020844 108.01179871 184.59541687 107.18075562 184.32260132 C93.01058345 179.69919567 78.87607797 176.15928533 64.21020508 173.47387695 C62 173 62 173 60 172 C58.562081 171.73641455 57.11632886 171.51475281 55.66796875 171.31640625 C54.79430664 171.19450928 53.92064453 171.0726123 53.02050781 170.94702148 C52.08561523 170.82012939 51.15072266 170.6932373 50.1875 170.5625 C48.24859064 170.29504743 46.30978775 170.02682179 44.37109375 169.7578125 C43.43507324 169.62793945 42.49905273 169.49806641 41.53466797 169.36425781 C38.59657312 168.94202342 35.67479782 168.44302061 32.75 167.9375 C24.99403397 166.69984585 17.14463095 166.24519914 9.31542969 165.69702148 C8.25743164 165.62040283 7.19943359 165.54378418 6.109375 165.46484375 C5.14999023 165.399021 4.19060547 165.33319824 3.20214844 165.26538086 C1 165 1 165 0 164 C-0.09688731 161.88639683 -0.12186842 159.7694933 -0.12025452 157.65367126 C-0.12110894 156.98311425 -0.12196337 156.31255724 -0.12284368 155.62168032 C-0.12450037 153.35835602 -0.11897407 151.09510466 -0.11352539 148.83178711 C-0.11324353 147.21589662 -0.11340122 145.60000601 -0.1139679 143.9841156 C-0.11425593 139.5834776 -0.10835829 135.18286661 -0.10139394 130.78223491 C-0.09516134 126.1884479 -0.09455668 121.59466034 -0.09336853 117.00086975 C-0.09025494 108.29565229 -0.08204117 99.59044732 -0.07201904 90.88523537 C-0.06085877 80.97730082 -0.05534767 71.06936569 -0.05032361 61.16142642 C-0.03985858 40.7742773 -0.0222586 20.38713943 0 0 Z " fill="#0595B9" transform="translate(369,555)"/>
<path d="M0 0 C-1.11607644 3.34822933 -1.69170015 3.76980199 -4.47265625 5.71484375 C-5.19960693 6.23014648 -5.92655762 6.74544922 -6.67553711 7.27636719 C-7.46323486 7.82454102 -8.25093262 8.37271484 -9.0625 8.9375 C-10.71178038 10.10688503 -12.36020091 11.27748364 -14.0078125 12.44921875 C-15.26126465 13.33746338 -15.26126465 13.33746338 -16.54003906 14.24365234 C-26.64711438 21.45983931 -36.49333288 29.00888851 -46 37 C-46.49532227 37.41572266 -46.99064453 37.83144531 -47.50097656 38.25976562 C-50.77607219 41.01109051 -54.03898895 43.77641142 -57.29541016 46.54980469 C-59.02119329 48.01803039 -60.75074272 49.48173533 -62.48046875 50.9453125 C-68.91266743 56.40477623 -75.22826929 61.96069261 -81.38671875 67.72827148 C-84.12356001 70.28864425 -86.89869548 72.78537661 -89.73852539 75.23144531 C-93.75186787 78.73753125 -97.55538662 82.41019171 -101.31640625 86.18359375 C-102.3066404 87.17239281 -102.3066404 87.17239281 -103.31687927 88.1811676 C-104.70035506 89.56396835 -106.08259083 90.94801076 -107.46362305 92.33325195 C-109.55731669 94.43230343 -111.65629874 96.5259594 -113.75585938 98.61914062 C-115.10969571 99.97363786 -116.46322175 101.32844531 -117.81640625 102.68359375 C-118.74169884 103.60584999 -118.74169884 103.60584999 -119.6856842 104.54673767 C-123.98624288 108.87010673 -128.02917364 113.37328975 -132 118 C-132.99724351 119.15247557 -133.99461444 120.30484092 -134.9921875 121.45703125 C-149.14916507 137.90993066 -162.62341048 154.91061694 -176 172 C-180.36867279 170.43755702 -182.69112548 167.03629709 -185.4375 163.5 C-185.95538086 162.84362549 -186.47326172 162.18725098 -187.00683594 161.51098633 C-191.64502992 155.57707159 -196.04369076 149.47538419 -200.42138672 143.34814453 C-203.78903922 138.64194903 -207.26345432 134.07299723 -210.9296875 129.59375 C-213.59978094 126.24857633 -216.13750341 122.81209426 -218.6875 119.375 C-222.85668724 113.77017141 -227.13885941 108.28123337 -231.5625 102.875 C-232.09794434 102.22047852 -232.63338867 101.56595703 -233.18505859 100.89160156 C-233.71695801 100.2415918 -234.24885742 99.59158203 -234.796875 98.921875 C-237.99638942 95.01135737 -241.16891224 91.0806169 -244.3125 87.125 C-244.78695557 86.5357373 -245.26141113 85.94647461 -245.75024414 85.33935547 C-249 81.23125411 -249 81.23125411 -249 79 C-242.81400604 78.57424333 -238.08275875 80.04659321 -232.3125 82.1875 C-231.42328857 82.51137695 -230.53407715 82.83525391 -229.61791992 83.16894531 C-227.85763606 83.81476218 -226.09948926 84.46644002 -224.34375 85.12451172 C-222.44496369 85.83378752 -220.53633837 86.51668611 -218.625 87.19140625 C-203.54593292 92.86699955 -189.19960202 103.54411418 -178 115 C-174.70708894 113.90236298 -174.08675169 113.19040694 -171.953125 110.58984375 C-167.4768769 105.31862714 -162.63604622 100.45207151 -157.75 95.5625 C-156.87214844 94.67240234 -155.99429688 93.78230469 -155.08984375 92.86523438 C-149.79348486 87.55724365 -144.32289549 82.66671477 -138.46923828 77.98120117 C-135.94128953 75.95289347 -133.50208498 73.84971144 -131.07348633 71.70507812 C-116.15741557 58.5748869 -99.99676612 47.25230857 -83 37 C-82.28247559 36.56349121 -81.56495117 36.12698242 -80.82568359 35.67724609 C-64.64419957 25.85688736 -47.85916692 16.19777787 -30.015625 9.7421875 C-27.71896312 8.89651743 -25.45538639 7.98249165 -23.1875 7.0625 C-5.63990385 0 -5.63990385 0 0 0 Z " fill="#04BFCA" transform="translate(897,549)"/>
<path d="M0 0 C0.04667875 14.82919656 0.08196856 29.65838343 0.10362434 44.48763847 C0.11394585 51.37280607 0.12802281 58.25792807 0.15087891 65.14306641 C0.17290903 71.78254217 0.18455546 78.42198288 0.18975449 85.06149673 C0.19346146 87.59974032 0.20069979 90.1379812 0.21146011 92.67620468 C0.22589229 96.22022956 0.22798142 99.76405613 0.22705078 103.30810547 C0.23424133 104.36689911 0.24143188 105.42569275 0.24884033 106.51657104 C0.246091 107.47853394 0.24334167 108.44049683 0.24050903 109.43161011 C0.24235262 110.27044172 0.24419621 111.10927334 0.24609566 111.97352409 C0 114 0 114 -2 116 C-3.78295898 116.37548828 -3.78295898 116.37548828 -5.99609375 116.5703125 C-7.27299072 116.70143433 -7.27299072 116.70143433 -8.57568359 116.83520508 C-9.52008301 116.9308374 -10.46448242 117.02646973 -11.4375 117.125 C-33.63719817 119.70866317 -56.19653054 124.81858916 -77 133 C-79.98963116 134.03154919 -82.99565718 135.01227509 -86 136 C-97.30446206 139.78167518 -108.26824138 143.77614051 -119 149 C-120.49472728 149.68916938 -121.99093311 150.37513737 -123.48828125 151.05859375 C-133.05110666 155.44960817 -142.1483841 160.20783569 -151.06054688 165.79785156 C-153.12416768 167.07696395 -155.20739486 168.31830321 -157.296875 169.5546875 C-175.56198337 180.41383878 -192.09005208 193.212627 -208.37109375 206.81640625 C-209.36238281 207.64011719 -210.35367188 208.46382812 -211.375 209.3125 C-212.22835937 210.03050781 -213.08171875 210.74851562 -213.9609375 211.48828125 C-216 213 -216 213 -218 213 C-216.38827354 208.23849954 -213.77699533 204.40818651 -210.9375 200.3125 C-210.20321777 199.24902344 -210.20321777 199.24902344 -209.45410156 198.1640625 C-205.38098695 192.35967594 -200.87607839 187.14542367 -196 182 C-194.80615041 180.63050943 -193.61832385 179.25573759 -192.4375 177.875 C-156.14245247 136.31131654 -92.67241419 99.46479588 -38 91 C-36.00004839 90.98608777 -33.99994159 90.98471428 -32 91 C-32.02886795 90.22485046 -32.0577359 89.44970093 -32.08747864 88.65106201 C-32.34943715 81.29711582 -32.54658838 73.94547032 -32.67355824 66.58805466 C-32.74103991 62.80633228 -32.83230236 59.02850381 -32.98071289 55.24902344 C-33.99369071 28.7747889 -33.99369071 28.7747889 -29.19775391 22.40722656 C-26.14582085 19.26299509 -22.79331654 17.16056484 -19 15 C-17.55238784 13.7859722 -16.126106 12.54451795 -14.75 11.25 C-14.14414062 10.72792969 -13.53828125 10.20585938 -12.9140625 9.66796875 C-11.45546884 8.39690856 -10.01614231 7.10370246 -8.5859375 5.80078125 C-7.36777344 4.69283203 -7.36777344 4.69283203 -6.125 3.5625 C-5.38507813 2.88316406 -4.64515625 2.20382812 -3.8828125 1.50390625 C-2 0 -2 0 0 0 Z " fill="#049CBC" transform="translate(861,605)"/>
<path d="M0 0 C3.96 0 7.92 0 12 0 C12 34.65 12 69.3 12 105 C15.63 105.66 19.26 106.32 23 107 C25.18456887 107.6252287 27.35501498 108.30546354 29.49609375 109.06640625 C30.62120361 109.46448486 31.74631348 109.86256348 32.90551758 110.27270508 C34.07107178 110.6983374 35.23662598 111.12396973 36.4375 111.5625 C38.28347778 112.23285278 38.28347778 112.23285278 40.16674805 112.91674805 C75.87211975 126.06695107 108.56163235 145.50130247 136 172 C136.51336914 172.48227051 137.02673828 172.96454102 137.55566406 173.46142578 C159.95181346 194.50455948 175.69888885 220.76202316 185.5 249.75 C185.8508667 250.78656738 186.2017334 251.82313477 186.56323242 252.89111328 C186.88267822 253.87063965 187.20212402 254.85016602 187.53125 255.859375 C187.81548828 256.73045898 188.09972656 257.60154297 188.39257812 258.49902344 C189.02221918 261.09148443 189.11195695 263.34280901 189 266 C188.34 266 187.68 266 187 266 C186.443125 264.98421875 185.88625 263.9684375 185.3125 262.921875 C176.19521345 246.41731054 165.87573619 231.13253677 153.06640625 217.25390625 C151.23259442 215.2536994 149.48962633 213.20656762 147.75 211.125 C113.30162248 171.87901739 58.02597372 144.85137421 7.6418457 133.56103516 C6.78937256 133.36944824 5.93689941 133.17786133 5.05859375 132.98046875 C3.91861938 132.73139771 3.91861938 132.73139771 2.75561523 132.47729492 C1 132 1 132 0 131 C-0.09619441 129.30441297 -0.12187659 127.6047916 -0.12025452 125.90647888 C-0.12162918 124.80285004 -0.12300385 123.69922119 -0.12442017 122.56214905 C-0.12082489 121.34079758 -0.11722961 120.11944611 -0.11352539 118.86108398 C-0.11367142 117.58322021 -0.11381744 116.30535645 -0.1139679 114.98876953 C-0.11425585 111.47446409 -0.1083594 107.9601925 -0.10139394 104.44589496 C-0.09516012 100.77700644 -0.09455658 97.10811723 -0.09336853 93.43922424 C-0.0902553 86.48709565 -0.08204202 79.5349827 -0.07201904 72.58286101 C-0.06085766 64.6700522 -0.05534739 56.75724266 -0.05032361 48.84442794 C-0.0398594 32.56294253 -0.02205965 16.28147388 0 0 Z " fill="#045FAB" transform="translate(429,520)"/>
<path d="M0 0 C4.82863589 2.21657381 7.69907357 4.98783773 10.73828125 9.31640625 C12.55530003 14.76746259 12.85592296 20.49670713 10.71484375 25.8984375 C7.25073742 31.66875827 3.2405095 34.63269467 -3.26171875 36.31640625 C-8.0588831 37.25596386 -11.44094624 36.45751744 -15.51171875 33.81640625 C-16.135625 33.35234375 -16.75953125 32.88828125 -17.40234375 32.41015625 C-19.47680619 30.97839283 -19.47680619 30.97839283 -23.26171875 31.31640625 C-26.12749453 32.63291669 -26.12749453 32.63291669 -29.1796875 34.46484375 C-29.75021347 34.79331802 -30.32073944 35.1217923 -30.90855408 35.46022034 C-32.76031806 36.52910511 -34.60472308 37.61003599 -36.44921875 38.69140625 C-37.71621862 39.42592875 -38.98363564 40.15973217 -40.25146484 40.89282227 C-43.92832857 43.022497 -47.5960168 45.16759212 -51.26171875 47.31640625 C-52.23351074 47.88504395 -53.20530273 48.45368164 -54.20654297 49.03955078 C-57.92074178 51.21478211 -61.63039312 53.397216 -65.33203125 55.59375 C-66.95021434 56.54524166 -68.58270645 57.4769001 -70.26171875 58.31640625 C-70.26314377 59.19701721 -70.26456879 60.07762817 -70.26603699 60.98492432 C-70.28386637 69.28384904 -70.32547764 77.58224028 -70.39380932 85.88090897 C-70.42810083 90.14740275 -70.45319258 94.41353766 -70.45727539 98.68017578 C-70.46155384 102.79779628 -70.48997753 106.91460694 -70.53515053 111.03197479 C-70.54814029 112.60279371 -70.55242794 114.17370948 -70.54787254 115.7445755 C-70.54297645 117.94551528 -70.56900773 120.14407894 -70.60229492 122.34472656 C-70.60895676 123.59715149 -70.61561859 124.84957642 -70.6224823 126.13995361 C-71.26171875 129.31640625 -71.26171875 129.31640625 -73.61927795 131.63294983 C-74.49128342 132.18849045 -75.36328888 132.74403107 -76.26171875 133.31640625 C-77.23141602 133.94571045 -78.20111328 134.57501465 -79.20019531 135.22338867 C-80.78525879 136.1878894 -80.78525879 136.1878894 -82.40234375 137.171875 C-82.96999451 137.51898026 -83.53764526 137.86608551 -84.12249756 138.22370911 C-85.91695439 139.32034393 -87.71414729 140.41238574 -89.51171875 141.50390625 C-91.32312614 142.60684675 -93.13392551 143.71076234 -94.94378662 144.8162384 C-96.57487989 145.81208048 -98.20780551 146.80491948 -99.84082031 147.79760742 C-102.12457609 149.10486346 -102.12457609 149.10486346 -103.26171875 150.31640625 C-103.44052446 152.56189814 -103.54832187 154.81305993 -103.62915039 157.06420898 C-103.66792046 158.12297997 -103.66792046 158.12297997 -103.70747375 159.20314026 C-103.93373823 165.74221899 -104.06740174 172.28358409 -104.17284489 178.8256216 C-104.24497502 183.22009415 -104.34736076 187.60910275 -104.52368164 192.00073242 C-106.11028589 209.93781412 -106.11028589 209.93781412 -101.81466675 226.80401611 C-98.2409433 230.46438372 -94.12196315 232.16768099 -89.290802 233.63943481 C-86.33922766 234.62418077 -83.96893439 236.25302629 -81.4140625 238.00390625 C-80.549021 238.55296631 -79.68397949 239.10202637 -78.79272461 239.66772461 C-77.93686768 240.21178955 -77.08101074 240.75585449 -76.19921875 241.31640625 C-75.27310791 241.90236572 -74.34699707 242.4883252 -73.39282227 243.09204102 C-69.1090835 245.81367149 -64.86069257 248.56292514 -60.69921875 251.46875 C-59.67453491 252.1793457 -59.67453491 252.1793457 -58.62915039 252.90429688 C-57.38197682 253.77645064 -56.14341718 254.66111364 -54.91577148 255.56054688 C-52.27841631 257.4029284 -50.76568053 258.3434933 -47.5 258.16796875 C-45.16283958 257.38172474 -45.16283958 257.38172474 -43.01171875 255.75390625 C-38.46270603 253.37601324 -34.02284511 253.72367787 -29.078125 254.78515625 C-23.14378163 256.66978704 -20.3022498 259.85824309 -17.1484375 265.203125 C-15.08069067 270.13110312 -15.68575089 275.70975906 -17.44921875 280.62890625 C-20.53017729 285.19722409 -24.13601278 289.15221929 -29.26171875 291.31640625 C-36.10761442 292.27273239 -40.72886762 291.43892278 -46.26171875 287.31640625 C-48.65249228 284.88216411 -50.72597872 282.38788632 -52.26171875 279.31640625 C-52.24431641 278.61056396 -52.22691406 277.90472168 -52.20898438 277.17749023 C-52.16257122 274.28910005 -52.37164433 272.07345337 -53.26171875 269.31640625 C-56.33633161 266.25480843 -59.94745343 264.39797571 -63.76171875 262.37890625 C-65.88397372 261.17522218 -68.00506053 259.96947624 -70.125 258.76171875 C-71.69822021 257.88628418 -71.69822021 257.88628418 -73.30322266 256.99316406 C-77.29092524 254.73309298 -81.12589318 252.27919206 -84.94921875 249.75390625 C-86.28761383 248.87868205 -87.62615745 248.00368495 -88.96484375 247.12890625 C-89.98481445 246.45988281 -89.98481445 246.45988281 -91.02539062 245.77734375 C-93.57182092 244.11382422 -96.12718417 242.46454698 -98.68359375 240.81640625 C-99.60052002 240.2241626 -100.51744629 239.63191895 -101.4621582 239.02172852 C-103.25397035 237.8644266 -105.04674056 236.70860638 -106.84057617 235.55444336 C-107.64857666 235.03116455 -108.45657715 234.50788574 -109.2890625 233.96875 C-110.36788696 233.2725354 -110.36788696 233.2725354 -111.46850586 232.56225586 C-113.26171875 231.31640625 -113.26171875 231.31640625 -115.26171875 229.31640625 C-115.48114477 226.66359007 -115.57627781 224.11340535 -115.58398438 221.45776367 C-115.59391418 220.64620316 -115.60384399 219.83464264 -115.61407471 218.99848938 C-115.64335025 216.30625041 -115.65692749 213.61424718 -115.66796875 210.921875 C-115.67946996 209.05341076 -115.69098545 207.18494661 -115.70251465 205.31648254 C-115.72354443 201.39481504 -115.73522296 197.47322965 -115.7421875 193.55151367 C-115.75315329 188.52725358 -115.80119289 183.50407865 -115.85813141 178.48015881 C-115.8953914 174.61880839 -115.90579567 170.757719 -115.90885925 166.89620399 C-115.91491301 165.04420355 -115.93097304 163.19220774 -115.95722961 161.34038353 C-115.99137014 158.7471628 -115.98759094 156.15658709 -115.97460938 153.56323242 C-115.99303894 152.79888885 -116.01146851 152.03454529 -116.03045654 151.24703979 C-115.98499161 148.34577287 -115.85443008 146.02519675 -113.94766521 143.74500275 C-112.34062195 142.3868866 -112.34062195 142.3868866 -109.26171875 140.31640625 C-108.60985596 139.86281738 -107.95799316 139.40922852 -107.28637695 138.94189453 C-106.71749756 138.59368652 -106.14861816 138.24547852 -105.5625 137.88671875 C-104.90958984 137.48324219 -104.25667969 137.07976562 -103.58398438 136.6640625 C-102.92076172 136.26058594 -102.25753906 135.85710937 -101.57421875 135.44140625 C-99.59790951 134.22673771 -97.62571025 133.01217701 -95.67642212 131.75447083 C-93.26171875 130.31640625 -93.26171875 130.31640625 -90.45504761 129.07963562 C-87.16222559 127.45572846 -84.81372734 125.97155597 -82.26171875 123.31640625 C-81.02298896 118.74620806 -81.13059333 114.41136706 -81.40253639 109.73303795 C-81.53349049 107.41343902 -81.58944596 105.10238775 -81.62614441 102.77949524 C-81.74445996 96.18905734 -82.00314252 89.60567647 -82.29174805 83.02075195 C-83.41882739 55.9839756 -83.41882739 55.9839756 -79.84912109 49.91467285 C-76.27790707 46.28433115 -72.13328809 44.55550166 -67.34103394 43.03005981 C-64.26597558 41.97465159 -61.67773167 40.29332673 -58.94140625 38.55859375 C-57.00823916 37.43322302 -55.0733526 36.31080055 -53.13671875 35.19140625 C-51.60494995 34.30364502 -51.60494995 34.30364502 -50.04223633 33.39794922 C-48.03190081 32.23357614 -46.02094285 31.07027689 -44.00927734 29.90820312 C-41.5731294 28.49682187 -39.14431568 27.07399062 -36.71875 25.64453125 C-35.46233729 24.9099891 -34.20583615 24.17559818 -32.94921875 23.44140625 C-31.37720703 22.51714844 -31.37720703 22.51714844 -29.7734375 21.57421875 C-27.26171875 20.31640625 -27.26171875 20.31640625 -24.26171875 20.31640625 C-24.308125 19.73632812 -24.35453125 19.15625 -24.40234375 18.55859375 C-24.66476127 12.87912878 -24.11460307 9.77764072 -20.26171875 5.31640625 C-14.08161375 -0.50109054 -8.40894859 -2.54156477 0 0 Z " fill="#096DAC" transform="translate(602.26171875,364.68359375)"/>
<path d="M0 0 C3.79245637 2.64857783 6.86094673 6.2101747 8.9296875 10.34765625 C9.67585986 17.27639957 9.63545471 22.97947719 5.4296875 28.7265625 C1.34186704 33.1443893 -2.87638623 35.2013945 -8.8203125 35.59765625 C-13.20296889 35.5573003 -16.15858491 34.26516978 -20.0703125 32.34765625 C-22.8795631 31.04559533 -22.8795631 31.04559533 -24.79345703 32.06933594 C-25.73874268 32.66343262 -25.73874268 32.66343262 -26.703125 33.26953125 C-27.41742676 33.71200195 -28.13172852 34.15447266 -28.86767578 34.61035156 C-29.6357959 35.10116211 -30.40391602 35.59197266 -31.1953125 36.09765625 C-32.00081543 36.60135742 -32.80631836 37.10505859 -33.63623047 37.62402344 C-39.54785745 41.33541061 -45.40812404 45.12808255 -51.25488281 48.94067383 C-58.44826476 53.62292643 -65.72970668 58.16162859 -73.01660156 62.6965332 C-77.94565155 65.76517026 -82.86550954 68.84568778 -87.7578125 71.97265625 C-88.6358252 72.53283447 -89.51383789 73.0930127 -90.41845703 73.67016602 C-92.06765509 74.72421868 -93.71457864 75.78184103 -95.35888672 76.84350586 C-96.0860791 77.30764893 -96.81327148 77.77179199 -97.5625 78.25 C-98.19526855 78.65726318 -98.82803711 79.06452637 -99.47998047 79.48413086 C-101.0703125 80.34765625 -101.0703125 80.34765625 -103.0703125 80.34765625 C-103.04810638 81.28202515 -103.02590027 82.21639404 -103.00302124 83.17907715 C-102.79987146 92.00582909 -102.65019948 100.83210405 -102.55219078 109.66066742 C-102.50010568 114.19925215 -102.42952933 118.73594292 -102.31591797 123.2734375 C-102.20686022 127.65674784 -102.14739106 132.03824305 -102.12154007 136.42280579 C-102.10313182 138.09113643 -102.06717968 139.759373 -102.01301193 141.42692566 C-101.60604662 154.48042789 -101.60604662 154.48042789 -105.24005127 159.11450195 C-107.76210094 161.15739271 -110.23599385 162.77745308 -113.0703125 164.34765625 C-114.24291922 165.17261021 -115.41083001 166.00435564 -116.5703125 166.84765625 C-119.0703125 168.34765625 -119.0703125 168.34765625 -121.0703125 168.34765625 C-121.02390625 169.04890625 -120.9775 169.75015625 -120.9296875 170.47265625 C-120.67958868 177.04668244 -121.12290686 181.9439262 -125.0703125 187.34765625 C-127.5703125 189.72265625 -127.5703125 189.72265625 -130.0703125 191.34765625 C-130.9675 191.96640625 -130.9675 191.96640625 -131.8828125 192.59765625 C-137.40692437 194.49163746 -144.77619884 193.84157756 -150.0703125 191.34765625 C-154.58523206 187.47201733 -157.53539541 183.04641219 -158.390625 177.1328125 C-158.82460914 171.00986233 -157.53903524 167.14780974 -153.83203125 162.265625 C-150.47279816 158.6084555 -147.58035642 156.69084191 -142.61328125 156.01171875 C-137.20602178 155.80094102 -133.85541688 156.72724195 -129.0703125 159.34765625 C-123.4641406 158.57503565 -118.66454839 155.62803344 -115.0703125 151.34765625 C-113.6472891 145.70721949 -113.88440247 140.21467829 -114.05078125 134.43359375 C-114.05970004 132.77407752 -114.06346858 131.11452638 -114.06233215 129.45498657 C-114.06982973 125.09924932 -114.13259019 120.74626113 -114.21154785 116.39129639 C-114.33248191 109.41557091 -114.38588708 102.43979067 -114.4074955 95.46312332 C-114.42552307 93.03092586 -114.47738849 90.60112179 -114.53276062 88.16952515 C-114.54666819 86.67601528 -114.55948779 85.18249475 -114.57104492 83.68896484 C-114.59454514 82.38881439 -114.61804535 81.08866394 -114.64225769 79.74911499 C-113.92096481 75.45945927 -112.38160523 74.06404679 -109.0703125 71.34765625 C-106.93652344 69.85302734 -106.93652344 69.85302734 -104.8046875 68.62109375 C-104.00603271 68.15251953 -103.20737793 67.68394531 -102.38452148 67.20117188 C-101.53833252 66.71326172 -100.69214355 66.22535156 -99.8203125 65.72265625 C-93.29698366 61.88700764 -86.84099115 57.99046316 -80.5078125 53.84765625 C-75.47006001 50.55752704 -70.42489846 47.28311027 -65.33764648 44.06982422 C-63.78498037 43.08873057 -62.23499932 42.1033746 -60.68774414 41.11376953 C-56.04317969 38.15818066 -51.34478888 35.34016528 -46.56640625 32.60546875 C-45.46756104 31.96061523 -44.36871582 31.31576172 -43.23657227 30.65136719 C-41.08286393 29.38927269 -38.91300801 28.15424286 -36.72631836 26.95019531 C-31.29472688 23.93197435 -31.29472688 23.93197435 -28.25585938 18.81494141 C-27.97950632 16.19551451 -27.97950632 16.19551451 -28.12646484 13.703125 C-28.02670724 9.51851034 -25.66083706 6.49121415 -23.0703125 3.34765625 C-16.11947253 -3.25564172 -8.49911781 -4.61333438 0 0 Z " fill="#0B80B5" transform="translate(577.0703125,310.65234375)"/>
<path d="M0 0 C5.08248734 2.29152608 9.18856902 5.38719647 11.83984375 10.3515625 C12.06008341 12.44135404 12.21740337 14.53827292 12.328125 16.63671875 C12.8760526 20.52684162 13.23118626 22.68774902 15.90625 25.60522461 C18.73648247 27.57743819 21.60615913 29.23280799 24.65234375 30.8515625 C26.85697127 32.12204809 29.06139485 33.39288762 31.265625 34.6640625 C32.37502441 35.2828125 33.48442383 35.9015625 34.62744141 36.5390625 C39.28833358 39.16882869 43.80920429 42.00533535 48.33984375 44.8515625 C50.04876313 45.91001113 51.75840874 46.96728803 53.46875 48.0234375 C66.09098328 55.83798461 78.70357774 63.67266089 91.21484375 71.6640625 C92.27445313 72.34082031 93.3340625 73.01757812 94.42578125 73.71484375 C96.83984375 75.3515625 96.83984375 75.3515625 98.83984375 77.3515625 C98.99426908 79.75079205 99.02615932 82.0318385 98.96826172 84.42822266 C98.94912704 85.9389333 98.93007796 87.44964502 98.91110229 88.96035767 C98.89744503 89.76325855 98.88378777 90.56615944 98.86971664 91.39339066 C98.8055388 95.64615513 98.80066207 99.89917389 98.78515625 104.15234375 C98.76160855 109.56485463 98.72083836 114.97557973 98.6171875 120.38720703 C98.53497171 124.76045982 98.51173288 129.13063353 98.52701187 133.50458908 C98.52205863 135.16725332 98.49568414 136.83000321 98.44701767 138.49196243 C98.03891329 148.06926875 98.03891329 148.06926875 102.38922119 156.27215576 C105.55776331 158.56759285 108.0871618 160.23066161 111.83984375 161.3515625 C114.80034755 160.66038666 117.13840566 159.70228155 119.83984375 158.3515625 C126.32126054 157.53130021 131.49918709 158.53514554 136.83984375 162.3515625 C141.45763459 166.84330942 143.01372903 170.21069417 143.15234375 176.6015625 C143.10421066 182.0586521 142.72444299 185.25698492 138.83984375 189.3515625 C133.60157871 194.18688408 129.08529107 195.80362053 122.04296875 195.59375 C115.99513197 194.92891688 112.74265739 191.5029615 109.0390625 187.0703125 C107.37778523 184.68932879 106.82591419 182.83058464 106.91015625 179.93359375 C106.97228683 176.78712383 106.78010713 174.36617886 105.83984375 171.3515625 C101.69217077 167.09662212 96.63969598 164.11435874 91.19165039 161.80541992 C88.30109321 159.69772991 87.87389371 158.53962283 87.22607422 154.96166992 C86.93137218 150.38754555 87.05313528 145.81730755 87.15625 141.23828125 C87.16931221 139.54150943 87.17927345 137.84471114 87.18626404 136.14790344 C87.21294142 131.6903646 87.2816588 127.23443252 87.35919189 122.77752686 C87.4309094 118.22625464 87.46279357 113.67472175 87.49804688 109.12304688 C87.57303186 100.1985143 87.69244038 91.27517221 87.83984375 82.3515625 C87.06034866 82.04784225 86.28085358 81.74412201 85.47773743 81.43119812 C82.88641891 80.37062476 80.73002797 79.13982033 78.3828125 77.62109375 C77.52985596 77.07308105 76.67689941 76.52506836 75.7980957 75.96044922 C74.88374756 75.3676416 73.96939941 74.77483398 73.02734375 74.1640625 C71.04615467 72.89102126 69.06436248 71.61891825 67.08203125 70.34765625 C66.05561523 69.68878418 65.02919922 69.02991211 63.97167969 68.35107422 C58.88844164 65.10569539 53.77088986 61.91585489 48.65234375 58.7265625 C41.22721617 54.09409792 33.80572046 49.4562317 26.40234375 44.7890625 C25.66411377 44.32483887 24.92588379 43.86061523 24.1652832 43.38232422 C23.10893677 42.71547607 23.10893677 42.71547607 22.03125 42.03515625 C21.00668701 41.39102783 21.00668701 41.39102783 19.96142578 40.73388672 C18.43414163 39.73877937 16.93246577 38.70396478 15.44873047 37.64501953 C14.65869629 37.08540527 13.86866211 36.52579102 13.0546875 35.94921875 C11.9872229 35.17010132 11.9872229 35.17010132 10.89819336 34.37524414 C8.91144405 33.15349456 8.91144405 33.15349456 6.78344727 33.59155273 C4.99952931 34.28912045 3.25974085 35.09689406 1.52734375 35.9140625 C-3.76225269 37.97610857 -7.32986303 37.92954983 -12.72265625 36.2265625 C-18.44429816 33.10566691 -22.12755217 29.6350007 -24.16015625 23.3515625 C-24.80471836 18.20256056 -24.82848655 13.76842274 -22.59765625 9.0390625 C-16.00952111 1.7752212 -10.18762893 -3.05813093 0 0 Z " fill="#0A88B4" transform="translate(707.16015625,308.6484375)"/>
<path d="M0 0 C3.86429138 2.76463331 7.55096111 5.69083254 9.8125 9.9375 C10.27342028 13.01193632 10.18953671 15.85836684 9.8125 18.9375 C10.66166992 19.18483887 11.51083984 19.43217773 12.38574219 19.68701172 C16.10326986 21.04360738 19.30163659 22.86361133 22.640625 24.9453125 C23.97026184 25.75885969 25.30035719 26.57165787 26.63085938 27.38378906 C27.31720459 27.80454712 28.0035498 28.22530518 28.71069336 28.65881348 C32.17523613 30.76655454 35.67426714 32.81496044 39.171875 34.8671875 C40.56787045 35.68982913 41.9637037 36.51274605 43.359375 37.3359375 C45.48434098 38.58889363 47.61010008 39.84040202 49.73828125 41.08789062 C51.84363429 42.32265173 53.94553235 43.56311702 56.046875 44.8046875 C56.68429626 45.17657196 57.32171753 45.54845642 57.97845459 45.93161011 C64.03418422 49.52316275 64.03418422 49.52316275 65.8125 51.9375 C66.08337402 54.87498474 66.08337402 54.87498474 65.94335938 58.51342773 C65.90122084 59.88967833 65.85927862 61.26593494 65.81750488 62.64219666 C65.77624229 63.73586202 65.77624229 63.73586202 65.73414612 64.85162163 C65.60093437 68.73269232 65.56055332 72.61524009 65.50390625 76.49804688 C65.42663149 81.43155865 65.32284651 86.35981745 65.11669922 91.28979492 C63.66655547 108.55265014 63.66655547 108.55265014 68.52490234 124.50323486 C72.76958058 128.52713041 77.54661733 130.56490799 82.90658569 132.71054077 C95.82915261 138.1668141 95.82915261 138.1668141 99.8125 142.9375 C101.79580614 148.7383956 101.64966854 154.19477488 101.4609375 160.265625 C101.45512207 161.94471264 101.45436279 163.62382464 101.45840454 165.30291748 C101.45199419 168.80818897 101.39839701 172.3084063 101.30810547 175.8125 C101.19438694 180.29856329 101.17841772 184.77837346 101.19492149 189.26564407 C101.20052116 192.7269267 101.16529549 196.18681847 101.11665726 199.64772797 C101.09627912 201.30140645 101.08604199 202.95524291 101.08625412 204.60904694 C101.04208618 217.43760528 101.04208618 217.43760528 98.05255127 221.08435059 C94.85005032 223.1916041 92.6549689 223.9375 88.8125 223.9375 C88.88031174 222.58138611 88.88031174 222.58138611 88.94949341 221.19787598 C89.35519305 212.60914115 89.63140662 204.02751679 89.76846504 195.43013763 C89.84333842 191.0100986 89.96513719 186.60258895 90.20117188 182.18798828 C91.89121155 164.04900178 91.89121155 164.04900178 86.64750671 147.28118896 C79.53358645 139.56415405 69.02600613 135.68732361 59.4440155 132.03462219 C57.14780775 130.88068889 56.14378599 130.15253496 54.8125 127.9375 C53.84776594 122.59035883 53.99849189 117.32215668 54.12890625 111.91796875 C54.14196962 110.33329965 54.15193031 108.74860218 54.15892029 107.16389465 C54.185589 103.00222073 54.25429733 98.84226971 54.33184814 94.68127441 C54.40358531 90.43163358 54.43545391 86.18171302 54.47070312 81.93164062 C54.54567282 73.59947162 54.66506837 65.2687004 54.8125 56.9375 C54.04607178 56.63985748 53.27964355 56.34221497 52.48999023 56.03555298 C49.42852284 54.78002893 46.71789361 53.21689509 43.875 51.5234375 C43.31361328 51.19010406 42.75222656 50.85677063 42.17382812 50.51333618 C40.3847135 49.44971819 38.59864824 48.38109018 36.8125 47.3125 C35.64471292 46.61818394 34.47674547 45.92417115 33.30859375 45.23046875 C32.14309714 44.53668008 30.97773251 43.84266965 29.8125 43.1484375 C29.23508057 42.80496277 28.65766113 42.46148804 28.06274414 42.10760498 C25.09694832 40.33501555 22.15820548 38.53080468 19.25 36.66503906 C18.6725 36.29802887 18.095 35.93101868 17.5 35.55288696 C15.91173482 34.53985664 14.33061307 33.51565144 12.75 32.49072266 C9.63803427 30.84525008 7.32020789 30.13823501 3.8125 29.9375 C0.61037307 31.73882223 0.61037307 31.73882223 -2.1875 33.9375 C-7.16315377 35.59605126 -11.75015705 36.02594661 -16.63671875 33.84375 C-21.51408204 30.81252918 -25.55901699 27.59944423 -27.1875 21.9375 C-27.91642003 16.74298569 -28.02645656 11.80406347 -25.5625 7.0625 C-19.28275128 -1.20032726 -9.77533986 -5.72260779 0 0 Z " fill="#0A78B0" transform="translate(683.1875,366.0625)"/>
<path d="M0 0 C2.81563294 2.00222787 4.63653223 3.5315902 5.48828125 6.97265625 C5.73159594 10.69189511 5.27078222 12.66357361 2.9375 15.5625 C-0.9492151 17.46450952 -2.88911979 17.2706357 -7 16 C-9.5 13.875 -9.5 13.875 -11 11 C-11.07586222 6.67585374 -10.70169625 4.76017094 -7.75 1.5625 C-4.68825146 -0.17712985 -3.43375729 -0.77259539 0 0 Z " fill="#F0F5F9" transform="translate(440,477)"/>
<path d="M0 0 C2.2421875 0.6875 2.2421875 0.6875 4.2421875 3.6875 C4.80770125 8.05003463 4.73541401 9.98502588 2.1796875 13.625 C-0.7578125 15.6875 -0.7578125 15.6875 -4.3203125 16.3125 C-7.7578125 15.6875 -7.7578125 15.6875 -10.1953125 13.5625 C-12.03823936 10.17151457 -12.39139925 8.48902049 -11.7578125 4.6875 C-9.02198009 -1.15723287 -5.74780745 -0.68223234 0 0 Z " fill="#EEF8FA" transform="translate(571.7578125,319.3125)"/>
<path d="M0 0 C4.08078346 1.33552913 5.36305322 2.39099579 7.4375 6.125 C8.0625 9.125 8.0625 9.125 7.4375 12.125 C4.8125 15.0625 4.8125 15.0625 1.4375 17.125 C-2.54673915 17.04687766 -4.23406226 16.3439585 -7.5625 14.125 C-8.59729452 11.1323272 -8.82265539 8.27396423 -8.5625 5.125 C-6.00165367 1.1236776 -4.77121185 0.16741094 0 0 Z " fill="#EFF5FA" transform="translate(568.5625,628.875)"/>
<path d="M0 0 C4.15526322 0.65609419 5.84398463 1.34970911 8.5625 4.5625 C9.1875 8 9.1875 8 8.5625 11.5625 C6.11651113 14.94371991 4.66953441 16.33186783 0.5625 17.1875 C-3.5118356 16.33868008 -4.98155875 14.88524404 -7.4375 11.5625 C-8.15338388 7.74445263 -7.72805839 6.09712745 -5.875 2.6875 C-3.4375 0.5625 -3.4375 0.5625 0 0 Z " fill="#F0F5F9" transform="translate(831.4375,477.4375)"/>
<path d="M0 0 C1.9375 1.0625 1.9375 1.0625 3 3 C3.75 9.75 3.75 9.75 1.5 13.5 C-2.0242017 15.61452102 -4.99573739 15.93350908 -9 15 C-11.5625 12.9375 -11.5625 12.9375 -13 10 C-13.07481382 5.73561227 -12.64839572 3.76281849 -9.875 0.5 C-6.08386986 -1.47798094 -4.07202027 -1.13111674 0 0 Z " fill="#EFF7FA" transform="translate(679,375)"/>
<path d="M0 0 C3.02706748 2.15081111 3.87395791 3.25950274 4.5 6.9375 C3.86162709 10.84753406 3.02791041 12.42627616 0 15 C-2.8229596 15.71730941 -5.1770404 15.71730941 -8 15 C-11.03727005 12.41832046 -11.87499856 10.87501007 -12.4375 6.9375 C-11.95374115 3.68940486 -11.30588726 2.30588726 -9 0 C-5.41563853 -1.19478716 -3.63093708 -0.96330984 0 0 Z " fill="#F1F8FA" transform="translate(600,375)"/>
<path d="M0 0 C2.4375 1.5 2.4375 1.5 4 4 C4.79841448 8.01676563 4.61897146 10.9683809 2.5 14.5 C-1.28726141 16.77235685 -3.61177849 16.55723448 -8 16 C-10.36110026 14.22917481 -10.84291198 12.9703665 -11.30859375 10.09375 C-11.52669177 6.55130936 -11.34463183 4.55141094 -9.4375 1.5 C-6.05111671 -0.58392818 -3.90614682 -0.55802097 0 0 Z " fill="#F1FAFB" transform="translate(705,319)"/>
<path d="M0 0 C0.99 0.33 1.98 0.66 3 1 C3 23.44 3 45.88 3 69 C2.01 69 1.02 69 0 69 C0 46.23 0 23.46 0 0 Z " fill="#E7F1F7" transform="translate(749,419)"/>
<path d="M0 0 C0.66 0 1.32 0 2 0 C2.04667875 14.82919656 2.08196856 29.65838343 2.10362434 44.48763847 C2.11394585 51.37280607 2.12802281 58.25792807 2.15087891 65.14306641 C2.17290903 71.78254217 2.18455546 78.42198288 2.18975449 85.06149673 C2.19346146 87.59974032 2.20069979 90.1379812 2.21146011 92.67620468 C2.22589229 96.22022956 2.22798142 99.76405613 2.22705078 103.30810547 C2.23424133 104.36689911 2.24143188 105.42569275 2.24884033 106.51657104 C2.246091 107.47853394 2.24334167 108.44049683 2.24050903 109.43161011 C2.24235262 110.27044172 2.24419621 111.10927334 2.24609566 111.97352409 C2 114 2 114 0 116 C-2.625 116.125 -2.625 116.125 -5 116 C-4.505 115.01 -4.505 115.01 -4 114 C-1.525 113.505 -1.525 113.505 1 113 C0.505 57.065 0.505 57.065 0 0 Z " fill="#40B3CB" transform="translate(859,605)"/>
<path d="M0 0 C0.33 0 0.66 0 1 0 C1.33 18.48 1.66 36.96 2 56 C2.33 56 2.66 56 3 56 C2.98839844 57.27617187 2.97679687 58.55234375 2.96484375 59.8671875 C2.95546583 61.53645687 2.94636563 63.20572783 2.9375 64.875 C2.92912109 65.71675781 2.92074219 66.55851562 2.91210938 67.42578125 C2.90727539 68.63427734 2.90727539 68.63427734 2.90234375 69.8671875 C2.89448853 70.98262939 2.89448853 70.98262939 2.88647461 72.12060547 C2.88213364 74.09132568 2.88213364 74.09132568 4 76 C2.68 75.67 1.36 75.34 0 75 C0 50.25 0 25.5 0 0 Z " fill="#0364A2" transform="translate(796,392)"/>
<path d="M0 0 C5.66351743 0.58087358 9.88013397 2.6062964 15 5 C18.63 6.65 22.26 8.3 26 10 C26 28.48 26 46.96 26 66 C25.67 66 25.34 66 25 66 C25 48.18 25 30.36 25 12 C22.03 11.01 19.06 10.02 16 9 C13.87231487 8.05106726 11.76404984 7.0561525 9.6875 6 C8.70136719 5.505 7.71523438 5.01 6.69921875 4.5 C4.28220256 3.15682458 2.15749468 1.72189599 0 0 Z " fill="#1580B5" transform="translate(376,557)"/>
<path d="M0 0 C0.33 0 0.66 0 1 0 C1.61741425 11.55936675 1.61741425 11.55936675 -0.5 16.5 C-4.66543235 20.66543235 -8.87976575 24.25678442 -15 24.4375 C-20.26602797 24.05395072 -25.2839862 23.37281104 -29.5 20 C-31 18 -31 18 -31 16 C-30.01 15.67 -29.02 15.34 -28 15 C-28 16.32 -28 17.64 -28 19 C-24.7 19.66 -21.4 20.32 -18 21 C-18 21.66 -18 22.32 -18 23 C-17.0925 22.67 -16.185 22.34 -15.25 22 C-12 21 -12 21 -8 21 C-7.9071875 20.1028125 -7.9071875 20.1028125 -7.8125 19.1875 C-7 17 -7 17 -4.53125 15.8125 C-1.66631754 14.16243793 -1.66631754 14.16243793 -1.07421875 10.64453125 C-0.94660156 9.37996094 -0.81898438 8.11539062 -0.6875 6.8125 C-0.47673828 4.90404297 -0.47673828 4.90404297 -0.26171875 2.95703125 C-0.17535156 1.98121094 -0.08898437 1.00539063 0 0 Z " fill="#0D57A2" transform="translate(454,480)"/>
<path d="M0 0 C0.90437805 0.00565979 1.8087561 0.01131958 2.74053955 0.01715088 C5.62444353 0.03951252 8.50709761 0.08970814 11.390625 0.140625 C13.34763829 0.16069029 15.30467108 0.17894101 17.26171875 0.1953125 C22.05516789 0.23937661 26.84768465 0.30840248 31.640625 0.390625 C31.310625 1.050625 30.980625 1.710625 30.640625 2.390625 C29.78235107 2.38276978 29.78235107 2.38276978 28.90673828 2.37475586 C16.10836247 2.27383036 3.40974682 2.50782152 -9.359375 3.390625 C-9.6275 4.03 -9.895625 4.669375 -10.171875 5.328125 C-11.359375 7.390625 -11.359375 7.390625 -14.359375 8.390625 C-14.00075276 5.88026935 -13.34692128 4.37259748 -11.89746094 2.27441406 C-8.08005444 -0.55889765 -4.63157766 -0.10913237 0 0 Z " fill="#0A84AD" transform="translate(623.359375,461.609375)"/>
<path d="M0 0 C2.09087271 3.13630906 3.0159838 5.78507349 4.125 9.375 C4.47820313 10.49648438 4.83140625 11.61796875 5.1953125 12.7734375 C5.92181482 15.68650019 6.16735595 18.02106411 6 21 C5.34 21 4.68 21 4 21 C1.69 16.38 -0.62 11.76 -3 7 C-2.34 6.34 -1.68 5.68 -1 5 C-0.35232207 2.42938689 -0.35232207 2.42938689 0 0 Z " fill="#1461AD" transform="translate(612,765)"/>
<path d="M0 0 C0.33 0 0.66 0 1 0 C1 20.13 1 40.26 1 61 C3.64 61.33 6.28 61.66 9 62 C8.67 62.66 8.34 63.32 8 64 C5.23723823 63.47731534 2.6739124 62.89130413 0 62 C0 41.54 0 21.08 0 0 Z " fill="#1899BC" transform="translate(401,623)"/>
<path d="M0 0 C0.33 0 0.66 0 1 0 C1.04898438 1.01320313 1.09796875 2.02640625 1.1484375 3.0703125 C1.22352564 4.42189911 1.29907081 5.77346038 1.375 7.125 C1.4059375 7.79015625 1.436875 8.4553125 1.46875 9.140625 C1.73182552 13.6129089 2.53541812 16.60625436 4 21 C24.295 21.495 24.295 21.495 45 22 C45 22.33 45 22.66 45 23 C39.23429185 23.12363784 33.46935578 23.21435706 27.70263672 23.2746582 C25.74123697 23.29979604 23.77993084 23.33391165 21.81884766 23.37719727 C18.99878856 23.43788208 16.17996806 23.46621641 13.359375 23.48828125 C12.48319519 23.51408768 11.60701538 23.5398941 10.70428467 23.56648254 C4.64671894 23.56927052 4.64671894 23.56927052 1.43945312 20.74609375 C0.00906558 18.01729471 -0.47787538 16.60616935 -0.390625 13.57421875 C-0.37773438 12.77822266 -0.36484375 11.98222656 -0.3515625 11.16210938 C-0.31804688 10.34548828 -0.28453125 9.52886719 -0.25 8.6875 C-0.23195313 7.85154297 -0.21390625 7.01558594 -0.1953125 6.15429688 C-0.14841126 4.10236772 -0.07667411 2.05103244 0 0 Z " fill="#0A417D" transform="translate(609,582)"/>
<path d="M0 0 C5.93002267 -0.37851209 10.47239641 0.89424625 16 3 C13.92446352 3.5534764 12.15634036 4 10 4 C9.67 6.64 9.34 9.28 9 12 C5.74483572 8.83525695 2.67991207 5.67247209 0 2 C0 1.34 0 0.68 0 0 Z " fill="#12C6CA" transform="translate(648,628)"/>
<path d="M0 0 C-1.26540052 3.79620155 -2.78218431 4.48678188 -6.0625 6.6875 C-6.98160156 7.31011719 -7.90070312 7.93273437 -8.84765625 8.57421875 C-9.91306641 9.27998047 -9.91306641 9.27998047 -11 10 C-11.66 8.68 -12.32 7.36 -13 6 C-13.66 6 -14.32 6 -15 6 C-14.67 5.01 -14.34 4.02 -14 3 C-11.85546875 2.05078125 -11.85546875 2.05078125 -9.1875 1.3125 C-8.31480469 1.06113281 -7.44210937 0.80976562 -6.54296875 0.55078125 C-4 0 -4 0 0 0 Z " fill="#1AD1D5" transform="translate(897,549)"/>
<path d="M0 0 C0.33 0 0.66 0 1 0 C2.52429718 13.9557875 2.52429718 13.9557875 -1.015625 18.703125 C-3.58444689 20.71818887 -6.16512669 22.38552058 -9 24 C-10.15098126 24.84721713 -11.29798109 25.69992746 -12.4375 26.5625 C-13.283125 27.036875 -14.12875 27.51125 -15 28 C-15.99 27.67 -16.98 27.34 -18 27 C-17.01 26.67 -16.02 26.34 -15 26 C-13.79117904 23.99983534 -13.79117904 23.99983534 -13 22 C-12.01 22.33 -11.02 22.66 -10 23 C-10 22.34 -10 21.68 -10 21 C-9.01 21 -8.02 21 -7 21 C-6.71125 20.360625 -6.4225 19.72125 -6.125 19.0625 C-5 17 -5 17 -3 16 C-0.65229357 12.47844036 -0.62330386 10.49228157 -0.375 6.3125 C-0.30023438 5.13300781 -0.22546875 3.95351563 -0.1484375 2.73828125 C-0.09945313 1.83464844 -0.05046875 0.93101562 0 0 Z " fill="#0E5EA9" transform="translate(473,451)"/>
<path d="M0 0 C5.8722263 0.77886422 9.00800285 3.82858725 13 8 C15.90675705 12.48125045 15.18074286 17.82874609 15 23 C14.34 23 13.68 23 13 23 C13 19.37 13 15.74 13 12 C12.34 12 11.68 12 11 12 C10.7525 11.236875 10.505 10.47375 10.25 9.6875 C8.8747135 6.73063402 7.64863513 5.7942367 5 4 C4.67 3.34 4.34 2.68 4 2 C1.97536745 1.34786708 1.97536745 1.34786708 0 1 C0 0.67 0 0.34 0 0 Z " fill="#1AB6BE" transform="translate(705,309)"/>
<path d="M0 0 C1.65 0 3.3 0 5 0 C5 0.66 5 1.32 5 2 C7.71655403 3.35827701 9.90789406 3.1323445 12.9375 3.125 C13.99839844 3.12757813 15.05929687 3.13015625 16.15234375 3.1328125 C19.07573057 3.12569346 19.07573057 3.12569346 22 2 C22 1.34 22 0.68 22 0 C23.32 0.33 24.64 0.66 26 1 C19.77810594 5.28619369 15.47284659 6.72688098 8 6 C3.93337338 4.44728802 2.42480398 3.63720598 0 0 Z " fill="#125FA5" transform="translate(819,498)"/>
<path d="M0 0 C0.33 0 0.66 0 1 0 C1.07401579 5.94479629 1.12853813 11.88932593 1.16479492 17.83447266 C1.17990526 19.85795766 1.20039437 21.8814098 1.22631836 23.90478516 C1.26260328 26.80900165 1.27970355 29.71278615 1.29296875 32.6171875 C1.30845261 33.52556366 1.32393646 34.43393982 1.33988953 35.36984253 C1.34011612 36.21056305 1.34034271 37.05128357 1.34057617 37.91748047 C1.34723801 38.65916473 1.35389984 39.400849 1.36076355 40.16500854 C1.24171158 40.77055573 1.12265961 41.37610291 1 42 C0.01 42.66 -0.98 43.32 -2 44 C-1.84152588 42.85853516 -1.68305176 41.71707031 -1.51977539 40.54101562 C-0.97114832 36.13846314 -0.78287249 31.77626615 -0.68359375 27.34375 C-0.66281265 26.55601196 -0.64203156 25.76827393 -0.62062073 24.95666504 C-0.55589026 22.47118794 -0.49660094 19.98561667 -0.4375 17.5 C-0.39424177 15.80207408 -0.35062532 14.10415725 -0.30664062 12.40625 C-0.20028887 8.27092675 -0.09881251 4.13550999 0 0 Z " fill="#05497F" transform="translate(659,559)"/>
<path d="M0 0 C0 0.99 0 1.98 0 3 C-0.61875 3.04125 -1.2375 3.0825 -1.875 3.125 C-4.2688216 3.8198774 -4.2688216 3.8198774 -5.0625 6.5 C-5.371875 7.655 -5.68125 8.81 -6 10 C-6.53290955 11.62789287 -7.07489721 13.25283642 -7.625 14.875 C-7.88539063 15.65617187 -8.14578125 16.43734375 -8.4140625 17.2421875 C-8.60742188 17.82226562 -8.80078125 18.40234375 -9 19 C-9.33 19 -9.66 19 -10 19 C-10.50227868 12.7215165 -10.21079416 9.02955969 -6 4 C-2.42105263 0 -2.42105263 0 0 0 Z M-13 19 C-12.01 19.33 -11.02 19.66 -10 20 C-10.99 20.66 -11.98 21.32 -13 22 C-13.66 21.34 -14.32 20.68 -15 20 C-14.34 19.67 -13.68 19.34 -13 19 Z " fill="#1496BB" transform="translate(588,366)"/>
<path d="M0 0 C4.98704856 -0.35480978 8.82919691 -0.58540154 13.375 1.6875 C16.52665348 4.46395664 19.11311814 7.22623629 21 11 C21.06996014 12.70702735 21.08440154 14.41668003 21.0625 16.125 C21.05347656 17.03507812 21.04445313 17.94515625 21.03515625 18.8828125 C21.02355469 19.58148438 21.01195312 20.28015625 21 21 C18.87000003 17.20960634 18.83297544 14.34263862 19 10 C18.34 10 17.68 10 17 10 C16.67 9.01 16.34 8.02 16 7 C15.01 6.34 14.02 5.68 13 5 C13 4.34 13 3.68 13 3 C8.71 2.34 4.42 1.68 0 1 C0 0.67 0 0.34 0 0 Z " fill="#0F62AB" transform="translate(829,468)"/>
<path d="M0 0 C0 0.33 0 0.66 0 1 C-1.22976563 1.25523437 -1.22976563 1.25523437 -2.484375 1.515625 C-4.10085938 1.87914062 -4.10085938 1.87914062 -5.75 2.25 C-6.81734375 2.48203125 -7.8846875 2.7140625 -8.984375 2.953125 C-13.07149914 4.3719712 -15.14938571 6.26068422 -17.046875 10.140625 C-17.27890625 10.83671875 -17.5109375 11.5328125 -17.75 12.25 C-18.1625 13.4875 -18.575 14.725 -19 16 C-19.33 16 -19.66 16 -20 16 C-20.4894141 11.98680437 -20.05022528 9.599159 -17.8125 6.3125 C-12.6347468 -0.1884568 -7.94836234 -0.41671026 0 0 Z " fill="#115BA7" transform="translate(440,468)"/>
<path d="M0 0 C0.66 0.33 1.32 0.66 2 1 C1.60167969 1.51046875 1.20335937 2.0209375 0.79296875 2.546875 C-3.69926594 8.71140143 -5.5630861 14.55073585 -7 22 C-7.66 21.67 -8.32 21.34 -9 21 C-8.79915925 12.08997416 -6.46636566 6.18275313 0 0 Z " fill="#38B7C5" transform="translate(557,311)"/>
<path d="M0 0 C0 3.52032428 -0.70351351 4.4385343 -3 7 C-3.66 7 -4.32 7 -5 7 C-5 7.66 -5 8.32 -5 9 C-4.34 9 -3.68 9 -3 9 C-3 9.66 -3 10.32 -3 11 C-5.3125 12.6875 -5.3125 12.6875 -8 14 C-8.99 13.67 -9.98 13.34 -11 13 C-9.46356148 9.31930113 -7.21849055 7.01224796 -4.375 4.25 C-3.55773437 3.45078125 -2.74046875 2.6515625 -1.8984375 1.828125 C-0.95871094 0.92320312 -0.95871094 0.92320312 0 0 Z " fill="#17357B" transform="translate(653,828)"/>
<path d="M0 0 C5.57082917 0.57136709 9.99780115 2.66333271 15 5 C16.35163553 5.58917446 17.70555431 6.17316074 19.0625 6.75 C20.5165625 7.36875 20.5165625 7.36875 22 8 C21.67 8.66 21.34 9.32 21 10 C13.47565731 7.70089529 6.12101033 5.10084194 0 0 Z " fill="#1079BC" transform="translate(376,557)"/>
<path d="M0 0 C0.33 1.32 0.66 2.64 1 4 C4.3 4.66 7.6 5.32 11 6 C11 6.66 11 7.32 11 8 C11.598125 7.79375 12.19625 7.5875 12.8125 7.375 C15 7 15 7 18 9 C11.3653068 9.23695333 4.92302732 9.33842185 -0.5 5 C-2 3 -2 3 -2 1 C-1.34 0.67 -0.68 0.34 0 0 Z " fill="#185FA7" transform="translate(425,495)"/>
<path d="M0 0 C0.66 0.33 1.32 0.66 2 1 C3.18930489 5.33246782 3.37649319 7.28735218 1.25 11.3125 C-1 14 -1 14 -4 16 C-7.1875 15.625 -7.1875 15.625 -10 15 C-10 14.67 -10 14.34 -10 14 C-8.906875 13.731875 -7.81375 13.46375 -6.6875 13.1875 C-2.65333607 11.92541361 -2.65333607 11.92541361 0 9 C0.36146457 6.71669899 0.36146457 6.71669899 0.1875 4.3125 C0.16042969 3.50425781 0.13335938 2.69601562 0.10546875 1.86328125 C0.07066406 1.24839844 0.03585937 0.63351562 0 0 Z " fill="#0F61A9" transform="translate(839,480)"/>
<path d="M0 0 C3.38231081 1.39957689 5.27928642 2.73064421 7 6 C7.24493747 8.72036936 7.13708782 11.25824366 7 14 C6.01 13.34 5.02 12.68 4 12 C3.8125 8.375 3.8125 8.375 4 5 C3.34 5 2.68 5 2 5 C1.34 3.35 0.68 1.7 0 0 Z " fill="#37ABC9" transform="translate(686,370)"/>
<path d="M0 0 C2.58361518 -0.05407567 5.16609255 -0.093707 7.75 -0.125 C8.84441406 -0.15013672 8.84441406 -0.15013672 9.9609375 -0.17578125 C13.8044624 -0.21072239 16.74606772 -0.17499684 20 2 C15.57249834 3.22938396 11.65180393 2.75030185 7.1875 2.0625 C6.49462891 1.96259766 5.80175781 1.86269531 5.08789062 1.75976562 C3.39082787 1.51398412 1.69524541 1.25801848 0 1 C0 0.67 0 0.34 0 0 Z " fill="#3F598F" transform="translate(420,778)"/>
<path d="M0 0 C0.69738281 0.01804687 1.39476562 0.03609375 2.11328125 0.0546875 C3.82611539 0.10161446 5.53823824 0.17335395 7.25 0.25 C7.25 0.58 7.25 0.91 7.25 1.25 C6.27417969 1.26417969 5.29835938 1.27835937 4.29296875 1.29296875 C2.38451172 1.36451172 2.38451172 1.36451172 0.4375 1.4375 C-1.45935547 1.48970703 -1.45935547 1.48970703 -3.39453125 1.54296875 C-6.91696605 1.88831817 -6.91696605 1.88831817 -8.51171875 4.73828125 C-8.92035156 5.56714844 -9.32898438 6.39601563 -9.75 7.25 C-10.74 7.58 -11.73 7.91 -12.75 8.25 C-11.68162414 0.77136897 -6.70734048 -0.32966135 0 0 Z " fill="#188DB2" transform="translate(621.75,461.75)"/>
<path d="M0 0 C0.66 0.66 1.32 1.32 2 2 C-0.29251878 2 -2.58734112 1.96169514 -4.875 1.8125 C-8.54505196 2.03270312 -10.83456228 3.19117844 -14 5 C-14.66 4.34 -15.32 3.68 -16 3 C-10.68497165 0.28594297 -5.99879395 -0.94074773 0 0 Z " fill="#199EC1" transform="translate(679,364)"/>
<path d="M0 0 C0 3.71219303 -1.24525745 5.77127371 -3 9 C-3.33 9.33 -3.66 9.66 -4 10 C-4.23287008 11.68183948 -4.41264166 13.3712416 -4.5625 15.0625 C-4.64628906 15.98160156 -4.73007812 16.90070313 -4.81640625 17.84765625 C-4.87699219 18.55792969 -4.93757812 19.26820313 -5 20 C-5.33 20 -5.66 20 -6 20 C-6.47425518 12.71491352 -6.33794218 7.99656713 -2 2 C-1.34 1.34 -0.68 0.68 0 0 Z " fill="#269EBF" transform="translate(662,368)"/>
<path d="M0 0 C0.33 0.99 0.66 1.98 1 3 C-2.3 6.3 -5.6 9.6 -9 13 C-9.66 12.67 -10.32 12.34 -11 12 C-7.37 8.04 -3.74 4.08 0 0 Z " fill="#1FA6C5" transform="translate(671,780)"/>
<path d="M0 0 C0.33 0 0.66 0 1 0 C1 7.59 1 15.18 1 23 C-0.32 23.33 -1.64 23.66 -3 24 C-2.01 22.515 -2.01 22.515 -1 21 C-0.63423946 18.68076726 -0.63423946 18.68076726 -0.5859375 16.11328125 C-0.54726563 15.17548828 -0.50859375 14.23769531 -0.46875 13.27148438 C-0.4378125 12.29501953 -0.406875 11.31855469 -0.375 10.3125 C-0.33632813 9.32443359 -0.29765625 8.33636719 -0.2578125 7.31835938 C-0.16354133 4.87909293 -0.07793782 2.43983405 0 0 Z " fill="#02549F" transform="translate(781,562)"/>
<path d="M0 0 C2.32472205 2.85306797 3.7508258 5.54074837 5 9 C2 9 2 9 0.25 7.875 C-1 6 -1 6 -0.6875 2.8125 C-0.460625 1.884375 -0.23375 0.95625 0 0 Z " fill="#199DB8" transform="translate(606,809)"/>
<path d="M0 0 C5.28 0 10.56 0 16 0 C14 2 14 2 11.7578125 2.125 C10.00780077 2.04191339 8.25780066 1.95858152 6.5078125 1.875 C3.81878382 2.00903258 2.29187953 2.63553219 0 4 C0 2.68 0 1.36 0 0 Z " fill="#0C4285" transform="translate(886,596)"/>
<path d="M0 0 C1.32 0.66 2.64 1.32 4 2 C1.1875 4.0625 1.1875 4.0625 -2 6 C-2.99 5.67 -3.98 5.34 -5 5 C-3.35 3.35 -1.7 1.7 0 0 Z " fill="#0C2F6D" transform="translate(664,826)"/>
<path d="M0 0 C0 0.99 0 1.98 0 3 C-2.59688473 5.59688473 -4.10659265 6.92058601 -7.8125 7.25 C-8.534375 7.1675 -9.25625 7.085 -10 7 C-7.2180632 3.72713318 -3.72045933 2.03572303 0 0 Z " fill="#1B83BA" transform="translate(544,403)"/>
<path d="M0 0 C-2.39763185 2.39763185 -3.33273498 2.34280586 -6.625 2.625 C-7.44226563 2.69976563 -8.25953125 2.77453125 -9.1015625 2.8515625 C-9.72804688 2.90054688 -10.35453125 2.94953125 -11 3 C-11 2.01 -11 1.02 -11 0 C-7.18243176 -1.37432457 -3.92744671 -0.67975039 0 0 Z " fill="#133B7E" transform="translate(812,753)"/>
<path d="M0 0 C0.66 0 1.32 0 2 0 C4.29648649 2.5614657 5 3.47967572 5 7 C2.08482708 5.92598892 0.22189824 5.22189824 -2 3 C-1.34 3 -0.68 3 0 3 C0 2.01 0 1.02 0 0 Z " fill="#274180" transform="translate(604,835)"/>
<path d="M0 0 C3.465 1.98 3.465 1.98 7 4 C7 4.99 7 5.98 7 7 C4.03 5.35 1.06 3.7 -2 2 C-1.34 1.34 -0.68 0.68 0 0 Z " fill="#1D77B9" transform="translate(533,692)"/>
<path d="M0 0 C0.87527344 -0.01417969 1.75054688 -0.02835937 2.65234375 -0.04296875 C5.0625 0.1875 5.0625 0.1875 8.0625 2.1875 C5.8540684 2.1875 3.64530589 2.17756681 1.4375 2.125 C-0.95588235 2.02022059 -0.95588235 2.02022059 -2.9375 3.1875 C-5.0625 2.25 -5.0625 2.25 -6.9375 1.1875 C-4.47380468 -0.04434766 -2.7480499 0.02017658 0 0 Z " fill="#1D9FC2" transform="translate(594.9375,363.8125)"/>
<path d="M0 0 C0.66 0.33 1.32 0.66 2 1 C0.576875 2.36125 0.576875 2.36125 -0.875 3.75 C-3.14549867 6.00978877 -4.83296506 7.96570916 -6 11 C-6.66 11 -7.32 11 -8 11 C-6.52670958 5.99081256 -3.72484762 3.48192278 0 0 Z " fill="#22B8C3" transform="translate(692,310)"/>
<path d="M0 0 C0.66 0.33 1.32 0.66 2 1 C0.02 3.97 -1.96 6.94 -4 10 C-4.66 9.67 -5.32 9.34 -6 9 C-4.68775452 5.06326356 -3.08089673 2.77280706 0 0 Z " fill="#26BCC9" transform="translate(557,311)"/>
<path d="M0 0 C6.625 -0.25 6.625 -0.25 10 2 C8.02 2 6.04 2 4 2 C4 2.66 4 3.32 4 4 C2.68 3.34 1.36 2.68 0 2 C0 1.34 0 0.68 0 0 Z " fill="#27CBD2" transform="translate(648,628)"/>
<path d="M0 0 C0.66 0.33 1.32 0.66 2 1 C-2.75 5.875 -2.75 5.875 -5 7 C-5.66 6.34 -6.32 5.68 -7 5 C-4.69 3.35 -2.38 1.7 0 0 Z " fill="#1F6FB6" transform="translate(510,494)"/>
<path d="M0 0 C0 0.33 0 0.66 0 1 C-1.0725 1.12375 -2.145 1.2475 -3.25 1.375 C-6.84092264 1.77761368 -6.84092264 1.77761368 -9.1875 3.125 C-11 4 -11 4 -13.25 3.625 C-13.8275 3.41875 -14.405 3.2125 -15 3 C-9.8531808 -0.16727335 -5.841744 -0.35050464 0 0 Z " fill="#337DBD" transform="translate(836,467)"/>
<path d="M0 0 C6.625 0.75 6.625 0.75 10 3 C6.18510326 4.46726798 3.70988378 3.43336419 0 2 C0 1.34 0 0.68 0 0 Z " fill="#2067AD" transform="translate(457,657)"/>
<path d="M0 0 C1.32 0 2.64 0 4 0 C4 0.66 4 1.32 4 2 C4.66 2.66 5.32 3.32 6 4 C3.03 4 0.06 4 -3 4 C-1.75 2 -1.75 2 0 0 Z " fill="#2194B7" transform="translate(672,397)"/>
<path d="M0 0 C0 0.66 0 1.32 0 2 C-4.455 3.485 -4.455 3.485 -9 5 C-9.66 4.34 -10.32 3.68 -11 3 C-9.54293274 2.49632243 -8.08429904 1.99717444 -6.625 1.5 C-5.81289063 1.2215625 -5.00078125 0.943125 -4.1640625 0.65625 C-2 0 -2 0 0 0 Z " fill="#143276" transform="translate(775,761)"/>
<path d="M0 0 C0.33 0 0.66 0 1 0 C1 1.65 1 3.3 1 5 C3.64 5.33 6.28 5.66 9 6 C8.67 6.66 8.34 7.32 8 8 C5.23723823 7.47731534 2.6739124 6.89130413 0 6 C0 4.02 0 2.04 0 0 Z " fill="#2EAEC8" transform="translate(401,679)"/>
<path d="M0 0 C1.093125 0.226875 2.18625 0.45375 3.3125 0.6875 C3.6425 1.6775 3.9725 2.6675 4.3125 3.6875 C2.32682292 3.65494792 0.34114583 3.62239583 -1.64453125 3.58984375 C-3.89055461 3.60486783 -3.89055461 3.60486783 -6.6875 4.6875 C-6.6875 2.6875 -6.6875 2.6875 -5.625 1 C-3.6875 -0.3125 -3.6875 -0.3125 0 0 Z " fill="#08529E" transform="translate(438.6875,474.3125)"/>
<path d="M0 0 C1.27875 0.103125 2.5575 0.20625 3.875 0.3125 C4.95394531 0.39951172 4.95394531 0.39951172 6.0546875 0.48828125 C8 1 8 1 10 4 C8.375 4.75 8.375 4.75 6 5 C2.75 3.125 2.75 3.125 0 1 C0 0.67 0 0.34 0 0 Z " fill="#198AB5" transform="translate(715,409)"/>
<path d="M0 0 C3.93673644 1.31224548 6.22719294 2.91910327 9 6 C4.58763974 6 3.21615077 3.9302707 0 1 C0 0.67 0 0.34 0 0 Z " fill="#0A296F" transform="translate(571,805)"/>
<path d="M0 0 C1.85776765 3.13498292 2.20140476 5.37471432 2 9 C1.34 9 0.68 9 0 9 C-1.125 6.75 -1.125 6.75 -2 4 C-1.125 1.6875 -1.125 1.6875 0 0 Z " fill="#3276C0" transform="translate(616,777)"/>
<path d="M0 0 C3.25543229 0.34879632 4.01873107 1.02133261 6.25 3.5625 C6.8275 4.366875 7.405 5.17125 8 6 C5 6 5 6 3.61328125 4.6875 C2.40885417 3.125 1.20442708 1.5625 0 0 Z " fill="#E4F0F7" transform="translate(557,684)"/>
<path d="M0 0 C0.33 0 0.66 0 1 0 C1 2.97 1 5.94 1 9 C-0.32 9 -1.64 9 -3 9 C-2.01 6.03 -1.02 3.06 0 0 Z " fill="#025EA4" transform="translate(584,634)"/>
<path d="M0 0 C0.99 0.495 0.99 0.495 2 1 C2 1.66 2 2.32 2 3 C2.66 3.33 3.32 3.66 4 4 C3.67 4.66 3.34 5.32 3 6 C3.99 6.33 4.98 6.66 6 7 C5.01 7.495 5.01 7.495 4 8 C2 6.8125 2 6.8125 0 5 C-0.25 2.3125 -0.25 2.3125 0 0 Z " fill="#0C54A0" transform="translate(488,590)"/>
<path d="M0 0 C0 0.99 0 1.98 0 3 C-2.875 3.625 -2.875 3.625 -6 4 C-6.66 3.34 -7.32 2.68 -8 2 C-5.09399739 0.74335022 -3.20395416 0 0 0 Z " fill="#224486" transform="translate(752,769)"/>
<path d="M0 0 C2.97 0.495 2.97 0.495 6 1 C5.34 1.66 4.68 2.32 4 3 C3.34 2.67 2.68 2.34 2 2 C1.67 3.32 1.34 4.64 1 6 C0.67 6 0.34 6 0 6 C0 4.02 0 2.04 0 0 Z " fill="#0A76BA" transform="translate(370,555)"/>
<path d="M0 0 C0.66 0.33 1.32 0.66 2 1 C1.360625 1.721875 0.72125 2.44375 0.0625 3.1875 C-1.98673535 5.98191184 -2.61332946 7.61663274 -3 11 C-3.33 11 -3.66 11 -4 11 C-4.36630156 7.06225823 -4.30233203 5.43460229 -2 2.125 C-1.34 1.42375 -0.68 0.7225 0 0 Z " fill="#D6E4F1" transform="translate(828,478)"/>
<path d="M0 0 C0 0.33 0 0.66 0 1 C-4.17737474 2.59138085 -7.53160785 3.21278058 -12 3 C-8.40198016 -0.59801984 -4.84291279 -0.09137571 0 0 Z " fill="#43C5CE" transform="translate(571,308)"/>
<path d="M0 0 C2.31 0.33 4.62 0.66 7 1 C3.09971775 3.60018816 -0.47434569 3.15085514 -5 3 C-5 2.67 -5 2.34 -5 2 C-3.35 1.67 -1.7 1.34 0 1 C0 0.67 0 0.34 0 0 Z " fill="#344F87" transform="translate(841,774)"/>
<path d="M0 0 C0.66 0.33 1.32 0.66 2 1 C2 1.66 2 2.32 2 3 C0.02 3.66 -1.96 4.32 -4 5 C-4 4.01 -4 3.02 -4 2 C-2.125 0.9375 -2.125 0.9375 0 0 Z " fill="#2FB4CC" transform="translate(746,725)"/>
<path d="M0 0 C1.65 1.65 3.3 3.3 5 5 C4.67 5.66 4.34 6.32 4 7 C2.35 5.68 0.7 4.36 -1 3 C-0.67 2.01 -0.34 1.02 0 0 Z " fill="#1565AD" transform="translate(566,717)"/>
<path d="M0 0 C0 0.99 0 1.98 0 3 C-2.5 5.1875 -2.5 5.1875 -5 7 C-5.66 6.67 -6.32 6.34 -7 6 C-4.69 4.02 -2.38 2.04 0 0 Z " fill="#1692C0" transform="translate(836,626)"/>
<path d="M0 0 C1.32 0.66 2.64 1.32 4 2 C2.35 3.32 0.7 4.64 -1 6 C-1.625 4.125 -1.625 4.125 -2 2 C-1.34 1.34 -0.68 0.68 0 0 Z " fill="#10C4CB" transform="translate(801,624)"/>
<path d="M0 0 C1.4540625 0.0309375 1.4540625 0.0309375 2.9375 0.0625 C1.2875 1.7125 -0.3625 3.3625 -2.0625 5.0625 C-2.7225 3.7425 -3.3825 2.4225 -4.0625 1.0625 C-3.0625 0.0625 -3.0625 0.0625 0 0 Z " fill="#12C9CB" transform="translate(846.0625,586.9375)"/>
<path d="M0 0 C0.33 0.66 0.66 1.32 1 2 C0.34 2 -0.32 2 -1 2 C-1.33 2.99 -1.66 3.98 -2 5 C-4.97 4.505 -4.97 4.505 -8 4 C-5.53721199 1.53721199 -3.29323018 1.00228745 0 0 Z " fill="#15D1D3" transform="translate(867,559)"/>
<path d="M0 0 C0.66 0.33 1.32 0.66 2 1 C-0.40436026 4.60654039 -1.94679607 4.85452932 -6 6 C-4 4 -2 2 0 0 Z M-8 6 C-6 7 -6 7 -6 7 Z " fill="#E6FAFB" transform="translate(894,552)"/>
<path d="M0 0 C0 1.32 0 2.64 0 4 C-1.65 3.67 -3.3 3.34 -5 3 C-5 2.34 -5 1.68 -5 1 C-3 0 -3 0 0 0 Z " fill="#1264A5" transform="translate(768,507)"/>
<path d="M0 0 C0.66 0.33 1.32 0.66 2 1 C1.38125 1.7425 0.7625 2.485 0.125 3.25 C-1.60437281 5.48801188 -2.86106661 7.43739987 -4 10 C-3.38461538 3.47692308 -3.38461538 3.47692308 -1.4375 1.0625 C-0.7259375 0.5365625 -0.7259375 0.5365625 0 0 Z " fill="#CDDCEC" transform="translate(433,478)"/>
<path d="M0 0 C0 0.66 0 1.32 0 2 C-2.31 3.32 -4.62 4.64 -7 6 C-7.66 5.34 -8.32 4.68 -9 4 C-2.25 0 -2.25 0 0 0 Z " fill="#1B90BE" transform="translate(573,387)"/>
</svg>
