<?xml version="1.0" encoding="UTF-8"?>
<svg version="1.1" xmlns="http://www.w3.org/2000/svg" width="757" height="752">
<path d="M0 0 C0.68429077 -0.00095673 1.36858154 -0.00191345 2.0736084 -0.00289917 C3.52286877 -0.0035808 4.97213218 -0.00172773 6.42138672 0.00244141 C8.64687928 0.00778998 10.87217001 0.0024959 13.09765625 -0.00390625 C14.50260461 -0.00324547 15.90755285 -0.0019643 17.3125 0 C18.59962891 0.00112793 19.88675781 0.00225586 21.21289062 0.00341797 C24.15625 0.1328125 24.15625 0.1328125 25.15625 1.1328125 C25.2528183 3.03109486 25.27812216 4.93301913 25.27650452 6.83375549 C25.27787918 8.0720108 25.27925385 9.31026611 25.28067017 10.58604431 C25.27713056 11.97085595 25.27349574 13.35566735 25.26977539 14.74047852 C25.26949352 16.18888344 25.26965124 17.63728851 25.2702179 19.08569336 C25.27050589 23.02973564 25.2646088 26.97374777 25.25764394 30.91778302 C25.25141078 35.03510719 25.25080663 39.15243198 25.24961853 43.26976013 C25.2465051 51.07187112 25.23829156 58.87396817 25.22826904 66.67607301 C25.21710826 75.55621554 25.21159754 84.43635872 25.20657361 93.31650651 C25.19610896 111.58861642 25.17850929 129.86071334 25.15625 148.1328125 C26.08307587 148.1315033 27.00990173 148.13019409 27.96481323 148.12884521 C31.43714437 148.12455855 34.90947264 148.12143726 38.38180542 148.11907959 C39.87834722 148.11783034 41.37488871 148.11613038 42.87142944 148.11395264 C45.03521804 148.1108851 47.19900257 148.1094938 49.36279297 148.10839844 C50.66086884 148.10708923 51.9589447 148.10578003 53.2963562 148.10443115 C73.84740965 148.25554064 94.88447034 151.08153378 114.953125 155.48046875 C119.71051938 156.44935273 124.50949379 157.02789309 129.328125 157.60546875 C132.15625 158.1328125 132.15625 158.1328125 135.15625 160.1328125 C137.55085159 160.7958884 139.92428444 161.39147631 142.34375 161.9453125 C150.05552958 163.79168375 157.57631734 166.05226668 165.12109375 168.48291016 C167.22269705 169.15403156 169.32899718 169.80793 171.4375 170.45703125 C180.32104608 173.19184192 188.91197687 175.93577233 197.19140625 180.21484375 C200.10578099 181.57643036 203.03970053 182.35367513 206.15625 183.1328125 C206.15625 183.7928125 206.15625 184.4528125 206.15625 185.1328125 C207.3628125 185.5040625 207.3628125 185.5040625 208.59375 185.8828125 C215.8619802 188.43306871 222.60853232 191.75877516 229.21875 195.6953125 C229.94336426 196.12513428 230.66797852 196.55495605 231.41455078 196.99780273 C281.90691489 227.33151443 281.90691489 227.33151443 287.92578125 245.44921875 C288.03986328 246.28259766 288.03986328 246.28259766 288.15625 247.1328125 C283.54969387 246.5775967 280.19159307 244.56033463 276.34375 242.1328125 C275.00622064 241.31214992 273.66764341 240.49319319 272.328125 239.67578125 C271.64041016 239.25474121 270.95269531 238.83370117 270.24414062 238.39990234 C259.88084203 232.11066945 249.43691448 226.61244827 238.15625 222.1328125 C237.14949219 221.72772461 236.14273438 221.32263672 235.10546875 220.90527344 C220.92694708 215.20550773 206.74163774 209.7052158 192.15625 205.1328125 C192.15625 204.4728125 192.15625 203.8128125 192.15625 203.1328125 C185.17181007 201.70865338 178.17319482 200.38679123 171.15625 199.1328125 C171.15625 198.4728125 171.15625 197.8128125 171.15625 197.1328125 C170.01414063 197.17148437 168.87203125 197.21015625 167.6953125 197.25 C163.10465659 197.24797858 158.96362384 196.38184975 154.53125 195.2578125 C153.80679688 195.08378906 153.08234375 194.90976562 152.3359375 194.73046875 C149.2826667 193.98374491 146.32780737 193.19378103 143.36230469 192.13989258 C139.85001791 191.03661943 136.48041374 190.4672401 132.8359375 189.94921875 C131.79795265 189.79909332 131.79795265 189.79909332 130.73899841 189.64593506 C128.50380082 189.32378889 126.26759907 189.00935631 124.03125 188.6953125 C121.70668577 188.36362512 119.38234253 188.03041693 117.05799866 187.69718933 C115.5269613 187.4779077 113.99582353 187.25932595 112.46458435 187.04145813 C108.39698591 186.46141018 104.33480618 185.8589586 100.27734375 185.2109375 C90.45646722 183.6427202 80.67171124 182.54529753 70.75317383 181.77856445 C69.83560303 181.70726318 68.91803223 181.63596191 67.97265625 181.5625 C67.16256104 181.50304199 66.35246582 181.44358398 65.51782227 181.38232422 C63.15625 181.1328125 63.15625 181.1328125 60.92279053 180.63005066 C57.75237473 180.06022285 54.75154202 179.970608 51.5300293 179.92749023 C50.88556351 179.91759064 50.24109772 179.90769104 49.57710266 179.89749146 C47.46159451 179.86607863 45.34606395 179.84119971 43.23046875 179.81640625 C41.75787292 179.79581922 40.28528276 179.7748223 38.81269836 179.75343323 C34.94779067 179.69839307 31.08283126 179.64890464 27.21783447 179.60058594 C23.26952543 179.55023858 19.32129097 179.49462178 15.37304688 179.43945312 C7.63417785 179.33209261 -0.10475345 179.23059912 -7.84375 179.1328125 C-7.86707644 155.94176762 -7.88472792 132.75072467 -7.89556217 109.55967045 C-7.90072567 98.79246186 -7.9077694 88.02526056 -7.91918945 77.25805664 C-7.92913464 67.87696005 -7.93560303 58.49586873 -7.93783849 49.11476701 C-7.93914588 44.14431032 -7.9422335 39.1738687 -7.94948006 34.20341682 C-7.95623767 29.53073128 -7.95836749 24.85806709 -7.95685768 20.18537712 C-7.95713413 18.46519734 -7.95914078 16.74501688 -7.96295547 15.02484131 C-7.9678887 12.68674589 -7.96674968 10.34873246 -7.96400452 8.01063538 C-7.96492631 6.69892396 -7.9658481 5.38721254 -7.96679783 4.0357523 C-7.73744293 -1.37517985 -4.77129144 0.00418115 0 0 Z " fill="#053579" transform="translate(77.84375,355.8671875)"/>
<path d="M0 0 C1.78170846 -0.0165529 3.56335068 -0.04383442 5.34472656 -0.08203125 C7.92181622 -0.13695949 10.49735404 -0.15869628 13.07495117 -0.17333984 C13.86577591 -0.19600922 14.65660065 -0.21867859 15.47138977 -0.24203491 C19.29704873 -0.22750985 22.16973213 0.10705246 25.38085938 2.29174805 C28.81693848 6.51711007 28.64190219 9.5180563 28.45385742 14.80712891 C28.44536774 15.71009201 28.43687805 16.61305511 28.4281311 17.54338074 C28.39463537 20.41768458 28.31936578 23.28914698 28.24291992 26.16259766 C28.21281525 28.115031 28.18544032 30.06750847 28.16088867 32.02001953 C28.09485679 36.7978013 27.99136339 41.57346835 27.86791992 46.35009766 C29.04821777 46.32391357 30.22851562 46.29772949 31.44458008 46.27075195 C35.83891721 46.18000199 40.23317213 46.12275859 44.62817383 46.07543945 C46.52740424 46.05035161 48.42653862 46.01627297 50.32543945 45.97290039 C53.06119514 45.91199436 55.79567062 45.88383112 58.53198242 45.86181641 C59.79795761 45.82310677 59.79795761 45.82310677 61.08950806 45.78361511 C65.04761391 45.78174749 68.0826317 46.02501339 71.40600586 48.30053711 C74.77073556 52.46841084 74.70674167 55.4184433 74.59448242 60.63134766 C74.59597794 61.96800476 74.59597794 61.96800476 74.59750366 63.33166504 C74.59283365 65.21110986 74.57344292 67.09056848 74.5402832 68.96972656 C74.49306709 71.84114796 74.4991676 74.70885504 74.51245117 77.58056641 C74.50129697 79.41001555 74.48707677 81.23944911 74.46948242 83.06884766 C74.47130524 83.92418091 74.47312805 84.77951416 74.4750061 85.6607666 C74.37839213 89.73702906 74.18584542 91.8484945 71.95532227 95.36767578 C68.02797046 99.09751165 64.28842891 98.47927613 59.14135742 98.44775391 C57.84713364 98.44563148 57.84713364 98.44563148 56.52676392 98.44346619 C53.76544762 98.43785953 51.0042118 98.42530593 48.24291992 98.41259766 C46.37312942 98.40758351 44.50333766 98.40302046 42.63354492 98.39892578 C38.04497215 98.38788794 33.45645969 98.37061885 28.86791992 98.35009766 C28.88363037 99.50533936 28.89934082 100.66058105 28.91552734 101.85083008 C28.96992361 106.14649453 29.00430526 110.44212866 29.03271484 114.73803711 C29.04777938 116.59551111 29.06823501 118.45294967 29.09423828 120.31030273 C29.13072451 122.98381305 29.14766962 125.6568521 29.16088867 128.33056641 C29.17637253 129.15783737 29.19185638 129.98510834 29.20780945 130.83744812 C29.20916436 135.5040323 28.92321283 138.57712149 25.86791992 142.35009766 C22.80649111 144.3910502 22.17050496 144.60298712 18.71948242 144.62475586 C17.88852051 144.63428787 17.05755859 144.64381989 16.20141602 144.65364075 C15.3076123 144.65272934 14.41380859 144.65181793 13.49291992 144.65087891 C12.5720459 144.65516403 11.65117187 144.65944916 10.70239258 144.66386414 C8.7556236 144.66960654 6.80883316 144.67010835 4.86206055 144.66577148 C1.87926785 144.66260969 -1.10253491 144.68607801 -4.08520508 144.71142578 C-5.97582882 144.71369855 -7.86645524 144.71440237 -9.75708008 144.71337891 C-10.65088379 144.72258865 -11.5446875 144.7317984 -12.46557617 144.74128723 C-13.29653809 144.73505844 -14.1275 144.72882965 -14.98364258 144.72241211 C-15.71405762 144.72304153 -16.44447266 144.72367096 -17.19702148 144.72431946 C-19.71131682 144.23807882 -20.56917847 143.34594102 -22.13208008 141.35009766 C-23.03416131 138.64385396 -23.25435607 137.1115878 -23.24560547 134.33764648 C-23.24552994 133.537043 -23.24545441 132.73643951 -23.24537659 131.91157532 C-23.2402153 131.052108 -23.23505402 130.19264069 -23.22973633 129.30712891 C-23.22832138 128.42353195 -23.22690643 127.539935 -23.22544861 126.62956238 C-23.21985077 123.80720638 -23.20729869 120.98492968 -23.19458008 118.16259766 C-23.1895648 116.24918734 -23.18500194 114.33577579 -23.1809082 112.42236328 C-23.16988205 107.73157751 -23.15261891 103.04085103 -23.13208008 98.35009766 C-24.35314453 98.37628174 -25.57420898 98.40246582 -26.83227539 98.42944336 C-31.36447817 98.5199733 -35.89660114 98.57735706 -40.42944336 98.62475586 C-42.39084311 98.64989369 -44.35214924 98.68400931 -46.31323242 98.72729492 C-49.13329152 98.78797974 -51.95211201 98.81631407 -54.77270508 98.83837891 C-55.64888489 98.86418533 -56.5250647 98.88999176 -57.42779541 98.9165802 C-63.53511067 98.91939107 -63.53511067 98.91939107 -66.65454102 95.94458008 C-70.35367896 89.44908456 -69.43376295 82.20301397 -69.48217773 74.86621094 C-69.49871599 73.02916781 -69.52597803 71.19218847 -69.56420898 69.35546875 C-69.61913511 66.7022983 -69.64087637 64.05063603 -69.65551758 61.39697266 C-69.67818695 60.58113708 -69.70085632 59.76530151 -69.72421265 58.92474365 C-69.70990666 55.04008777 -69.41064861 52.08505091 -67.19042969 48.82128906 C-62.96352634 45.40588907 -59.95427326 45.57646552 -54.67504883 45.76416016 C-53.32060417 45.77689468 -53.32060417 45.77689468 -51.938797 45.78988647 C-49.06449316 45.82338221 -46.19303075 45.8986518 -43.31958008 45.97509766 C-41.36714674 46.00520232 -39.41466927 46.03257725 -37.4621582 46.05712891 C-32.68437643 46.12316078 -27.90870938 46.22665418 -23.13208008 46.35009766 C-23.15302734 45.16456299 -23.17397461 43.97902832 -23.19555664 42.75756836 C-23.26807339 38.35013962 -23.31392223 33.9427634 -23.35180664 29.53491211 C-23.37189553 27.62889736 -23.39917202 25.72294403 -23.43383789 23.81713867 C-23.4824765 21.0740644 -23.50507587 18.33180641 -23.52270508 15.58837891 C-23.54335022 14.73923416 -23.56399536 13.89008942 -23.58526611 13.01521301 C-23.5867944 8.96613385 -23.44740764 6.86763887 -21.29516602 3.33520508 C-15.9761402 -1.54617177 -6.85784598 0.04669064 0 0 Z " fill="#03649A" transform="translate(389.132080078125,222.64990234375)"/>
<path d="M0 0 C0.68429077 -0.00095673 1.36858154 -0.00191345 2.0736084 -0.00289917 C3.52286877 -0.0035808 4.97213218 -0.00172773 6.42138672 0.00244141 C8.64687928 0.00778998 10.87217001 0.0024959 13.09765625 -0.00390625 C14.50260461 -0.00324547 15.90755285 -0.0019643 17.3125 0 C18.59962891 0.00112793 19.88675781 0.00225586 21.21289062 0.00341797 C24.15625 0.1328125 24.15625 0.1328125 25.15625 1.1328125 C25.25554062 3.40875092 25.28257449 5.68783925 25.28323364 7.96594238 C25.28479363 8.68888001 25.28635362 9.41181764 25.28796089 10.15666246 C25.29197343 12.59730046 25.28878027 15.03787708 25.28564453 17.47851562 C25.28699846 19.22086117 25.28877834 20.96320643 25.29095459 22.70555115 C25.29552993 27.45128259 25.29373895 32.19699239 25.2905755 36.94272423 C25.28805242 41.89772985 25.2903893 46.85273356 25.29196167 51.80773926 C25.29378352 60.13045587 25.29137666 68.45316363 25.28662109 76.77587891 C25.28117845 86.41263873 25.28294109 96.04937741 25.2884475 105.68613672 C25.2929782 113.94428009 25.29362939 122.20241707 25.29100883 130.46056128 C25.28944582 135.39970083 25.28925295 140.33883043 25.29254532 145.27796936 C25.29542341 149.92030393 25.29344949 154.56261111 25.28765106 159.2049427 C25.28632313 160.91383379 25.28671814 162.62272716 25.28891373 164.33161736 C25.29162394 166.65433745 25.28824571 168.9769683 25.28323364 171.29968262 C25.28285662 172.60272087 25.28247959 173.90575912 25.28209114 175.24828339 C25.15625 178.1328125 25.15625 178.1328125 24.15625 179.1328125 C21.0682624 179.26942871 17.99984797 179.34411544 14.91015625 179.37890625 C12.95100371 179.41022675 10.99185674 179.44189755 9.03271484 179.47387695 C8.00152527 179.48923492 6.97033569 179.5045929 5.90789795 179.52041626 C-18.55473755 179.90314969 -42.47347569 181.07975229 -66.68798828 184.81176758 C-67.7964209 184.98216553 -68.90485352 185.15256348 -70.046875 185.328125 C-71.02301758 185.48297363 -71.99916016 185.63782227 -73.00488281 185.79736328 C-75.97677981 186.14853171 -78.85398899 186.18981831 -81.84375 186.1328125 C-81.84375 186.7928125 -81.84375 187.4528125 -81.84375 188.1328125 C-82.65936401 188.24387329 -82.65936401 188.24387329 -83.49145508 188.35717773 C-112.25453039 192.41035839 -139.87776772 200.31291877 -167.13354492 210.18432617 C-169.34109149 210.95689787 -171.53151022 211.65369249 -173.78515625 212.2734375 C-176.82737411 213.12821136 -179.62812774 214.2022741 -182.53125 215.4453125 C-183.5625 215.88359375 -184.59375 216.321875 -185.65625 216.7734375 C-186.708125 217.22203125 -187.76 217.670625 -188.84375 218.1328125 C-190.90562363 218.98849006 -192.9681116 219.84268898 -195.03125 220.6953125 C-196.9728157 221.49804853 -198.90987844 222.31171367 -200.84375 223.1328125 C-201.78093872 223.53028687 -201.78093872 223.53028687 -202.73706055 223.93579102 C-209.73769619 226.97113825 -216.50341268 230.44598732 -223.28125 233.9453125 C-224.44462891 234.53634766 -225.60800781 235.12738281 -226.80664062 235.73632812 C-233.22164913 239.04671799 -239.12458964 242.53014303 -244.84008789 246.9519043 C-245.50129639 247.341604 -246.16250488 247.73130371 -246.84375 248.1328125 C-247.83375 247.8028125 -248.82375 247.4728125 -249.84375 247.1328125 C-248.25793432 243.41224493 -245.93483495 240.79286987 -243.21875 237.8203125 C-242.40148437 236.91667969 -241.58421875 236.01304687 -240.7421875 235.08203125 C-222.54472285 216.01476297 -194.96596368 195.60044877 -169.84375 187.1328125 C-168.6475 186.7203125 -167.45125 186.3078125 -166.21875 185.8828125 C-165.435 185.6353125 -164.65125 185.3878125 -163.84375 185.1328125 C-163.84375 184.4728125 -163.84375 183.8128125 -163.84375 183.1328125 C-162.26407193 182.45753027 -160.67983097 181.79291556 -159.09375 181.1328125 C-157.77117187 180.5759375 -157.77117187 180.5759375 -156.421875 180.0078125 C-153.84375 179.1328125 -153.84375 179.1328125 -149.84375 179.1328125 C-149.84375 178.4728125 -149.84375 177.8128125 -149.84375 177.1328125 C-148.71839844 176.76929688 -148.71839844 176.76929688 -147.5703125 176.3984375 C-146.54679687 176.06328125 -145.52328125 175.728125 -144.46875 175.3828125 C-143.47101563 175.05796875 -142.47328125 174.733125 -141.4453125 174.3984375 C-138.63416491 173.41057219 -135.90607193 172.35293214 -133.15234375 171.22265625 C-127.62011298 168.98575615 -121.98152597 167.20012583 -116.28125 165.4453125 C-114.32075028 164.840032 -112.36106419 164.23210757 -110.40234375 163.62109375 C-109.54954834 163.35852783 -108.69675293 163.09596191 -107.81811523 162.82543945 C-105.86792028 162.3013713 -105.86792028 162.3013713 -104.84375 161.1328125 C-101.19304013 160.62640886 -97.53460549 160.23070871 -93.87109375 159.828125 C-90.40129316 159.3385853 -87.41213635 158.21652353 -84.1550293 156.91748047 C-79.18088661 155.22878346 -73.94687646 154.51522221 -68.78125 153.6328125 C-67.54479736 153.41850586 -66.30834473 153.20419922 -65.03442383 152.98339844 C-49.59695828 150.35312805 -34.30697005 148.13577939 -18.64453125 147.5546875 C-17.59801392 147.51263184 -16.55149658 147.47057617 -15.4732666 147.42724609 C-12.93021172 147.32555295 -10.38707533 147.22745496 -7.84375 147.1328125 C-7.84513269 146.00552782 -7.84513269 146.00552782 -7.84654331 144.8554697 C-7.86859739 126.59582112 -7.88516099 108.33617519 -7.89556217 90.07651615 C-7.90072539 81.24639979 -7.90776857 72.41629231 -7.91918945 63.58618164 C-7.92913551 55.89269185 -7.93560324 48.19920849 -7.93783849 40.50571245 C-7.93914574 36.42951598 -7.94223243 32.35333789 -7.94948006 28.27714729 C-7.95623904 24.44493495 -7.95836721 20.61274866 -7.95685768 16.78053093 C-7.95713406 15.36996189 -7.95913991 13.95939203 -7.96295547 12.54882812 C-7.96789075 10.63115561 -7.96614802 8.71346929 -7.96400452 6.79579163 C-7.96538721 5.18219301 -7.96538721 5.18219301 -7.96679783 3.53599644 C-7.71442757 -1.39291736 -4.18699576 0.00366912 0 0 Z " fill="#073579" transform="translate(648.84375,355.8671875)"/>
<path d="M0 0 C4.58757667 0.33567634 7.87439611 1.85025542 11.8515625 3.953125 C14.79525786 5.38750747 17.82849467 6.35303118 20.9453125 7.33984375 C23.34708781 8.11151681 25.67411736 9.02462986 28 10 C28 10.66 28 11.32 28 12 C29.32 12.33 30.64 12.66 32 13 C32 51.61 32 90.22 32 130 C37.61 130.66 43.22 131.32 49 132 C57.67605634 133.67605634 57.67605634 133.67605634 59 135 C60.48933229 135.34077315 61.98912434 135.63622538 63.4921875 135.91015625 C68.44613223 136.86567269 73.27518939 138.05183983 78.125 139.4375 C79.41313599 139.80415771 79.41313599 139.80415771 80.72729492 140.17822266 C94.65090607 144.24996091 108.31659038 149.19470775 122 154 C122 154.66 122 155.32 122 156 C122.7321875 156.11472656 123.464375 156.22945312 124.21875 156.34765625 C127.05502093 157.01290519 129.00624986 157.95793345 131.5 159.4375 C134.6211572 161.23421878 137.62293864 162.73360199 141 164 C142.54694314 164.63309061 144.08815909 165.28026578 145.625 165.9375 C146.38039063 166.25589844 147.13578125 166.57429687 147.9140625 166.90234375 C150 168 150 168 151.35351562 169.38085938 C153.23792667 171.23397534 155.21287333 172.56496572 157.4296875 174.00390625 C158.73691772 174.85988403 158.73691772 174.85988403 160.07055664 175.7331543 C160.99602295 176.33683838 161.92148926 176.94052246 162.875 177.5625 C184.45654513 191.81875481 207.25205627 209.40013551 222 231 C222.43763672 231.63131836 222.87527344 232.26263672 223.32617188 232.91308594 C241 258.4815304 241 258.4815304 241 265 C237.06785699 263.41060574 234.66979654 260.83657498 231.75 257.8125 C227.33263433 253.31008714 222.84558174 249.03798478 218 245 C217.46310547 244.54399414 216.92621094 244.08798828 216.37304688 243.61816406 C205.59300721 234.48107162 194.34726428 226.25401783 182.01171875 219.3203125 C181.34785156 218.88460937 180.68398438 218.44890625 180 218 C180 217.34 180 216.68 180 216 C179.28231445 215.88825439 178.56462891 215.77650879 177.82519531 215.66137695 C174.80574831 214.95452577 172.52605334 213.88174172 169.796875 212.41796875 C168.81589844 211.89783203 167.83492187 211.37769531 166.82421875 210.84179688 C165.80972656 210.29587891 164.79523438 209.74996094 163.75 209.1875 C157.57003272 205.88221427 151.43082422 202.62535878 144.97680664 199.88330078 C142.81790053 198.9186321 140.76213591 197.82095242 138.6875 196.6875 C131.22983073 192.90614656 123.20634008 190.44224733 115.29980469 187.77832031 C113.39576938 187.13393979 111.49780808 186.47164284 109.6015625 185.8046875 C97.0429196 181.43496792 84.0043673 178.68215076 71 176 C71 175.34 71 174.68 71 174 C70.175 174.04125 69.35 174.0825 68.5 174.125 C65 174 65 174 61.6796875 173.1171875 C55.42556502 171.49993961 49.02342777 170.81191723 42.625 170 C41.95257263 169.91317963 41.28014526 169.82635925 40.58734131 169.73690796 C29.66802269 168.33272807 18.74923436 167.30374366 7.76025391 166.59570312 C6.74882324 166.52931641 5.73739258 166.46292969 4.6953125 166.39453125 C3.80859863 166.34143799 2.92188477 166.28834473 2.00830078 166.23364258 C0 166 0 166 -1 165 C-1.09908189 162.8886999 -1.12632351 160.77402403 -1.12698364 158.66040039 C-1.12932363 157.65562322 -1.12932363 157.65562322 -1.13171089 156.63054752 C-1.13572281 154.36956187 -1.13253052 152.10864249 -1.12939453 149.84765625 C-1.13074849 148.23338786 -1.13252839 146.61911978 -1.13470459 145.00485229 C-1.1392796 140.60828271 -1.13748909 136.21173649 -1.1343255 131.81516647 C-1.13180225 127.22451462 -1.13413934 122.63386482 -1.13571167 118.04321289 C-1.13753347 110.33251586 -1.13512679 102.62182839 -1.13037109 94.91113281 C-1.12492845 85.98328288 -1.1266911 77.05545577 -1.1321975 68.12760639 C-1.13672834 60.47667654 -1.13737932 52.82575357 -1.13475883 45.17482281 C-1.13319589 40.59897678 -1.13300274 36.02314149 -1.13629532 31.44729614 C-1.13917361 27.14640351 -1.13719911 22.84554045 -1.13140106 18.54465103 C-1.13007324 16.96153945 -1.13046795 15.3784254 -1.13266373 13.79531479 C-1.13537437 11.64337556 -1.13199519 9.49153262 -1.12698364 7.33959961 C-1.12660662 6.13242783 -1.12622959 4.92525604 -1.12584114 3.6815033 C-1 1 -1 1 0 0 Z " fill="#0695BA" transform="translate(127,316)"/>
<path d="M0 0 C0 0.99 0 1.98 0 3 C-1.42114258 4.30273438 -1.42114258 4.30273438 -3.39453125 5.59375 C-4.45704102 6.30337891 -4.45704102 6.30337891 -5.54101562 7.02734375 C-6.29060547 7.51332031 -7.04019531 7.99929688 -7.8125 8.5 C-9.27924269 9.46587248 -10.74415593 10.4345301 -12.20703125 11.40625 C-12.8616333 11.83228516 -13.51623535 12.25832031 -14.19067383 12.69726562 C-15.99306267 13.99500505 -17.4433201 15.42300145 -19 17 C-19.73863281 17.43957031 -20.47726562 17.87914062 -21.23828125 18.33203125 C-25.4956417 20.90330835 -29.23867821 24.10245828 -33.09179688 27.23632812 C-37.79010556 31 -37.79010556 31 -40 31 C-40 31.66 -40 32.32 -40 33 C-41.86328125 34.69140625 -41.86328125 34.69140625 -44.3125 36.5625 C-45.51326172 37.49255859 -45.51326172 37.49255859 -46.73828125 38.44140625 C-49 40 -49 40 -52 41 C-52 41.66 -52 42.32 -52 43 C-53.96867275 44.61455174 -55.9451374 46.12756456 -58 47.625 C-62.70534238 51.13910843 -66.92355138 54.75467886 -70.984375 59.01171875 C-73.32125958 61.3169014 -75.80890309 63.32857356 -78.375 65.375 C-83.13737437 69.19543863 -87.41243658 73.3081376 -91.67578125 77.671875 C-93.67882367 79.67828388 -95.71603045 81.54098875 -97.875 83.375 C-105.63067288 90.02946172 -112.80440983 97.43132873 -119.42578125 105.20703125 C-121.0476719 107.05429629 -122.74660205 108.77756714 -124.5 110.5 C-128.21185638 114.16258395 -131.61730191 118.03362067 -135 122 C-135.80179688 122.93585938 -136.60359375 123.87171875 -137.4296875 124.8359375 C-150.78209591 140.479164 -163.68692891 156.52482824 -176 173 C-179.08961876 171.66111007 -180.80511804 170.34061438 -182.8125 167.6484375 C-183.32458008 166.96998779 -183.83666016 166.29153809 -184.36425781 165.5925293 C-185.1739502 164.49485229 -185.1739502 164.49485229 -186 163.375 C-186.5681543 162.61807861 -187.13630859 161.86115723 -187.72167969 161.08129883 C-188.90446804 159.50386544 -190.08379137 157.9238284 -191.25976562 156.34130859 C-192.90001566 154.13451877 -194.54934029 151.93493877 -196.203125 149.73828125 C-199.93659881 144.77691729 -203.65642338 139.80550048 -207.36328125 134.82421875 C-212.66393309 127.71588458 -218.10371582 120.72927667 -223.6015625 113.7734375 C-224.96833667 112.04015406 -226.32902901 110.30229618 -227.6875 108.5625 C-228.13077637 107.9955542 -228.57405273 107.4286084 -229.03076172 106.84448242 C-229.92385956 105.7020763 -230.81611848 104.5590138 -231.70751953 103.4152832 C-234.29016609 100.11873058 -236.92577927 96.87651894 -239.6171875 93.66796875 C-240.22127441 92.94270996 -240.82536133 92.21745117 -241.44775391 91.47021484 C-242.63143414 90.05306963 -243.82359861 88.64295972 -245.02490234 87.24072266 C-245.55809082 86.60054199 -246.0912793 85.96036133 -246.640625 85.30078125 C-247.12047852 84.73528564 -247.60033203 84.16979004 -248.09472656 83.5871582 C-248.3934668 83.063396 -248.69220703 82.53963379 -249 82 C-248.67 81.01 -248.34 80.02 -248 79 C-226.72151461 83.32713109 -204.09371217 92.07887159 -188 107 C-187.09636719 107.81082031 -186.19273437 108.62164062 -185.26171875 109.45703125 C-183.50825026 111.03192869 -181.76362987 112.61677814 -180.03125 114.21484375 C-178.1231855 116.04445938 -178.1231855 116.04445938 -176 117 C-175.59466286 116.10766914 -175.59466286 116.10766914 -175.18113708 115.1973114 C-174.00819207 113.01523999 -172.84237605 111.58898479 -171.10180664 109.84301758 C-170.516819 109.25172562 -169.93183136 108.66043365 -169.32911682 108.05122375 C-168.69585983 107.42201523 -168.06260284 106.7928067 -167.41015625 106.14453125 C-166.75099716 105.48345871 -166.09183807 104.82238617 -165.41270447 104.14128113 C-164.01384255 102.74105868 -162.61245359 101.34335692 -161.20874023 99.94799805 C-159.09456872 97.84440822 -156.99111666 95.73053664 -154.88867188 93.61523438 C-147.56154942 86.28046102 -140.16756365 79.39676829 -132 73 C-130.60828486 71.84453329 -129.22123671 70.68341259 -127.83984375 69.515625 C-106.04785169 51.22861941 -82.60451491 35.76605997 -57.375 22.625 C-56.74790131 22.29590637 -56.12080261 21.96681274 -55.47470093 21.62774658 C-53.68377671 20.69207788 -51.88497857 19.7715281 -50.0859375 18.8515625 C-48.5397876 18.05999756 -48.5397876 18.05999756 -46.96240234 17.25244141 C-43.94389433 15.9762797 -41.24259113 15.39829777 -38 15 C-38 14.34 -38 13.68 -38 13 C-34.39673211 11.5810401 -30.79221929 10.16526825 -27.1875 8.75 C-25.68026367 8.15638672 -25.68026367 8.15638672 -24.14257812 7.55078125 C-21.09895184 6.35681853 -18.05104504 5.17486982 -15 4 C-13.98502441 3.60748047 -12.97004883 3.21496094 -11.92431641 2.81054688 C-10.9554248 2.44509766 -9.9865332 2.07964844 -8.98828125 1.703125 C-8.12372314 1.37473633 -7.25916504 1.04634766 -6.3684082 0.70800781 C-4 0 -4 0 0 0 Z " fill="#05C0CA" transform="translate(654,310)"/>
<path d="M0 0 C0 37.62 0 75.24 0 114 C-3.65163727 115.46065491 -5.59952754 116.23976966 -9.24609375 116.60546875 C-10.06883789 116.69828125 -10.89158203 116.79109375 -11.73925781 116.88671875 C-12.62967773 116.98597656 -13.52009766 117.08523438 -14.4375 117.1875 C-24.02100428 118.3694327 -33.36416926 120.28044942 -42.75 122.5 C-44.00997803 122.79672607 -45.26995605 123.09345215 -46.56811523 123.39916992 C-53.45201916 125.05539586 -60.24657358 126.87539018 -67 129 C-67.79921875 129.24685547 -68.5984375 129.49371094 -69.421875 129.74804688 C-71.8251277 130.49181881 -74.22534815 131.24469975 -76.625 132 C-77.4190625 132.2475 -78.213125 132.495 -79.03125 132.75 C-84.08866508 134.34184212 -89.05572168 136.08714708 -94 138 C-94.75539063 138.28810547 -95.51078125 138.57621094 -96.2890625 138.87304688 C-106.0463854 142.61309042 -115.44827542 146.43266761 -124.46875 151.75 C-127 153 -127 153 -131 153 C-131 153.66 -131 154.32 -131 155 C-132.17433594 155.40992188 -133.34867187 155.81984375 -134.55859375 156.2421875 C-138.69833772 157.7976615 -142.32302136 159.78501767 -146.0625 162.125 C-147.37086323 162.92876078 -148.679464 163.73213499 -149.98828125 164.53515625 C-150.65037598 164.9439502 -151.3124707 165.35274414 -151.99462891 165.77392578 C-153.9571058 166.9737747 -155.93331291 168.14586106 -157.91796875 169.30859375 C-165.60507018 173.81952906 -172.88709957 178.61080974 -180 184 C-180.97582031 184.72058594 -181.95164062 185.44117188 -182.95703125 186.18359375 C-191.04795445 192.17648552 -198.87609162 198.44445486 -206.5078125 205.01171875 C-207.09892822 205.51848145 -207.69004395 206.02524414 -208.29907227 206.54736328 C-209.45719111 207.54241874 -210.6114667 208.54196826 -211.76147461 209.54638672 C-215.77832486 213 -215.77832486 213 -218 213 C-217.40152021 210.0938362 -216.54921724 208.01517861 -214.8828125 205.56640625 C-214.44702881 204.92461426 -214.01124512 204.28282227 -213.56225586 203.62158203 C-212.85081421 202.60233643 -212.85081421 202.60233643 -212.125 201.5625 C-211.37972046 200.49298096 -211.37972046 200.49298096 -210.61938477 199.40185547 C-198.2777848 181.93368474 -183.01670761 165.96511056 -166 153 C-164.7397896 152.00138131 -163.48076919 151.00125989 -162.22265625 150 C-148.61908668 139.26818822 -134.17141386 130.20636869 -119.0625 121.75 C-118.21582764 121.27159668 -117.36915527 120.79319336 -116.49682617 120.30029297 C-115.7051001 119.86604004 -114.91337402 119.43178711 -114.09765625 118.984375 C-113.40164307 118.59991211 -112.70562988 118.21544922 -111.98852539 117.81933594 C-110 117 -110 117 -106 117 C-106 116.34 -106 115.68 -106 115 C-103.16844969 113.72516789 -100.33444112 112.45589019 -97.5 111.1875 C-96.70851563 110.83107422 -95.91703125 110.47464844 -95.1015625 110.10742188 C-90.12322193 107.88349105 -85.11721609 105.88156936 -80 104 C-78.56028272 103.40113628 -77.1224487 102.79770148 -75.6875 102.1875 C-45.2887931 90 -45.2887931 90 -32 90 C-32.02997826 88.84607506 -32.02997826 88.84607506 -32.06056213 87.6688385 C-32.24156471 80.38733751 -32.37824719 73.10694007 -32.46630955 65.82376957 C-32.51310915 62.08001636 -32.57647925 58.33813489 -32.67895508 54.59545898 C-32.77739306 50.97724233 -32.83068698 47.36081478 -32.85389519 43.74136162 C-32.87041259 42.36692588 -32.90267072 40.99257854 -32.95157051 39.61891365 C-33.31773118 28.89779926 -33.31773118 28.89779926 -30.04333496 24.18200684 C-27.80093126 21.91414323 -25.53178838 19.93445858 -23 18 C-21.98638695 17.13350479 -20.97325738 16.26644316 -19.9609375 15.3984375 C-19.10757813 14.73070312 -18.25421875 14.06296875 -17.375 13.375 C-13.47142849 10.25323623 -9.87079882 7.04086975 -6.4375 3.41015625 C-4.43362931 1.44440266 -2.8932361 0 0 0 Z " fill="#069DBC" transform="translate(618,367)"/>
<path d="M0 0 C3.96 0 7.92 0 12 0 C12 34.98 12 69.96 12 106 C16.29 106.66 20.58 107.32 25 108 C25 108.66 25 109.32 25 110 C25.58120605 110.09071777 26.16241211 110.18143555 26.76123047 110.27490234 C33.94119735 111.53680166 40.39547081 113.86374228 47.125 116.625 C48.22593994 117.07230469 49.32687988 117.51960938 50.46118164 117.98046875 C59.21031955 121.58090536 67.67579415 125.51133528 76 130 C76.71704102 130.38124023 77.43408203 130.76248047 78.17285156 131.15527344 C92.67724786 138.89053592 106.40393436 147.39278683 119 158 C120.04941673 158.87507488 121.09889987 159.75007013 122.1484375 160.625 C125.45407396 163.39149482 128.73289814 166.18815004 132 169 C132.90234375 169.77601563 133.8046875 170.55203125 134.734375 171.3515625 C160.63698706 194.11690167 181.74604481 228.09325491 189 262 C189 263.32 189 264.64 189 266 C184.79415647 264.59805216 183.94387598 261.66062685 182 257.9375 C172.33065901 240.10593763 159.91745043 224.67100222 146 210 C145.175 209.12085938 144.35 208.24171875 143.5 207.3359375 C137.38723011 201.00198186 130.72646286 195.64731253 123.73632812 190.33496094 C122.12267009 189.09431385 120.53659316 187.81801755 118.953125 186.5390625 C87.17486 161.09998508 47.25098657 143.43685871 7.6418457 134.56103516 C6.78937256 134.36944824 5.93689941 134.17786133 5.05859375 133.98046875 C3.91861938 133.73139771 3.91861938 133.73139771 2.75561523 133.47729492 C1 133 1 133 0 132 C-0.09622036 130.29174312 -0.12187628 128.57947886 -0.12025452 126.86851501 C-0.12162918 125.75647202 -0.12300385 124.64442902 -0.12442017 123.49868774 C-0.12082489 122.26798553 -0.11722961 121.03728333 -0.11352539 119.76928711 C-0.11367142 118.48166977 -0.11381744 117.19405243 -0.1139679 115.86741638 C-0.11425586 112.3262524 -0.10835936 108.78512201 -0.10139394 105.24396586 C-0.09516017 101.54705012 -0.09455658 97.85013369 -0.09336853 94.1532135 C-0.09025528 87.14796101 -0.08204199 80.14272405 -0.07201904 73.13747841 C-0.0608577 65.16421124 -0.0553474 57.19094335 -0.05032361 49.21767032 C-0.03985937 32.81177085 -0.0220596 16.40588802 0 0 Z " fill="#0660AC" transform="translate(186,281)"/>
<path d="M0 0 C0 0.66 0 1.32 0 2 C0.5775 2.226875 1.155 2.45375 1.75 2.6875 C5.14222063 4.66629537 7.25493471 7.50986942 9 11 C9.52736173 17.20664192 9.76247482 22.78108332 6 28 C1.19931669 32.9192187 -2.8921207 35.64335811 -9.8125 36.4375 C-14.62222595 36.33672479 -18.42736176 34.13556016 -22 31 C-22 30.34 -22 29.68 -22 29 C-23.62741744 29.78668518 -25.25186131 30.5795241 -26.875 31.375 C-27.77992188 31.81585938 -28.68484375 32.25671875 -29.6171875 32.7109375 C-32.09534472 33.90502699 -32.09534472 33.90502699 -34 36 C-35.70105243 36.7393194 -37.40369503 37.4754555 -39.11816406 38.18310547 C-41.99556041 39.43216724 -44.66325926 40.98995301 -47.375 42.5625 C-47.95789795 42.89967041 -48.5407959 43.23684082 -49.14135742 43.58422852 C-51.09704679 44.71806179 -53.04866988 45.85868212 -55 47 C-55.75394043 47.43924805 -56.50788086 47.87849609 -57.28466797 48.33105469 C-59.62883094 49.69723422 -61.97112562 51.06654742 -64.3125 52.4375 C-65.05999512 52.87457275 -65.80749023 53.31164551 -66.57763672 53.76196289 C-69.98259775 55.6172587 -69.98259775 55.6172587 -73 58 C-73.07661652 60.17738161 -73.08286726 62.35725471 -73.0625 64.53588867 C-73.0530512 65.95208065 -73.0438679 67.36827442 -73.03491211 68.7844696 C-73.02861786 69.53910681 -73.02232361 70.29374401 -73.01583862 71.07124901 C-72.98892722 75.05856039 -72.99874446 79.04582636 -73.00390625 83.03320312 C-73.01011244 88.11186762 -73.00486635 93.18942078 -72.94873047 98.26782227 C-72.90438599 102.3674445 -72.90395725 106.46501735 -72.93286133 110.56475258 C-72.93593817 112.12564446 -72.92307834 113.68665412 -72.89379883 115.2472744 C-72.67756659 127.45109623 -72.67756659 127.45109623 -75.87709045 131.19854736 C-78.18892327 132.75943397 -80.44222943 133.89804007 -83 135 C-83.99314209 135.64888184 -84.98628418 136.29776367 -86.00952148 136.96630859 C-88.81586751 138.77389241 -91.62584248 140.57568944 -94.4375 142.375 C-95.42943359 143.01566406 -96.42136719 143.65632812 -97.44335938 144.31640625 C-98.38888672 144.92097656 -99.33441406 145.52554688 -100.30859375 146.1484375 C-101.58947876 146.97093994 -101.58947876 146.97093994 -102.89624023 147.81005859 C-105 149 -105 149 -107 149 C-107.28753742 158.58892455 -107.47603473 168.17339569 -107.54146767 177.76642323 C-107.57490446 182.22246676 -107.64118579 186.67275753 -107.78515625 191.12670898 C-109.22445756 209.49072314 -109.22445756 209.49072314 -104.37121582 226.58450317 C-100.31022452 230.50887737 -95.6258701 232.40928796 -90.32489014 234.15432739 C-86.80576575 235.43439953 -83.94741734 237.43524319 -80.90625 239.58203125 C-79.30136719 240.63874023 -79.30136719 240.63874023 -77.6640625 241.71679688 C-76.09785156 242.75416992 -76.09785156 242.75416992 -74.5 243.8125 C-62.33466537 252.52485721 -62.33466537 252.52485721 -49 259 C-48.7525 258.360625 -48.505 257.72125 -48.25 257.0625 C-47 255 -47 255 -45.25 254.39453125 C-39.06709743 253.31037646 -33.09675416 252.87525407 -27.5625 256.1875 C-23.85494405 258.86180265 -21.05606754 261.88786491 -19 266 C-18.47263827 272.20664192 -18.23752518 277.78108332 -22 283 C-26.81993506 287.83132971 -30.33569529 290.13420241 -37.3125 290.25 C-42.90993921 290.16898443 -46.53568686 289.40619255 -50.65625 285.3828125 C-55.86969193 279.65294472 -56.12608724 275.56523435 -56 268 C-56.71897461 267.73372803 -57.43794922 267.46745605 -58.17871094 267.19311523 C-61.04079017 265.98274995 -63.51184701 264.56371888 -66.140625 262.91015625 C-67.12047363 262.2960791 -68.10032227 261.68200195 -69.10986328 261.04931641 C-70.1461084 260.39366699 -71.18235352 259.73801758 -72.25 259.0625 C-73.85657471 258.05195557 -73.85657471 258.05195557 -75.49560547 257.02099609 C-83.7283742 251.83192423 -91.91170187 246.5697295 -100.06396484 241.25537109 C-102.06385027 239.95859797 -104.07150803 238.67474237 -106.08203125 237.39453125 C-106.73220215 236.97993652 -107.38237305 236.5653418 -108.05224609 236.13818359 C-109.2713467 235.3617608 -110.49164636 234.58721612 -111.71337891 233.81494141 C-114.03050747 232.3367372 -116.04917728 230.95082272 -118 229 C-118.24040815 226.32854016 -118.35638571 223.75726641 -118.38574219 221.08129883 C-118.40209717 220.26319733 -118.41845215 219.44509583 -118.43530273 218.60220337 C-118.48503846 215.88717589 -118.518052 213.17235801 -118.546875 210.45703125 C-118.55752235 209.52983465 -118.56816971 208.60263805 -118.57913971 207.64734459 C-118.63262092 202.73750489 -118.6713602 197.82776709 -118.70019531 192.91772461 C-118.73345864 187.85033991 -118.8229698 182.78556567 -118.9249382 177.71916676 C-118.99233335 173.8199931 -119.01535469 169.92143633 -119.02664948 166.02173424 C-119.04006682 164.15449816 -119.0704941 162.28730218 -119.11843109 160.42063332 C-119.47186742 145.82201129 -119.47186742 145.82201129 -115.87702942 141.37199402 C-113.31360273 139.55112058 -110.86649928 138.27533512 -108 137 C-106.33200075 135.94492597 -104.67720442 134.86836977 -103.04296875 133.76171875 C-101.42608575 132.7344461 -99.80760055 131.70969076 -98.1875 130.6875 C-97.36830078 130.16349609 -96.54910156 129.63949219 -95.70507812 129.09960938 C-94.90908203 128.59623047 -94.11308594 128.09285156 -93.29296875 127.57421875 C-92.5868042 127.12651123 -91.88063965 126.67880371 -91.15307617 126.2175293 C-88.83496152 124.90667344 -86.47792873 123.96784376 -84 123 C-84.01776489 122.12383026 -84.03552979 121.24766052 -84.05383301 120.34494019 C-84.21431516 112.07655935 -84.33602018 103.80870345 -84.41449738 95.53912163 C-84.45620154 91.2877736 -84.51273571 87.03771515 -84.60351562 82.78710938 C-84.69062239 78.68267335 -84.73831004 74.5794751 -84.75901794 70.47418594 C-84.77376855 68.91035601 -84.80257619 67.34659181 -84.84584045 65.78329086 C-85.17066585 53.55670973 -85.17066585 53.55670973 -82.31834412 49.76379395 C-80.27639633 48.19908209 -78.33063615 47.07604314 -76 46 C-75.21375244 45.49436523 -74.42750488 44.98873047 -73.61743164 44.46777344 C-72.97153076 44.10200195 -72.32562988 43.73623047 -71.66015625 43.359375 C-70.91548096 42.93350098 -70.17080566 42.50762695 -69.40356445 42.06884766 C-68.63101318 41.63362793 -67.85846191 41.1984082 -67.0625 40.75 C-65.3903229 39.7947995 -63.71845453 38.83905835 -62.046875 37.8828125 C-61.20833984 37.40489258 -60.36980469 36.92697266 -59.50585938 36.43457031 C-55.59114171 34.19344784 -51.70034864 31.91232845 -47.8125 29.625 C-47.1429126 29.23280273 -46.4733252 28.84060547 -45.78344727 28.43652344 C-41.74485618 26.06177327 -37.78277436 23.60033274 -33.8659668 21.02880859 C-31.91979517 19.95577873 -30.17001494 19.44006666 -28 19 C-27.92523438 18.28714844 -27.85046875 17.57429688 -27.7734375 16.83984375 C-26.84788809 10.0978515 -25.5291318 5.27483801 -20 1 C-14.59288309 -1.43850371 -5.54652533 -2.77326267 0 0 Z " fill="#0C6FAD" transform="translate(362,127)"/>
<path d="M0 0 C4.66903258 2.43994606 7.53390743 5.89922093 10.00390625 10.44921875 C10.81640625 13.26171875 10.81640625 13.26171875 10.62890625 15.484375 C10.47707783 18.55415586 10.60889455 20.40875977 11.81640625 23.26171875 C15.90499056 26.48541022 20.300012 28.81222609 24.90429688 31.21240234 C28.41426489 33.13858244 31.56314129 35.55980086 34.765625 37.94921875 C36.81510899 39.26088851 38.43744481 39.83210946 40.81640625 40.26171875 C40.81640625 40.92171875 40.81640625 41.58171875 40.81640625 42.26171875 C41.49445313 42.50148437 42.1725 42.74125 42.87109375 42.98828125 C46.45548987 44.53803342 49.66068041 46.5409715 52.94140625 48.63671875 C53.63298828 49.07371094 54.32457031 49.51070312 55.03710938 49.9609375 C56.52487893 50.90155761 58.0114969 51.84400116 59.49707031 52.78808594 C62.64231177 54.78647304 65.79363271 56.77517339 68.94482422 58.76416016 C70.45224427 59.71603524 71.95914086 60.66874019 73.46533203 61.62255859 C74.18962402 62.08098145 74.91391602 62.5394043 75.66015625 63.01171875 C76.38657318 63.49227722 77.11299011 63.97283569 77.86141968 64.46795654 C80.15555613 65.86056364 82.34776956 67.00571526 84.76501465 68.1401062 C95.47480751 73.47405205 95.47480751 73.47405205 97.713974 78.12674713 C99.05596943 83.37763141 98.65569411 88.7191684 98.37890625 94.08203125 C98.34901366 95.79398966 98.32626202 97.50608621 98.31030273 99.2182312 C98.24957872 103.6969682 98.09283428 108.16722523 97.91503906 112.64263916 C97.75050288 117.22022731 97.67811201 121.79920534 97.59765625 126.37890625 C97.4267285 135.34354428 97.15418297 144.30192323 96.81640625 153.26171875 C97.43136963 153.55916992 98.04633301 153.85662109 98.67993164 154.16308594 C101.87983689 155.80856344 104.63778912 158.04454124 107.5 160.21484375 C109.82132792 161.56737768 109.82132792 161.56737768 112.4140625 160.49609375 C113.20683594 160.08875 113.99960937 159.68140625 114.81640625 159.26171875 C120.95338896 157.21605785 126.2333642 157.66424785 132.12890625 160.32421875 C135.81510055 162.38802893 138.46930652 164.22337762 140.265625 168.10546875 C141.76891216 173.99067807 141.57178525 179.95361626 139.69140625 185.69921875 C136.36464912 190.24578683 132.33946177 193.84884408 126.81640625 195.26171875 C121.09826222 195.8569159 116.67912591 195.61159229 111.81640625 192.26171875 C104.87956355 185.22717404 104.87956355 185.22717404 104.71875 180.22265625 C104.73615234 178.44761719 104.73615234 178.44761719 104.75390625 176.63671875 C104.76292969 175.44820312 104.77195312 174.2596875 104.78125 173.03515625 C104.79865234 171.66230469 104.79865234 171.66230469 104.81640625 170.26171875 C104.10742188 170.01292969 103.3984375 169.76414063 102.66796875 169.5078125 C99.48744855 168.11796874 96.98004974 166.38689307 94.19140625 164.32421875 C93.25039063 163.63457031 92.309375 162.94492188 91.33984375 162.234375 C90.09074219 161.25791016 90.09074219 161.25791016 88.81640625 160.26171875 C88.27638474 159.87505539 87.73636322 159.48839203 87.17997742 159.0900116 C85.09047801 156.28838531 85.42340321 153.39279819 85.47583008 150.03637695 C85.47517296 148.93844315 85.47517296 148.93844315 85.47450256 147.81832886 C85.47659227 145.3994477 85.4999311 142.98126004 85.5234375 140.5625 C85.52903283 138.88527302 85.53330322 137.20804113 85.53630066 135.5308075 C85.54775447 131.116592 85.57722614 126.7026727 85.6104126 122.28857422 C85.641102 117.78422045 85.65480357 113.27981881 85.66992188 108.77539062 C85.70209542 99.93736988 85.75329817 91.09956894 85.81640625 82.26171875 C84.68295776 81.83088989 84.68295776 81.83088989 83.52661133 81.39135742 C79.90008925 79.8797893 76.76123599 77.74150331 73.50390625 75.57421875 C66.37456733 70.89524482 59.18011771 66.33206914 51.94140625 61.82421875 C44.42489816 57.1414919 36.92122535 52.44034029 29.44140625 47.69921875 C23.8794157 44.17546959 18.30217485 40.69083239 12.62890625 37.34765625 C10.99421224 36.36824906 9.40199438 35.31877751 7.81640625 34.26171875 C5.34754552 34.41782973 5.34754552 34.41782973 2.75390625 35.07421875 C1.87605469 35.26628906 0.99820312 35.45835938 0.09375 35.65625 C-2.19248014 36.18183487 -2.19248014 36.18183487 -4.18359375 37.26171875 C-9.66770371 37.69184502 -13.38198609 36.96807943 -18.18359375 34.26171875 C-22.07763696 30.56416396 -25.72192946 26.41821416 -26.51953125 20.96484375 C-26.63403067 13.77428045 -25.38103525 8.85884044 -20.55859375 3.43359375 C-14.66323985 -1.82309681 -7.42912269 -2.51181429 0 0 Z " fill="#0D87B4" transform="translate(466.18359375,70.73828125)"/>
<path d="M0 0 C4.64554574 2.69370998 8.74009325 6.04524758 10.7421875 11.12890625 C11.58258591 16.59521448 11.71417284 22.05871723 9.1171875 27.06640625 C5.89236991 31.22472367 2.85172709 34.42572639 -2.2578125 36.12890625 C-8.21436605 36.7188887 -11.9395298 35.96532369 -17.2578125 33.12890625 C-22.7464307 32.39500851 -25.84805728 34.39156803 -30.1328125 37.50390625 C-31.46726439 38.43312671 -32.80325184 39.36014515 -34.140625 40.28515625 C-34.82286133 40.76082031 -35.50509766 41.23648438 -36.20800781 41.7265625 C-39.41298406 43.91919989 -42.70437913 45.96384197 -46.0078125 48.00390625 C-47.35430263 48.83962472 -48.70065407 49.67556669 -50.046875 50.51171875 C-50.73297852 50.93743164 -51.41908203 51.36314453 -52.12597656 51.80175781 C-55.88872056 54.14420816 -59.63586993 56.51128989 -63.3828125 58.87890625 C-64.15995605 59.36979736 -64.93709961 59.86068848 -65.73779297 60.36645508 C-73.15766691 65.05779324 -80.561981 69.77358563 -87.96142578 74.49707031 C-88.84040527 75.05749023 -89.71938477 75.61791016 -90.625 76.1953125 C-91.39956543 76.68974854 -92.17413086 77.18418457 -92.97216797 77.69360352 C-95.2578125 79.12890625 -95.2578125 79.12890625 -97.87532043 80.27319336 C-100.59647409 81.9612471 -100.59647409 81.9612471 -100.78938293 85.29417419 C-100.72698677 87.25508751 -100.72698677 87.25508751 -100.66333008 89.25561523 C-100.6481131 89.97804916 -100.63289612 90.70048309 -100.61721802 91.44480896 C-100.58255505 93.0148656 -100.53724833 94.5847148 -100.48261452 96.15420341 C-100.40155906 98.64915326 -100.36103485 101.1416313 -100.33317566 103.63771057 C-100.25133742 110.73308662 -100.13436327 117.82565239 -99.89819336 124.91772461 C-98.89257732 156.46691863 -98.89257732 156.46691863 -104.82958984 163.21533203 C-108.78720554 166.61295496 -113.86387956 170.12890625 -119.2578125 170.12890625 C-119.22300781 170.76957031 -119.18820313 171.41023437 -119.15234375 172.0703125 C-118.92796438 179.23976769 -119.83144182 184.16334208 -124.5078125 189.87890625 C-129.80977996 194.21687962 -134.98346731 195.83885289 -141.76171875 195.6015625 C-147.0085165 194.60803742 -150.48440163 191.47341553 -153.640625 187.30078125 C-156.63262054 182.15371199 -157.18508704 176.96977988 -156.2578125 171.12890625 C-154.36469036 165.44953984 -150.09681508 161.47466674 -145.2578125 158.12890625 C-140.28124677 156.47005101 -136.51519339 156.5774234 -131.6953125 158.69140625 C-126.90640285 160.69404119 -124.74796976 160.0376824 -120.01135254 158.30906677 C-117.1042318 156.8721594 -115.34154068 155.63666332 -113.2578125 153.12890625 C-112.16792998 148.26339017 -112.23194599 143.59949524 -112.39613342 138.63359261 C-112.47765315 136.13057484 -112.50232054 133.63254239 -112.51257324 131.12828064 C-112.54965322 124.91430608 -112.68377072 118.70311329 -112.8147583 112.49053955 C-112.92186074 107.23513384 -112.99193852 101.98172206 -113.01344299 96.72524834 C-113.03865438 94.26636648 -113.11775258 91.8130538 -113.19909668 89.35548401 C-113.37308542 78.59716303 -113.37308542 78.59716303 -110.34306335 74.60813904 C-108.05319874 72.79512475 -105.85789849 71.4465182 -103.2578125 70.12890625 C-101.9041865 69.27238329 -100.55543905 68.40802772 -99.21484375 67.53125 C-97.83627628 66.70470702 -96.45463746 65.88326974 -95.0703125 65.06640625 C-88.19281903 60.93498837 -81.39077964 56.70308544 -74.6328125 52.37890625 C-65.67071912 46.65047599 -56.66834428 40.98984698 -47.64013672 35.36621094 C-46.70572754 34.78387695 -45.77131836 34.20154297 -44.80859375 33.6015625 C-43.89932129 33.0358252 -42.99004883 32.47008789 -42.05322266 31.88720703 C-40.08566209 30.64962003 -38.1278114 29.39652798 -36.17724609 28.13232422 C-35.1867627 27.49053223 -34.1962793 26.84874023 -33.17578125 26.1875 C-32.28012451 25.60154053 -31.38446777 25.01558105 -30.46166992 24.41186523 C-28.2578125 23.12890625 -28.2578125 23.12890625 -26.2578125 23.12890625 C-26.36222656 22.07703125 -26.36222656 22.07703125 -26.46875 21.00390625 C-26.84071423 14.48567592 -26.23552514 10.75891514 -21.9140625 5.78515625 C-15.73889448 -0.39001177 -8.58754807 -3.31318896 0 0 Z " fill="#0D7FB4" transform="translate(332.2578125,70.87109375)"/>
<path d="M0 0 C5.23988117 0.4596387 9.30841385 2.11533522 13.109375 5.8203125 C16.26649751 9.81314391 17.10341928 13.47853465 17.9609375 18.421875 C18.43273042 20.62853974 18.43273042 20.62853974 21.1875 21.875 C21.97125 22.019375 22.755 22.16375 23.5625 22.3125 C23.5625 22.9725 23.5625 23.6325 23.5625 24.3125 C24.66102295 24.72870605 24.66102295 24.72870605 25.78173828 25.15332031 C28.36252657 26.2291397 30.65421039 27.43323652 33.0546875 28.859375 C34.36373047 29.63474609 34.36373047 29.63474609 35.69921875 30.42578125 C36.60285156 30.96589844 37.50648438 31.50601563 38.4375 32.0625 C39.27152344 32.55621094 40.10554688 33.04992187 40.96484375 33.55859375 C42.89391687 34.70493504 44.79837298 35.89315307 46.68432617 37.10913086 C49.80888697 39.02151356 53.02635572 40.30950183 56.43481445 41.64282227 C63.07419179 44.51247227 69.14485903 47.41008474 73.5625 53.3125 C77.17478811 65.25118432 74.83766999 78.95853581 73.79162598 91.18566895 C71.27060143 110.04082615 71.27060143 110.04082615 76.79766846 127.21661377 C83.95316539 133.41085769 92.58611114 136.95406959 101.3114624 140.39730835 C104.10257249 141.78150306 105.67520233 142.81929013 107.5625 145.3125 C108.91214026 150.9010664 108.83130391 156.37166932 108.7578125 162.09375 C108.76388048 163.75233104 108.77261962 165.41090426 108.78390503 167.06945801 C108.7971508 170.54008432 108.77797376 174.00862127 108.73583984 177.47900391 C108.68454804 181.91910304 108.71408696 186.35430798 108.76799202 190.7942276 C108.80058082 194.2175966 108.79013599 197.63981264 108.76684189 201.06321716 C108.76085577 202.69942307 108.76814489 204.33573509 108.78915787 205.97181702 C108.91695755 218.71844082 108.91695755 218.71844082 105.54925537 222.68188477 C102.65386493 224.67766531 100.14334138 226.3125 96.5625 226.3125 C96.59216354 225.39954163 96.62182709 224.48658325 96.65238953 223.54595947 C96.91626229 214.89652428 97.08691065 206.25115928 97.15577984 197.59788895 C97.19439718 193.14937351 97.26761155 188.70731738 97.4230957 184.26123047 C98.90418989 165.70891939 98.90418989 165.70891939 93.7376709 148.56015015 C89.4006355 144.41780065 84.55571305 142.13485231 78.93365479 140.2006073 C75.28500636 138.83401946 72.17378076 136.7623886 68.9375 134.625 C67.91398437 134.00238281 66.89046875 133.37976563 65.8359375 132.73828125 C63.5625 131.3125 63.5625 131.3125 62.5625 130.3125 C62.51226514 128.14502466 62.5325134 125.97590114 62.5793457 123.80834961 C62.60544978 122.39868766 62.63091674 120.9890138 62.65583801 119.57933044 C62.6702424 118.8279373 62.6846468 118.07654415 62.69948769 117.30238152 C62.77930292 112.49304964 62.79181753 107.68299529 62.81458759 102.87311459 C62.83842051 98.64581353 62.88721113 94.42170693 62.9909668 90.19555664 C63.08998237 86.10838848 63.11996113 82.02577792 63.10402489 77.93750191 C63.11015163 76.38359716 63.14091263 74.82957726 63.19735146 73.27668571 C63.36720729 68.36599616 63.27244857 63.99332976 61.5625 59.3125 C57.73951332 55.32001126 52.56093152 53.421306 47.5625 51.3125 C45.61408566 50.21661739 43.67909269 49.09585545 41.76953125 47.93359375 C40.87733887 47.40773682 39.98514648 46.88187988 39.06591797 46.34008789 C37.73391357 45.55299438 37.73391357 45.55299438 36.375 44.75 C35.43027832 44.19497803 34.48555664 43.63995605 33.51220703 43.06811523 C27.71330115 39.6451291 22.0634437 36.11300953 16.5859375 32.19140625 C14.57551951 31.04836229 14.57551951 31.04836229 12.48828125 32.01953125 C11.53501953 32.65955078 11.53501953 32.65955078 10.5625 33.3125 C5.10560992 36.95042672 1.14985235 38.41228172 -5.4375 37.3125 C-11.65609458 35.42570919 -15.37036106 31.98604886 -18.4375 26.3125 C-20.22728122 20.94315634 -20.16137545 15.40369574 -18.3125 10.0625 C-15.13478817 5.40185598 -12.62648478 1.86969613 -7 0.4375 C-4.66355163 0.35551936 -2.32828497 0.21166227 0 0 Z " fill="#0C7AB1" transform="translate(432.4375,125.6875)"/>
<path d="M0 0 C4.39656173 -0.02465504 8.7930872 -0.04283842 13.18969727 -0.05493164 C14.68644918 -0.05997121 16.18319616 -0.06680287 17.67993164 -0.07543945 C19.82699807 -0.08752159 21.97399962 -0.09323191 24.12109375 -0.09765625 C26.06133423 -0.10551147 26.06133423 -0.10551147 28.04077148 -0.11352539 C31 0 31 0 32 1 C32.09654727 2.88561518 32.12187241 4.77489455 32.12025452 6.66297913 C32.12162918 7.89282028 32.12300385 9.12266144 32.12442017 10.38977051 C32.12088056 11.76513696 32.11724574 13.14050317 32.11352539 14.51586914 C32.11324352 15.95442198 32.11340124 17.39297496 32.1139679 18.83152771 C32.11425589 22.74871143 32.10835884 26.66586479 32.10139394 30.58304143 C32.09516074 34.67233837 32.09455663 38.76163593 32.09336853 42.85093689 C32.09025511 50.59992398 32.08204159 58.34889703 32.07201904 66.09787792 C32.06085822 74.91756209 32.05534753 83.73724691 32.05032361 92.55693638 C32.03985898 110.70463223 32.02225934 128.85231499 32 147 C31.67 147 31.34 147 31 147 C31 99.48 31 51.96 31 3 C23.74 3 16.48 3 9 3 C4.545 2.01 4.545 2.01 0 1 C0 0.67 0 0.34 0 0 Z " fill="#355B95" transform="translate(71,356)"/>
<path d="M0 0 C2.36110026 1.77082519 2.84291198 3.0296335 3.30859375 5.90625 C3.52669177 9.44869064 3.34463183 11.44858906 1.4375 14.5 C-1.94888329 16.58392818 -4.09385318 16.55802097 -8 16 C-11.26473709 13.85214665 -11.9058033 12.30475404 -13.0625 8.5625 C-13 5 -13 5 -11.0625 2.0625 C-6.88075808 -0.75377517 -4.9658497 -0.72084915 0 0 Z " fill="#F1F8FB" transform="translate(436,136)"/>
<path d="M0 0 C2.9375 1.5625 2.9375 1.5625 5 4 C5.6694949 8.09135771 5.38501272 10.24601675 3.5 13.9375 C0.45800221 16.44714818 -1.24089496 16.68721267 -5.09375 16.4140625 C-7 16 -7 16 -9.5 14.4375 C-11.55402253 11.09971339 -11.41314312 8.85600245 -11 5 C-8.93025195 -0.61788757 -5.65227385 -0.47900626 0 0 Z " fill="#EAF7F9" transform="translate(328,81)"/>
<path d="M0 0 C4.25935348 0.8518707 6.21260468 2.4352337 9.125 5.625 C9.8125 8.625 9.8125 8.625 9.125 11.625 C6.84476953 14.55672489 5.04656702 16.23333402 1.625 17.6875 C-1.9404178 17.59836456 -3.37312111 16.05738225 -5.875 13.625 C-7.30162219 10.77175563 -7.18533868 8.79045451 -6.875 5.625 C-4.9225381 2.17064433 -3.91703555 0.85152947 0 0 Z " fill="#ECF3F8" transform="translate(323.875,390.375)"/>
<path d="M0 0 C2.875 1.5 2.875 1.5 5 4 C5.94237143 7.99893269 5.61136591 10.98105682 3.5 14.5 C-0.0242017 16.61452102 -2.99573739 16.93350908 -7 16 C-9.5625 13.9375 -9.5625 13.9375 -11 11 C-11 7.04475779 -10.56831266 4.82089606 -8.3125 1.5625 C-5.24421404 -0.51066619 -3.64026866 -0.59432958 0 0 Z " fill="#ECF2F8" transform="translate(197,239)"/>
<path d="M0 0 C2.5 1.5 2.5 1.5 4 4 C4.68059917 7.81761375 4.45489037 10.92966971 2.9375 14.5 C1 16 1 16 -2.375 16.5625 C-6.83146616 15.87097939 -8.17117003 14.41123614 -11 11 C-11.33 10.67 -11.66 10.34 -12 10 C-11.75792934 6.73204604 -11.52903176 3.96470497 -9.9375 1.0625 C-6.73239318 -0.69513922 -3.5056583 -0.61366654 0 0 Z " fill="#EBF8F9" transform="translate(462,81)"/>
<path d="M0 0 C3.32274404 2.45594125 4.77618008 3.9256644 5.625 8 C4.76936783 12.10703441 3.38121991 13.55401113 0 16 C-3.5625 16.625 -3.5625 16.625 -7 16 C-10.21279089 13.28148463 -10.90640581 11.59276322 -11.5625 7.4375 C-11 4 -11 4 -8.875 1.5625 C-5.46537255 -0.29055839 -3.81804737 -0.71588388 0 0 Z " fill="#EDF6F9" transform="translate(356,136)"/>
<path d="M0 0 C3.71317907 1.14770989 5.2692056 1.85342428 7.4375 5.0625 C8.07406938 8.80234509 7.69334708 10.57212644 5.9375 13.9375 C2.90834317 16.51228331 1.23099229 16.80795844 -2.65625 16.546875 C-4.5625 16.0625 -4.5625 16.0625 -7.0625 13.9375 C-8.84051176 10.52964413 -9.27210213 8.84704468 -8.5625 5.0625 C-5.88937913 1.25532785 -4.71546409 0.08272744 0 0 Z " fill="#EEF3F8" transform="translate(589.5625,238.9375)"/>
<path d="M0 0 C0.33 0 0.66 0 1 0 C1 46.2 1 92.4 1 140 C-0.98 140 -2.96 140 -5 140 C-4.01 139.67 -3.02 139.34 -2 139 C-1.67 138.01 -1.34 137.02 -1 136 C-0.67 135.01 -0.34 134.02 0 133 C-0.66 133 -1.32 133 -2 133 C-2 131.02 -2 129.04 -2 127 C-1.34 127 -0.68 127 0 127 C0 85.09 0 43.18 0 0 Z " fill="#EAEDF5" transform="translate(640,363)"/>
<path d="M0 0 C0.66 0.33 1.32 0.66 2 1 C1 4 1 4 -1.5625 6 C-4.73477281 9.90433577 -4.59682618 12.37661524 -4.359375 17.27734375 C-3.60532955 22.99005764 -1.56293253 27.29261732 3 31 C9.7582496 33.25274987 16.33585897 32.09071091 23 30 C25.8125 29.6875 25.8125 29.6875 28 30 C28.66 30.99 29.32 31.98 30 33 C29.195625 32.773125 28.39125 32.54625 27.5625 32.3125 C24.0726159 32.00636982 22.73503804 32.27496037 19.5625 33.4375 C14.11692033 35.41688156 10.05470614 35.6128071 4.4375 33.9375 C-0.84692562 30.95900556 -4.6728531 26.64253427 -7 21 C-7.99160674 14.22017719 -6.89678258 8.64316674 -3 3 C-2.02590007 1.97475401 -1.03199801 0.96694369 0 0 Z " fill="#47BDC9" transform="translate(447,73)"/>
<path d="M0 0 C0.83778992 0.0028299 1.67557983 0.00565979 2.53875732 0.00857544 C5.20827663 0.01974901 7.8774575 0.04484829 10.546875 0.0703125 C12.35937015 0.08034596 14.17187056 0.08947117 15.984375 0.09765625 C20.42200493 0.1196791 24.85938263 0.15418946 29.296875 0.1953125 C29.791875 1.1853125 29.791875 1.1853125 30.296875 2.1953125 C26.14415556 3.3644633 22.16330244 3.26722441 17.8828125 3.1875 C16.21875598 3.16999449 14.55469311 3.15308519 12.890625 3.13671875 C10.2722825 3.10566537 7.65425655 3.07000243 5.03613281 3.02392578 C2.50581818 2.98173807 -0.02411847 2.95819821 -2.5546875 2.9375 C-3.34114655 2.91887909 -4.12760559 2.90025818 -4.93789673 2.881073 C-7.37285253 2.83439387 -7.37285253 2.83439387 -10.703125 3.1953125 C-11.693125 4.6803125 -11.693125 4.6803125 -12.703125 6.1953125 C-13.363125 6.1953125 -14.023125 6.1953125 -14.703125 6.1953125 C-13.81402326 3.97255816 -13.12371356 2.50252152 -11.16894531 1.07470703 C-7.49181014 -0.23668316 -3.8534096 -0.04907369 0 0 Z " fill="#429FBF" transform="translate(381.703125,222.8046875)"/>
<path d="M0 0 C0.33 0 0.66 0 1 0 C1.33 18.48 1.66 36.96 2 56 C2.33 56 2.66 56 3 56 C4.1710655 63.14349955 3.59295252 68.95678017 2 76 C1.34 75.67 0.68 75.34 0 75 C0 50.25 0 25.5 0 0 Z " fill="#0162A1" transform="translate(553,154)"/>
<path d="M0 0 C0.33 0.66 0.66 1.32 1 2 C1.66 2 2.32 2 3 2 C2.90656397 6.66344559 2.80049386 11.32636586 2.68261719 15.98925781 C2.64429415 17.57609138 2.60944712 19.16301281 2.578125 20.75 C2.53254569 23.02896566 2.47454162 25.30732468 2.4140625 27.5859375 C2.40251129 28.29744965 2.39096008 29.00896179 2.37905884 29.74203491 C2.22774341 34.77225659 2.22774341 34.77225659 0 37 C0 24.79 0 12.58 0 0 Z " fill="#F4F6F9" transform="translate(638,357)"/>
<path d="M0 0 C0 0.99 0 1.98 0 3 C-2.1171875 4.82421875 -2.1171875 4.82421875 -4.875 6.6875 C-5.77992188 7.31011719 -6.68484375 7.93273437 -7.6171875 8.57421875 C-10 10 -10 10 -12 10 C-12 8.68 -12 7.36 -12 6 C-16.455 6.495 -16.455 6.495 -21 7 C-17.95719201 4.97146134 -15.4043351 4.04537075 -11.9375 2.9375 C-2.79245283 0 -2.79245283 0 0 0 Z " fill="#2DD5D9" transform="translate(654,310)"/>
<path d="M0 0 C0 0.33 0 0.66 0 1 C-12.46132124 3.71179011 -24.2641754 4.35560213 -37 4 C-33.70179045 2.06312041 -30.96300438 1.63896545 -27.16796875 1.3671875 C-25.47510742 1.24150391 -25.47510742 1.24150391 -23.74804688 1.11328125 C-22.57306641 1.03464844 -21.39808594 0.95601563 -20.1875 0.875 C-19.02412109 0.78863281 -17.86074219 0.70226562 -16.66210938 0.61328125 C-11.09657454 0.21415923 -5.57985741 -0.11404088 0 0 Z " fill="#4E679A" transform="translate(641,503)"/>
<path d="M0 0 C1.72447904 0.00031742 3.44897767 0.01165954 5.17333984 0.03173828 C6.53415176 0.03598312 6.53415176 0.03598312 7.92245483 0.04031372 C10.82652857 0.05152926 13.73029646 0.07663615 16.63427734 0.10205078 C18.60041873 0.11207881 20.56656494 0.12120497 22.53271484 0.12939453 C27.35835393 0.15147306 32.18376374 0.18601213 37.00927734 0.22705078 C37.00927734 0.55705078 37.00927734 0.88705078 37.00927734 1.22705078 C35.81326904 1.23115967 34.61726074 1.23526855 33.38500977 1.23950195 C28.95097655 1.26126051 24.51783489 1.31551548 20.08422852 1.37963867 C18.16471903 1.40284742 16.24508168 1.41722113 14.32543945 1.42260742 C11.5668951 1.43187624 8.81036972 1.47281879 6.05224609 1.52001953 C4.76304512 1.51412056 4.76304512 1.51412056 3.44779968 1.50810242 C1.18756118 1.56355819 -0.80586259 1.64420905 -2.99072266 2.22705078 C-5.13762702 4.60085318 -5.13762702 4.60085318 -5.99072266 7.22705078 C-6.65072266 6.89705078 -7.31072266 6.56705078 -7.99072266 6.22705078 C-5.92141751 1.79282546 -5.21902313 0.29693451 0 0 Z " fill="#2D80AE" transform="translate(328.99072265625,268.77294921875)"/>
<path d="M0 0 C3.10408807 -0.05807043 6.2080364 -0.09361914 9.3125 -0.125 C10.19357422 -0.14175781 11.07464844 -0.15851562 11.98242188 -0.17578125 C12.82998047 -0.18222656 13.67753906 -0.18867187 14.55078125 -0.1953125 C15.72120972 -0.21102295 15.72120972 -0.21102295 16.9152832 -0.22705078 C19 0 19 0 22 2 C23.9896995 2.39013716 25.99019869 2.73202649 28 3 C28 3.33 28 3.66 28 4 C21.67131138 4.17743987 15.74233484 3.50712088 9.5 2.5 C8.5821875 2.35691406 7.664375 2.21382812 6.71875 2.06640625 C4.47825881 1.7163295 2.23879053 1.3607651 0 1 C0 0.67 0 0.34 0 0 Z " fill="#5C73A1" transform="translate(164,538)"/>
<path d="M0 0 C0.33 0 0.66 0 1 0 C1.02505615 0.98395752 1.0501123 1.96791504 1.07592773 2.98168945 C1.1701082 6.63270057 1.2703029 10.28352616 1.37231445 13.93432617 C1.41562305 15.51436015 1.45730106 17.09443969 1.49731445 18.67456055 C1.55511583 20.94594048 1.6187816 23.21709189 1.68359375 25.48828125 C1.70030624 26.19463211 1.71701874 26.90098297 1.73423767 27.6287384 C1.8259747 30.6664824 2.03207686 33.09623058 3 36 C1.68 36.99 0.36 37.98 -1 39 C-0.67 26.13 -0.34 13.26 0 0 Z " fill="#E5F0F6" transform="translate(418,323)"/>
<path d="M0 0 C0.66 0.33 1.32 0.66 2 1 C1.236875 1.70125 0.47375 2.4025 -0.3125 3.125 C-5.56464007 8.74356845 -6.76234529 14.63231433 -8 22 C-8.33 22 -8.66 22 -9 22 C-9.58865427 16.06985329 -9.90211714 11.41613528 -6.1875 6.5 C-4.23279685 4.22192621 -2.13801642 2.10591407 0 0 Z " fill="#36BBC8" transform="translate(315,72)"/>
<path d="M0 0 C6 7.71428571 6 7.71428571 6 12 C1.7257442 10.4169423 -0.26531794 7.49431596 -3 4 C-2.67 3.34 -2.34 2.68 -2 2 C-1.34 2 -0.68 2 0 2 C0 1.34 0 0.68 0 0 Z " fill="#27A1BB" transform="translate(362,569)"/>
<path d="M0 0 C0.33 0 0.66 0 1 0 C1.0867982 3.79152334 1.14032207 7.58279296 1.1875 11.375 C1.21263672 12.45523437 1.23777344 13.53546875 1.26367188 14.6484375 C1.27333984 15.6796875 1.28300781 16.7109375 1.29296875 17.7734375 C1.3086792 18.72653809 1.32438965 19.67963867 1.34057617 20.66162109 C1.22818604 21.43328613 1.1157959 22.20495117 1 23 C-2 25 -2 25 -4.1875 24.625 C-5.0846875 24.315625 -5.0846875 24.315625 -6 24 C-5.34 24 -4.68 24 -4 24 C-3.690625 23.360625 -3.38125 22.72125 -3.0625 22.0625 C-2 20 -2 20 -1 19 C-0.84379445 17.58672053 -0.74943827 16.1664541 -0.68359375 14.74609375 C-0.64169922 13.89208984 -0.59980469 13.03808594 -0.55664062 12.15820312 C-0.51732422 11.26037109 -0.47800781 10.36253906 -0.4375 9.4375 C-0.39431641 8.53580078 -0.35113281 7.63410156 -0.30664062 6.70507812 C-0.20021858 4.47021515 -0.09820012 2.23523692 0 0 Z " fill="#0054A1" transform="translate(538,324)"/>
<path d="M0 0 C-4.55748612 3.41811459 -8.4413655 4.8997342 -14 6 C-14.94875 6.226875 -15.8975 6.45375 -16.875 6.6875 C-19 7 -19 7 -21 6 C-16.03805279 3.95928267 -11.06287463 1.96568036 -6 0.1875 C-5.278125 -0.06644531 -4.55625 -0.32039063 -3.8125 -0.58203125 C-2 -1 -2 -1 0 0 Z " fill="#3DB4CB" transform="translate(559,465)"/>
<path d="M0 0 C1.48831242 0.00667405 2.97660807 0.01863442 4.46484375 0.03515625 C5.22345703 0.03966797 5.98207031 0.04417969 6.76367188 0.04882812 C8.64326246 0.06064945 10.52281274 0.07858547 12.40234375 0.09765625 C12.40234375 0.75765625 12.40234375 1.41765625 12.40234375 2.09765625 C10.81292969 2.04544922 10.81292969 2.04544922 9.19140625 1.9921875 C7.80340123 1.96405226 6.41537912 1.93675182 5.02734375 1.91015625 C4.32867187 1.88501953 3.63 1.85988281 2.91015625 1.83398438 C0.63486698 1.76787064 0.63486698 1.76787064 -2.59765625 2.09765625 C-3.58765625 3.58265625 -3.58765625 3.58265625 -4.59765625 5.09765625 C-5.25765625 5.09765625 -5.91765625 5.09765625 -6.59765625 5.09765625 C-4.18602933 0.11362729 -4.18602933 0.11362729 0 0 Z " fill="#178EB2" transform="translate(373.59765625,223.90234375)"/>
<path d="M0 0 C0 0.66 0 1.32 0 2 C1.32 2.33 2.64 2.66 4 3 C1.6603331 4.16983345 0.16608473 4.1661241 -2.4375 4.1875 C-3.61119141 4.20876953 -3.61119141 4.20876953 -4.80859375 4.23046875 C-7 4 -7 4 -10 2 C-6.5980513 -0.09350689 -3.94727588 -0.17942163 0 0 Z " fill="#379FBF" transform="translate(434,159)"/>
<path d="M0 0 C3.53790403 3.69172595 3.59115883 7.09390595 4 12 C1 11 1 11 -0.25 9.375 C-1.30061312 6.04805845 -0.64998375 3.37991551 0 0 Z " fill="#1D64B1" transform="translate(371,535)"/>
<path d="M0 0 C0.33 0 0.66 0 1 0 C2.1710655 7.14349955 1.59295252 12.95678017 0 20 C-2 18 -2 18 -2.01171875 14.12109375 C-1.91451534 12.5591814 -1.80596634 10.99794366 -1.6875 9.4375 C-1.63916016 8.64408203 -1.59082031 7.85066406 -1.54101562 7.03320312 C-1.14368704 1.14368704 -1.14368704 1.14368704 0 0 Z " fill="#0968A4" transform="translate(555,210)"/>
<path d="M0 0 C-1.42859407 1.03325986 -2.86822383 2.05127634 -4.3125 3.0625 C-5.51326172 3.91521484 -5.51326172 3.91521484 -6.73828125 4.78515625 C-7.48464844 5.18605469 -8.23101562 5.58695313 -9 6 C-9.99 5.67 -10.98 5.34 -12 5 C-11.375 3.125 -11.375 3.125 -10 1 C-6.18941183 -0.73961634 -3.96516557 -1.19298271 0 0 Z " fill="#2B4585" transform="translate(411,598)"/>
<path d="M0 0 C0 0.33 0 0.66 0 1 C-1.2375 1.185625 -2.475 1.37125 -3.75 1.5625 C-6.39092886 2.19463723 -7.65810097 2.59329044 -9.421875 4.69140625 C-10.64991382 6.8254551 -10.64991382 6.8254551 -12 10 C-12.33 10 -12.66 10 -13 10 C-12.52039967 3.64529559 -12.52039967 3.64529559 -10.4375 1.0625 C-6.8556202 -0.49883222 -3.89006898 -0.19450345 0 0 Z " fill="#BAE2EC" transform="translate(436,136)"/>
<path d="M0 0 C3.08379096 2.77541186 4.85411529 4.98940353 6 9 C6.125 12.3125 6.125 12.3125 6 15 C5.01 14.34 4.02 13.68 3 13 C2.61936779 10.6739143 2.28730055 8.33944736 2 6 C1.34 5.01 0.68 4.02 0 3 C0 2.01 0 1.02 0 0 Z " fill="#2DA7C6" transform="translate(444,131)"/>
<path d="M0 0 C-0.99 0 -1.98 0 -3 0 C-3 0.99 -3 1.98 -3 3 C-5.91482778 3.80967438 -7.46113217 4.21845993 -10.3125 3.0625 C-10.869375 2.711875 -11.42625 2.36125 -12 2 C-10.75579353 1.4654744 -9.50429064 0.94791389 -8.25 0.4375 C-7.55390625 0.14746094 -6.8578125 -0.14257812 -6.140625 -0.44140625 C-3.69987216 -1.07831803 -2.3596345 -0.80248831 0 0 Z " fill="#3F5C95" transform="translate(511,531)"/>
<path d="M0 0 C3.53586014 3.17320782 5.58578031 5.16743695 6 10 C5.01 10.33 4.02 10.66 3 11 C3.33 9.35 3.66 7.7 4 6 C3.34 6 2.68 6 2 6 C0 3 0 3 0 0 Z " fill="#26BDC4" transform="translate(470,74)"/>
<path d="M0 0 C1.48828125 1.11328125 1.48828125 1.11328125 3 3 C3.29296875 5.91796875 3.29296875 5.91796875 3.1875 9.1875 C3.14689453 10.81751953 3.14689453 10.81751953 3.10546875 12.48046875 C3.07066406 13.31191406 3.03585937 14.14335938 3 15 C2.67 15 2.34 15 2 15 C1.67 11.04 1.34 7.08 1 3 C0.01 3.33 -0.98 3.66 -2 4 C-1.34 2.68 -0.68 1.36 0 0 Z " fill="#2AB9C4" transform="translate(340,79)"/>
<path d="M0 0 C0.66 0.33 1.32 0.66 2 1 C0.62673398 5.11979807 -2.08595092 8.04297546 -6 10 C-4.79157144 5.56909529 -3.48331435 3.01887244 0 0 Z " fill="#2FBCC7" transform="translate(447,73)"/>
<path d="M0 0 C0.66 0.33 1.32 0.66 2 1 C2 1.66 2 2.32 2 3 C-3.45769231 6.10096154 -3.45769231 6.10096154 -6.203125 5.58984375 C-6.79609375 5.39519531 -7.3890625 5.20054687 -8 5 C-6.71475739 4.13619741 -5.42157581 3.28419631 -4.125 2.4375 C-3.04605469 1.72400391 -3.04605469 1.72400391 -1.9453125 0.99609375 C-1.30335938 0.66738281 -0.66140625 0.33867188 0 0 Z " fill="#334F8C" transform="translate(464,550)"/>
<path d="M0 0 C1 2 1 2 0.25 4.9375 C-0.89726872 7.74830836 -1.69701628 9.1157406 -4 11 C-3.56179109 6.44262737 -3.14958831 3.42346555 0 0 Z " fill="#26A2C4" transform="translate(339,131)"/>
<path d="M0 0 C0.87785156 -0.00515625 1.75570313 -0.0103125 2.66015625 -0.015625 C4.9375 0.25 4.9375 0.25 6.9375 2.25 C1.9375 2.25 -3.0625 2.25 -8.0625 2.25 C-4.81167327 0.08278218 -3.77017847 -0.02221018 0 0 Z " fill="#43C5CF" transform="translate(325.0625,69.75)"/>
<path d="M0 0 C0.33 0.99 0.66 1.98 1 3 C-0.21484375 4.82421875 -0.21484375 4.82421875 -1.9375 6.6875 C-2.50339844 7.31011719 -3.06929688 7.93273437 -3.65234375 8.57421875 C-4.09707031 9.04472656 -4.54179687 9.51523437 -5 10 C-5.66 9.67 -6.32 9.34 -7 9 C-4.69 6.03 -2.38 3.06 0 0 Z " fill="#27A8C4" transform="translate(416,555)"/>
<path d="M0 0 C0.6875 1.8125 0.6875 1.8125 1 4 C-0.3125 5.75 -0.3125 5.75 -2 7 C-2.66 7 -3.32 7 -4 7 C-3.43628586 3.73045798 -2.50037734 2.17424117 0 0 Z " fill="#15BCC4" transform="translate(583,364)"/>
<path d="M0 0 C0.66 0.33 1.32 0.66 2 1 C-1.07999946 4.67230705 -3.2482602 5.56802365 -8 6 C-5.38485683 3.87961365 -2.80362384 1.86908256 0 0 Z " fill="#3EDBDD" transform="translate(576,344)"/>
<path d="M0 0 C1.32 0.33 2.64 0.66 4 1 C2.515 4.465 2.515 4.465 1 8 C0.67 8 0.34 8 0 8 C0 5.36 0 2.72 0 0 Z " fill="#0A58A5" transform="translate(177,239)"/>
<path d="M0 0 C-3.20380017 2.13586678 -4.01939967 2.23132175 -7.6875 2.125 C-8.89986328 2.09792969 -8.89986328 2.09792969 -10.13671875 2.0703125 C-11.05904297 2.03550781 -11.05904297 2.03550781 -12 2 C-7.89783794 -0.73477471 -4.73617773 -1.57872591 0 0 Z " fill="#5871A5" transform="translate(576,512)"/>
<path d="M0 0 C0.66 0.33 1.32 0.66 2 1 C-1.32307692 4.93846154 -1.32307692 4.93846154 -4.75 5.25 C-5.4925 5.1675 -6.235 5.085 -7 5 C-4.702779 3.25728062 -2.40133271 1.60088848 0 0 Z " fill="#3FB9CC" transform="translate(500,488)"/>
<path d="M0 0 C0.66 1.32 1.32 2.64 2 4 C-1 6 -1 6 -3.1875 5.625 C-3.785625 5.41875 -4.38375 5.2125 -5 5 C-4.34 5 -3.68 5 -3 5 C-2.5359375 4.0409375 -2.5359375 4.0409375 -2.0625 3.0625 C-1 1 -1 1 0 0 Z " fill="#0F5DA0" transform="translate(537,343)"/>
</svg>
