<?xml version="1.0" encoding="UTF-8"?>
<svg version="1.1" xmlns="http://www.w3.org/2000/svg" width="390" height="390">
<path d="M0 0 C5.94 0 11.88 0 18 0 C18 25.74 18 51.48 18 78 C32.85 78.495 32.85 78.495 48 79 C53.77365216 79.80182945 59.17515268 80.61953427 64.8125 81.875 C66.08029297 82.13152344 67.34808594 82.38804687 68.65429688 82.65234375 C74.61959049 83.89212801 80.37774376 85.33342455 86.11938477 87.37011719 C88.72320891 88.24222757 91.36270282 88.7042254 94.0625 89.1875 C101.67459196 90.88892218 108.11864576 94.2262931 114.9375 97.89306641 C117.04323644 99.02320478 119.16042632 100.12893693 121.28125 101.23046875 C122.64632524 101.9443727 124.01092632 102.6591842 125.375 103.375 C126.01163574 103.70846436 126.64827148 104.04192871 127.30419922 104.38549805 C129.85801669 105.74779065 131.94070806 106.94070806 134 109 C134.721875 109.268125 135.44375 109.53625 136.1875 109.8125 C141.28591057 111.96516224 146.15167941 115.14110016 149 120 C149 120.66 149 121.32 149 122 C149.556875 122.226875 150.11375 122.45375 150.6875 122.6875 C154.68438886 124.95600449 157.53966649 127.61899946 159 132 C154.69235185 130.43358249 150.93828536 128.31663844 147 126 C147 125.34 147 124.68 147 124 C146.39671875 123.87882812 145.7934375 123.75765625 145.171875 123.6328125 C144.37265625 123.46523438 143.5734375 123.29765625 142.75 123.125 C141.96109375 122.96257812 141.1721875 122.80015625 140.359375 122.6328125 C138.03168856 122.00849925 136.10968048 121.15161458 134 120 C134 119.34 134 118.68 134 118 C133.27296875 117.84144531 132.5459375 117.68289063 131.796875 117.51953125 C126.36775271 116.25969646 121.29317993 114.81316707 116.1875 112.5625 C110.46850745 110.05997107 104.68334946 108.47016989 98.640625 106.9921875 C95.99424066 106.27096258 93.68040489 105.49821641 91.1640625 104.4765625 C86.57219225 102.7064563 81.98885969 102.09777761 77.125 101.5 C75.26798033 101.25447899 73.41121239 101.00704726 71.5546875 100.7578125 C70.6275293 100.63438477 69.70037109 100.51095703 68.74511719 100.38378906 C63.85360603 99.69991717 58.98973728 98.85607545 54.12548828 98.00195312 C35.79695963 94.83718929 19.47004607 96 0 96 C0 64.32 0 32.64 0 0 Z " fill="#FFFFFF" transform="translate(35,203)"/>
<path d="M0 0 C0.97388672 0.00064453 1.94777344 0.00128906 2.95117188 0.00195312 C3.96630859 0.01806641 4.98144531 0.03417969 6.02734375 0.05078125 C7.55584961 0.04594727 7.55584961 0.04594727 9.11523438 0.04101562 C16.69785234 0.09628984 16.69785234 0.09628984 18.96484375 2.36328125 C19.19189453 4.60986328 19.19189453 4.60986328 19.16015625 7.37109375 C19.15371094 8.35722656 19.14726562 9.34335938 19.140625 10.359375 C19.12386719 11.39191406 19.10710937 12.42445313 19.08984375 13.48828125 C19.08082031 14.52855469 19.07179687 15.56882813 19.0625 16.640625 C19.03888122 19.21507217 19.00594524 21.78906337 18.96484375 24.36328125 C19.6511084 24.35280762 20.33737305 24.34233398 21.04443359 24.33154297 C24.14286664 24.29006251 27.24124136 24.26398056 30.33984375 24.23828125 C31.42007813 24.22152344 32.5003125 24.20476562 33.61328125 24.1875 C34.64453125 24.18105469 35.67578125 24.17460937 36.73828125 24.16796875 C38.16793213 24.1522583 38.16793213 24.1522583 39.62646484 24.13623047 C41.96484375 24.36328125 41.96484375 24.36328125 43.96484375 26.36328125 C44.22363281 28.76171875 44.22363281 28.76171875 44.23046875 31.73828125 C44.23433594 33.33929688 44.23433594 33.33929688 44.23828125 34.97265625 C44.23054688 36.0915625 44.2228125 37.21046875 44.21484375 38.36328125 C44.22644531 40.04164063 44.22644531 40.04164063 44.23828125 41.75390625 C44.23570312 42.82125 44.233125 43.88859375 44.23046875 44.98828125 C44.22821289 45.97054687 44.22595703 46.9528125 44.22363281 47.96484375 C43.96484375 50.36328125 43.96484375 50.36328125 41.96484375 52.36328125 C39.71826172 52.59033203 39.71826172 52.59033203 36.95703125 52.55859375 C35.97089844 52.55214844 34.98476562 52.54570312 33.96875 52.5390625 C32.93621094 52.52230469 31.90367187 52.50554687 30.83984375 52.48828125 C29.79957031 52.47925781 28.75929687 52.47023437 27.6875 52.4609375 C25.11305283 52.43731872 22.53906163 52.40438274 19.96484375 52.36328125 C19.9805542 53.01401611 19.99626465 53.66475098 20.01245117 54.33520508 C20.07479024 57.28197549 20.11383059 60.22860723 20.15234375 63.17578125 C20.17748047 64.19994141 20.20261719 65.22410156 20.22851562 66.27929688 C20.23818359 67.26220703 20.24785156 68.24511719 20.2578125 69.2578125 C20.27352295 70.16378174 20.2892334 71.06975098 20.30541992 72.00317383 C19.96484375 74.36328125 19.96484375 74.36328125 18.77270508 76.15966797 C16.33212089 77.78452685 14.66633202 77.73593523 11.74609375 77.7265625 C10.73160156 77.72591797 9.71710938 77.72527344 8.671875 77.72460938 C7.61355469 77.70849609 6.55523437 77.69238281 5.46484375 77.67578125 C4.40652344 77.67900391 3.34820312 77.68222656 2.2578125 77.68554688 C-5.63449162 77.630391 -5.63449162 77.630391 -9.03515625 75.36328125 C-9.37573242 73.02490234 -9.37573242 73.02490234 -9.328125 70.13671875 C-9.31845703 69.10546875 -9.30878906 68.07421875 -9.29882812 67.01171875 C-9.27369141 65.93148437 -9.24855469 64.85125 -9.22265625 63.73828125 C-9.20235352 62.10632813 -9.20235352 62.10632813 -9.18164062 60.44140625 C-9.14620379 57.74820716 -9.09679956 55.05598751 -9.03515625 52.36328125 C-9.69112793 52.3789917 -10.34709961 52.39470215 -11.02294922 52.41088867 C-13.98526441 52.47311777 -16.94744235 52.51223293 -19.91015625 52.55078125 C-20.94269531 52.57591797 -21.97523438 52.60105469 -23.0390625 52.62695312 C-24.02519531 52.63662109 -25.01132813 52.64628906 -26.02734375 52.65625 C-26.9385498 52.67196045 -27.84975586 52.6876709 -28.78857422 52.70385742 C-29.90063232 52.53527222 -29.90063232 52.53527222 -31.03515625 52.36328125 C-33.24562493 49.04757824 -33.29146297 47.97213356 -33.30078125 44.109375 C-33.30335938 43.09037109 -33.3059375 42.07136719 -33.30859375 41.02148438 C-33.30085937 39.95865234 -33.293125 38.89582031 -33.28515625 37.80078125 C-33.29289063 36.73408203 -33.300625 35.66738281 -33.30859375 34.56835938 C-33.30601562 33.55064453 -33.3034375 32.53292969 -33.30078125 31.484375 C-33.29852539 30.55036865 -33.29626953 29.6163623 -33.29394531 28.65405273 C-33.03515625 26.36328125 -33.03515625 26.36328125 -31.03515625 24.36328125 C-28.69677734 24.13623047 -28.69677734 24.13623047 -25.80859375 24.16796875 C-24.26171875 24.17763672 -24.26171875 24.17763672 -22.68359375 24.1875 C-21.06324219 24.21263672 -21.06324219 24.21263672 -19.41015625 24.23828125 C-18.3221875 24.24730469 -17.23421875 24.25632813 -16.11328125 24.265625 C-13.42035473 24.28924716 -10.7278637 24.32218569 -8.03515625 24.36328125 C-8.0508667 23.74283936 -8.06657715 23.12239746 -8.08276367 22.4831543 C-8.14511839 19.67245597 -8.18414773 16.86190313 -8.22265625 14.05078125 C-8.24779297 13.07431641 -8.27292969 12.09785156 -8.29882812 11.09179688 C-8.30849609 10.15400391 -8.31816406 9.21621094 -8.328125 8.25 C-8.34383545 7.38592529 -8.3595459 6.52185059 -8.37573242 5.6315918 C-8.03515625 3.36328125 -8.03515625 3.36328125 -6.83154297 1.58056641 C-4.44382892 -0.03741976 -2.8721688 -0.00958512 0 0 Z " fill="#FFFFFF" transform="translate(202.03515625,132.63671875)"/>
<path d="M0 0 C3.75811256 1.50324502 7.50845187 3.01888101 11.25 4.5625 C12.83554688 5.21412109 12.83554688 5.21412109 14.453125 5.87890625 C17 7 17 7 18 8 C18.0940067 9.96369153 18.11743381 11.93079199 18.11352539 13.89672852 C18.11344986 15.15796036 18.11337433 16.4191922 18.11329651 17.71864319 C18.1081891 19.10539794 18.10297309 20.49215229 18.09765625 21.87890625 C18.09579201 23.28995209 18.09436814 24.70099857 18.09336853 26.11204529 C18.08954379 29.83240535 18.0797139 33.5527266 18.06866455 37.27307129 C18.05844948 41.06680781 18.05387071 44.86055058 18.04882812 48.65429688 C18.03809158 56.10288231 18.0210157 63.55143572 18 71 C18.93498825 71.05492111 19.8699765 71.10984222 20.83329773 71.16642761 C22.69411736 71.28550224 22.69411736 71.28550224 24.5925293 71.40698242 C26.42813667 71.52030159 26.42813667 71.52030159 28.30082703 71.63591003 C34.00607826 72.19744764 39.33248205 73.68385915 44.8125 75.3125 C46.39321289 75.75625977 46.39321289 75.75625977 48.00585938 76.20898438 C54.26569528 78.01253386 60.14639116 80.14695419 66 83 C66.87180908 83.42224854 67.74361816 83.84449707 68.6418457 84.27954102 C80.64509501 90.19099797 91.90123543 96.16184939 102 105 C102.51062988 105.43666992 103.02125977 105.87333984 103.54736328 106.32324219 C114.43783439 115.66369564 123.5467822 126.07281451 130 139 C130 139.66 130 140.32 130 141 C126.35769569 139.45934714 124.01037578 137.2404877 121.1875 134.5 C114.70353738 128.43035517 107.54379254 123.65113054 100 119 C99.36964844 118.60925293 98.73929687 118.21850586 98.08984375 117.81591797 C76.81236419 104.80148424 52.52594903 97.0028217 28.0625 92.625 C27.20100342 92.4693457 26.33950684 92.31369141 25.4519043 92.15332031 C16.92196783 90.75552066 8.76167138 90.51539243 0 90 C0 60.3 0 30.6 0 0 Z " fill="#FFFFFF" transform="translate(65,181)"/>
<path d="M0 0 C5.94 0 11.88 0 18 0 C18 31.35 18 62.7 18 95 C-4.275 95.99 -4.275 95.99 -27 97 C-46.25634481 100.63995423 -46.25634481 100.63995423 -65 106 C-66.82487794 106.53974803 -68.65309745 107.06831799 -70.484375 107.5859375 C-71.50273437 107.87726563 -72.52109375 108.16859375 -73.5703125 108.46875 C-75.67359598 109.06821163 -77.77775338 109.66461629 -79.8828125 110.2578125 C-85.73850414 111.93929574 -91.35588528 113.8330002 -96.95019531 116.25244141 C-99 117 -99 117 -102 117 C-102 117.66 -102 118.32 -102 119 C-102.845625 119.29132813 -103.69125 119.58265625 -104.5625 119.8828125 C-110.87824324 122.16509244 -116.09472895 124.42669758 -121.27734375 128.70703125 C-123.6576449 130.49360649 -126.13538628 131.28384657 -129 132 C-124.437857 118.09517054 -103.6956421 108.17020828 -91.5625 101.4375 C-90.15919434 100.6499231 -90.15919434 100.6499231 -88.72753906 99.84643555 C-83.74116435 97.14540808 -79.6882708 95.32079656 -74 95 C-74 94.34 -74 93.68 -74 93 C-49.70819095 85.44523529 -25.67693961 78 0 78 C0 52.26 0 26.52 0 0 Z " fill="#FFFFFF" transform="translate(341,203)"/>
<path d="M0 0 C-1.15762175 3.47286524 -1.68333764 3.67862245 -4.6875 5.5 C-16.22472638 12.90503436 -26.6272264 22.07295804 -37 31 C-37.71542969 31.61359375 -38.43085938 32.2271875 -39.16796875 32.859375 C-53.82590754 45.55284777 -67.99755153 58.73118471 -80 74 C-82.42056974 77.07636131 -84.86177598 80.13512576 -87.3125 83.1875 C-88.21162109 84.33955933 -88.21162109 84.33955933 -89.12890625 85.51489258 C-89.70125 86.22540771 -90.27359375 86.93592285 -90.86328125 87.66796875 C-91.62572144 88.63126099 -91.62572144 88.63126099 -92.40356445 89.61401367 C-94 91 -94 91 -98 91 C-100.0859375 88.7890625 -100.0859375 88.7890625 -102.375 85.625 C-103.25542677 84.43149152 -104.13700401 83.23883115 -105.01953125 82.046875 C-105.49471191 81.39783203 -105.96989258 80.74878906 -106.45947266 80.08007812 C-109.26251258 76.2953079 -112.16690083 72.58912384 -115.0625 68.875 C-115.66030273 68.10526855 -116.25810547 67.33553711 -116.87402344 66.54248047 C-120.9073845 61.36068574 -125.03659957 56.27396998 -129.22265625 51.21484375 C-131.34200857 48.57380471 -133.21342699 45.87405224 -135 43 C-123.07167779 43.83220853 -108.11482503 50.09348472 -100 59 C-99.34 59.66 -98.68 60.32 -98 61 C-95.49140245 60.78757843 -94.30941581 60.3013581 -92.5 58.5390625 C-92.005 57.90742188 -91.51 57.27578125 -91 56.625 C-82.63954824 46.66361067 -72.38686072 38.72223642 -62 31 C-61.11957031 30.32324219 -60.23914063 29.64648438 -59.33203125 28.94921875 C-53.8526331 24.81272907 -48.15175597 21.18125816 -42.25 17.6875 C-41.18604004 17.05618164 -41.18604004 17.05618164 -40.10058594 16.41210938 C-35.8343827 13.93031808 -31.56491982 11.87395957 -27 10 C-26.278125 9.608125 -25.55625 9.21625 -24.8125 8.8125 C-23 8 -23 8 -19 8 C-19 7.34 -19 6.68 -19 6 C-18.01257813 5.65066406 -17.02515625 5.30132812 -16.0078125 4.94140625 C-14.71351786 4.48183786 -13.41924833 4.02219877 -12.125 3.5625 C-11.47402344 3.33240234 -10.82304687 3.10230469 -10.15234375 2.86523438 C-2.09646739 0 -2.09646739 0 0 0 Z " fill="#FFFFFF" transform="translate(349,178)"/>
<path d="M0 0 C0 20.46 0 40.92 0 62 C-6.6 62.99 -13.2 63.98 -20 65 C-24.60316306 66.06321719 -29.09201765 67.15495606 -33.625 68.4375 C-35.22408203 68.86772461 -35.22408203 68.86772461 -36.85546875 69.30664062 C-43.44202239 71.1209735 -49.71001733 73.34421436 -56 76 C-57.25735423 76.5011513 -58.51513333 77.00123863 -59.7734375 77.5 C-79.52146631 85.72477556 -98.62545513 97.56541898 -114.109375 112.3828125 C-116 114 -116 114 -118 114 C-115.99093527 108.43867588 -112.74644928 104.51014856 -109 100 C-108.3503125 99.21367187 -107.700625 98.42734375 -107.03125 97.6171875 C-88.55309788 76.17425724 -63.71437188 61.59964204 -37 53 C-35.2704021 52.41794653 -33.54113764 51.83489917 -31.8125 51.25 C-31.14476562 51.03214844 -30.47703125 50.81429687 -29.7890625 50.58984375 C-28.07884604 50.02599509 -26.38263394 49.42018953 -24.6875 48.8125 C-22 48 -22 48 -18 48 C-18.05236816 47.01717041 -18.10473633 46.03434082 -18.15869141 45.02172852 C-18.34114352 41.33810279 -18.45498504 37.65486464 -18.54931641 33.96801758 C-18.59928673 32.3797673 -18.66729737 30.79196969 -18.75439453 29.20532227 C-19.45860889 16.03651384 -19.45860889 16.03651384 -15.85253906 11.00170898 C-13.34115001 8.73921079 -10.81962081 6.85595294 -8 5 C-6.82031023 3.99424463 -5.65102195 2.97594128 -4.5 1.9375 C-2 0 -2 0 0 0 Z " fill="#FFFFFF" transform="translate(329,209)"/>
<path d="M0 0 C2.64 0 5.28 0 8 0 C8 18.81 8 37.62 8 57 C10.97 57.66 13.94 58.32 17 59 C34.2054048 63.36027382 50.24899408 72.9186809 64 84 C64.50934082 84.40009277 65.01868164 84.80018555 65.54345703 85.21240234 C80.37521919 96.90642282 92.03600228 111.27040194 99 129 C99.44666016 130.06541016 99.44666016 130.06541016 99.90234375 131.15234375 C101.40884566 134.88041529 102.37825732 137.96525526 102 142 C99.53900597 139.74768675 98.00436189 137.46390758 96.375 134.5625 C90.79752053 125.1194407 84.59618855 116.82836956 76 110 C74.7626043 108.96820342 73.52711262 107.93412143 72.29296875 106.8984375 C65.68485174 101.39206597 59.25764959 96.10562635 51.625 92.05078125 C51.08875 91.70402344 50.5525 91.35726562 50 91 C50 90.34 50 89.68 50 89 C49.030625 88.773125 48.06125 88.54625 47.0625 88.3125 C44.00478211 87.44849555 41.48903333 86.22893844 38.75 84.625 C34.57019217 82.19985552 30.34267987 80.54271119 25.7734375 78.9921875 C22.45997179 77.80680681 19.23457863 76.38624798 16 75 C10.72 73.68 5.44 72.36 0 71 C0 47.57 0 24.14 0 0 Z " fill="#FFFFFF" transform="translate(97,163)"/>
<path d="M0 0 C3.11199254 1.99167522 4.61304528 3.27090501 5.43359375 6.9375 C5.66760384 10.68166136 5.22810333 12.62525882 3.25 15.875 C-0.30120482 19.22891566 -0.30120482 19.22891566 -3 20 C-9.0742392 19.56612577 -9.0742392 19.56612577 -11.8684082 17.85742188 C-15.80278749 16.27483797 -19.10730221 18.32432392 -22.83520508 19.87280273 C-28.89870873 22.81601531 -33.98575192 25.43397542 -38 31 C-40.44656603 38.79647445 -39.58097436 47.55751746 -38.8972168 55.578125 C-38.54440548 60.19927148 -38.30202275 64.39773049 -39 69 C-42.15383227 72.67030624 -45.61128193 74.14511461 -50 76 C-53.40787751 77.42499355 -53.40787751 77.42499355 -56 80 C-56.88651304 83.11339224 -56.83811285 86.13891816 -56.8046875 89.359375 C-56.81839386 90.26375305 -56.83210022 91.1681311 -56.84622192 92.09991455 C-56.8835635 94.98378048 -56.87980439 97.86592636 -56.875 100.75 C-56.89312391 102.70705822 -56.91392563 104.6640936 -56.9375 106.62109375 C-56.98938989 111.41435127 -57.0044279 116.20647698 -57 121 C-56.24170898 121.29422852 -55.48341797 121.58845703 -54.70214844 121.89160156 C-51.39283288 123.24905482 -48.34089191 124.96491077 -45.25 126.75 C-44.63527832 127.10054443 -44.02055664 127.45108887 -43.38720703 127.81225586 C-39.03002071 130.3241732 -34.89573496 133.04891447 -30.8671875 136.06640625 C-28.44462556 137.27768722 -27.52297744 136.83937519 -25 136 C-20.35068447 135.40826893 -16.35587314 135.22377361 -12.4375 138.0625 C-10 141 -10 141 -9.4375 144.5 C-10.02057987 148.12805255 -10.76960617 150.10874874 -13 153 C-17.03013048 155.68675365 -20.26818563 155.66741686 -25 155 C-27.5 153.5 -27.5 153.5 -29 151 C-29.59879858 148.29508229 -29.81452473 145.78212899 -30 143 C-30.65742188 142.76539063 -31.31484375 142.53078125 -31.9921875 142.2890625 C-35.89571804 140.61612084 -39.47047819 138.52972702 -43.125 136.375 C-43.82109375 135.97410156 -44.5171875 135.57320312 -45.234375 135.16015625 C-46.70366462 134.29728253 -48.15338823 133.4004429 -49.58447266 132.47558594 C-52.02899268 130.91001993 -52.02899268 130.91001993 -54.95849609 129.68847656 C-58.56862325 127.78532762 -60.56345356 126.30464933 -63 123 C-64.8314681 116.57508188 -64.58071039 109.80447684 -64.43408203 103.18261719 C-64.37507244 100.00390195 -64.43353137 96.84225092 -64.50390625 93.6640625 C-64.5562199 79.03704952 -64.5562199 79.03704952 -60.59472656 73.8515625 C-57.78646206 71.77788235 -55.21759708 70.3307099 -52 69 C-51.28505371 68.61457031 -50.57010742 68.22914063 -49.83349609 67.83203125 C-48 67 -48 67 -45 67 C-45.04713135 65.84999512 -45.0942627 64.69999023 -45.14282227 63.51513672 C-45.30618415 59.23306756 -45.40919895 54.95127077 -45.49438477 50.66699219 C-45.53954435 48.81593464 -45.60089139 46.9651964 -45.67895508 45.11523438 C-46.30751235 29.83266539 -46.30751235 29.83266539 -43.3059082 25.62548828 C-40.93637472 24.02390984 -38.66475555 23.02899218 -36 22 C-34.32993472 21.02812912 -32.67479458 20.03018093 -31.03515625 19.0078125 C-29.37939294 18.04379609 -27.72183337 17.08285832 -26.0625 16.125 C-25.21365234 15.62742187 -24.36480469 15.12984375 -23.49023438 14.6171875 C-22.68005859 14.14796875 -21.86988281 13.67875 -21.03515625 13.1953125 C-20.3069165 12.77266113 -19.57867676 12.35000977 -18.82836914 11.91455078 C-17 11 -17 11 -15 11 C-14.9175 9.9275 -14.835 8.855 -14.75 7.75 C-14 4 -14 4 -12.5625 1.5625 C-8.50892995 -0.90918905 -4.60955781 -0.84148632 0 0 Z " fill="#FFFFFF" transform="translate(192,81)"/>
<path d="M0 0 C3.375 2.125 3.375 2.125 6 5 C6.80964855 9.45306703 6.32411559 11.41659195 4.125 15.375 C2 18 2 18 0 19 C-7.35868852 19.23737705 -7.35868852 19.23737705 -9.91015625 18.29296875 C-13.1913931 17.83298228 -14.83304518 19.40463577 -17.5625 21.1875 C-18.71484219 21.92838785 -19.86718605 22.6692731 -21.01953125 23.41015625 C-21.64939941 23.82152832 -22.27926758 24.23290039 -22.92822266 24.65673828 C-25.19279873 26.12500337 -27.47487837 27.56276343 -29.76171875 28.99609375 C-35.76264822 32.73256143 -35.76264822 32.73256143 -41.6875 36.58691406 C-44 38 -44 38 -46.5625 38.99902344 C-49.57812796 40.3562931 -51.05556994 41.2943439 -53 44 C-54.45368645 50.47046447 -53.76376445 57.42546942 -53.5 64 C-52.75831071 82.48717223 -52.75831071 82.48717223 -55.98901367 86.42333984 C-58.44921875 87.9609375 -58.44921875 87.9609375 -60.9206543 88.93896484 C-63.22231376 89.82619184 -63.22231376 89.82619184 -63.92016602 92.29516602 C-64.18042084 93.84066185 -64.42081351 95.38964182 -64.640625 96.94140625 C-65 99 -65 99 -66.5625 101.5625 C-70.32599239 103.78199551 -73.75294203 103.84638878 -78 103 C-81.0625 101.0625 -81.0625 101.0625 -83 98 C-83.69144269 94.83993549 -83.69701524 92.15942156 -83 89 C-81 85.9375 -81 85.9375 -78 84 C-73.70458765 83.2004579 -69.70094081 83.53270613 -66 86 C-66 85.34 -66 84.68 -66 84 C-63.03 83.01 -63.03 83.01 -60 82 C-60.07331543 80.77482666 -60.14663086 79.54965332 -60.22216797 78.28735352 C-60.4769679 73.7097283 -60.63673801 69.13271468 -60.76904297 64.55004883 C-60.8391476 62.57338896 -60.9344791 60.59744767 -61.05615234 58.62329102 C-62.01055299 42.73131727 -62.01055299 42.73131727 -58.73678589 38.28393555 C-55.49142377 35.34841316 -51.76749377 33.52782002 -47.77783203 31.80014038 C-45.30688793 30.68805436 -43.11446672 29.24290087 -40.86328125 27.7421875 C-38.53679945 26.27491632 -36.20895174 24.80982875 -33.88110352 23.34472656 C-30.38083732 21.13997905 -26.88313371 18.93328861 -23.4140625 16.6796875 C-22.43179688 16.04289062 -21.44953125 15.40609375 -20.4375 14.75 C-19.19806641 13.93789062 -19.19806641 13.93789062 -17.93359375 13.109375 C-16 12 -16 12 -14 12 C-14.103125 10.948125 -14.20625 9.89625 -14.3125 8.8125 C-14 5 -14 5 -11.6875 2.125 C-7.53444743 -1.15880901 -5.02195597 -1.37857615 0 0 Z " fill="#FFFFFF" transform="translate(176,52)"/>
<path d="M0 0 C3.0625 2.0625 3.0625 2.0625 5 5 C4.98066406 6.06734375 4.96132812 7.1346875 4.94140625 8.234375 C6.65871671 14.34318417 11.58127328 16.14792814 16.875 19.1875 C19.06291647 20.49539732 21.25041074 21.80400113 23.4375 23.11328125 C25.08685547 24.08515381 25.08685547 24.08515381 26.76953125 25.07666016 C31.53336631 27.91292773 36.20381716 30.88948896 40.875 33.875 C42.41319404 34.85292985 43.95217728 35.8296202 45.4921875 36.8046875 C46.12495605 37.20671387 46.75772461 37.60874023 47.40966797 38.02294922 C49.0392983 39.05596569 49.0392983 39.05596569 51 40 C51.00410889 41.25659424 51.00821777 42.51318848 51.01245117 43.80786133 C51.03420598 48.46550645 51.08845741 53.12230236 51.15258789 57.77954102 C51.17579985 59.79605985 51.19017109 61.81270047 51.19555664 63.8293457 C51.20482295 66.7268491 51.24576132 69.62242859 51.29296875 72.51953125 C51.2890361 73.42274612 51.28510345 74.325961 51.28105164 75.25654602 C51.33608547 77.61177136 51.42438102 79.71546974 52 82 C54.26562695 84.23386675 54.26562695 84.23386675 57 85 C58.89667109 84.71447643 58.89667109 84.71447643 61 84 C67.68071571 83.24572565 67.68071571 83.24572565 70.8515625 85.05859375 C73.8313413 87.66413493 75.42179784 90.0163701 75.8125 94 C75.53481286 97.43803124 74.40843734 99.12968907 71.9375 101.5 C69.21043242 103.51086801 67.81623042 104.03485285 64.375 104.6875 C60.15770744 103.82842189 58.67417982 102.30339861 56 99 C54.5216774 96.04335481 54.93967217 93.25770263 55 90 C53.9171875 89.62875 53.9171875 89.62875 52.8125 89.25 C49.51973933 87.78655081 47.49063003 86.63801231 45 84 C44.69308909 80.88762334 44.67244121 78.32600705 44.890625 75.24609375 C44.95706522 73.49157287 45.01783072 71.73682968 45.07348633 69.98193359 C45.10616608 69.07368835 45.13884583 68.16544312 45.17251587 67.22967529 C45.30029962 62.62493085 45.24961948 58.04449034 45.08984375 53.44140625 C45.08917908 52.60330917 45.0885144 51.7652121 45.08782959 50.90171814 C44.88155056 46.08193389 44.01901882 43.47991332 40.62670898 39.96655273 C37.29650767 36.91056964 33.89826686 35.56039293 29.67675781 34.09375 C24.42796378 31.94904029 19.87472844 28.52675035 15.1875 25.375 C13.33311183 24.16478762 11.47280976 22.9635665 9.60546875 21.7734375 C8.81293701 21.26216309 8.02040527 20.75088867 7.20385742 20.22412109 C5.07987735 19.04436745 3.39908678 18.34495839 1 18 C0.34 18.33 -0.32 18.66 -1 19 C-8.13230769 19.70153846 -8.13230769 19.70153846 -11.9375 16.625 C-15.13042265 12.56128027 -15.52903519 10.20217933 -15 5 C-11.28344934 -0.82259603 -6.39022177 -1.29063592 0 0 Z " fill="#FFFFFF" transform="translate(248,52)"/>
<path d="M0 0 C3.375 1.5625 3.375 1.5625 6 4 C6.22042969 5.10214844 6.44085938 6.20429687 6.66796875 7.33984375 C8.51588582 12.41755136 11.29791105 13.58982392 15.9375 16 C18.14783191 17.20454055 20.34921794 18.41632785 22.53149414 19.67114258 C25.04292644 21.08246176 25.04292644 21.08246176 28.01342773 22.2097168 C31.44608619 23.82036853 33.55639971 25.07994644 36 28 C37.78412884 34.77277288 36.5502484 42.50633852 35.9699707 49.39477539 C35.21464452 57.84114024 35.21464452 57.84114024 37 66 C41.28856155 70.82625551 47.21484702 73.38937997 53 76 C55.14248795 78.14248795 54.21340801 82.99022203 54.23828125 85.9609375 C54.246353 86.86244537 54.25442474 87.76395325 54.26274109 88.69277954 C54.27659799 90.60441148 54.28731293 92.51606834 54.29516602 94.42773438 C54.31238792 97.35594387 54.35625995 100.28302726 54.40039062 103.2109375 C54.41051623 105.06509584 54.41903275 106.9192638 54.42578125 108.7734375 C54.44328934 109.65164154 54.46079742 110.52984558 54.47883606 111.43466187 C54.45712458 117.50079577 54.45712458 117.50079577 52.09838867 120.07666016 C50 121 50 121 48 121 C48.04825928 119.81035645 48.09651855 118.62071289 48.14624023 117.39501953 C48.30663381 112.94057785 48.36614377 108.48929285 48.39672852 104.03222656 C48.42366643 102.1114079 48.47722609 100.19075755 48.55883789 98.27148438 C49.35087576 87.61242178 49.35087576 87.61242178 45.47393799 78.12145996 C41.41297798 74.57517276 36.86571027 72.2549371 32 70 C31 69 31 69 30.88647461 65.39819336 C30.88663375 63.79540144 30.89232937 62.1926044 30.90234375 60.58984375 C30.9037587 59.74780899 30.90517365 58.90577423 30.90663147 58.03822327 C30.91224737 55.33794665 30.92480252 52.63775172 30.9375 49.9375 C30.94251295 48.11132932 30.94707621 46.28515734 30.95117188 44.45898438 C30.96222196 39.97262458 30.97949721 35.48632616 31 31 C30.07555336 30.78676086 30.07555336 30.78676086 29.13243103 30.56921387 C26.65317409 29.9074211 24.82372144 28.85789385 22.62890625 27.53125 C21.80712891 27.04269531 20.98535156 26.55414063 20.13867188 26.05078125 C18.42409034 25.01865256 16.71054344 23.98480312 14.99804688 22.94921875 C14.17498047 22.46066406 13.35191406 21.97210938 12.50390625 21.46875 C11.75955322 21.01951172 11.0152002 20.57027344 10.24829102 20.10742188 C6.3162203 18.17063474 2.51690297 17.87288205 -1.8125 17.9375 C-2.60269531 17.94652344 -3.39289063 17.95554687 -4.20703125 17.96484375 C-4.79871094 17.97644531 -5.39039063 17.98804687 -6 18 C-5.67 17.01 -5.34 16.02 -5 15 C-4.01 14.67 -3.02 14.34 -2 14 C0.33391203 11.21885944 0.33391203 11.21885944 -0.375 8.3125 C-0.58125 7.549375 -0.7875 6.78625 -1 6 C-5.85128391 6.41582434 -7.77360929 8.5047434 -11 12 C-11.33 12 -11.66 12 -12 12 C-12.48 4.8 -12.48 4.8 -10.5 1.5 C-6.99736411 -0.60158153 -3.92017442 -0.7312633 0 0 Z " fill="#FFFFFF" transform="translate(232,81)"/>
<path d="M0 0 C3.11199254 1.99167522 4.61304528 3.27090501 5.43359375 6.9375 C5.66760384 10.68166136 5.22810333 12.62525882 3.25 15.875 C-0.30120482 19.22891566 -0.30120482 19.22891566 -3 20 C-9.0742392 19.56612577 -9.0742392 19.56612577 -11.8684082 17.85742188 C-15.80289077 16.27479643 -19.10751873 18.32439185 -22.83544922 19.87304688 C-28.90073591 22.81689761 -33.98326773 25.43350488 -38 31 C-40.47438933 38.82541092 -39.6297534 47.60616695 -38.98510742 55.66601562 C-38.09162465 67.91599104 -38.09162465 67.91599104 -41.05566406 71.453125 C-44.86685866 73.79418786 -48.66342016 75.01124458 -53 76 C-53 74.68 -53 73.36 -53 72 C-52.34 72 -51.68 72 -51 72 C-50.67 70.68 -50.34 69.36 -50 68 C-47.525 67.505 -47.525 67.505 -45 67 C-45.04713135 65.84999512 -45.0942627 64.69999023 -45.14282227 63.51513672 C-45.30618415 59.23306756 -45.40919895 54.95127077 -45.49438477 50.66699219 C-45.53954435 48.81593464 -45.60089139 46.9651964 -45.67895508 45.11523438 C-46.30751235 29.83266539 -46.30751235 29.83266539 -43.3059082 25.62548828 C-40.93637472 24.02390984 -38.66475555 23.02899218 -36 22 C-34.32993472 21.02812912 -32.67479458 20.03018093 -31.03515625 19.0078125 C-29.37939294 18.04379609 -27.72183337 17.08285832 -26.0625 16.125 C-24.78922852 15.37863281 -24.78922852 15.37863281 -23.49023438 14.6171875 C-22.68005859 14.14796875 -21.86988281 13.67875 -21.03515625 13.1953125 C-20.3069165 12.77266113 -19.57867676 12.35000977 -18.82836914 11.91455078 C-17 11 -17 11 -15 11 C-14.9175 9.9275 -14.835 8.855 -14.75 7.75 C-14 4 -14 4 -12.5625 1.5625 C-8.50892995 -0.90918905 -4.60955781 -0.84148632 0 0 Z " fill="#FFFFFF" transform="translate(192,81)"/>
<path d="M0 0 C0.33 0 0.66 0 1 0 C1.00410889 1.25659424 1.00821777 2.51318848 1.01245117 3.80786133 C1.03420598 8.46550645 1.08845741 13.12230236 1.15258789 17.77954102 C1.17579985 19.79605985 1.19017109 21.81270047 1.19555664 23.8293457 C1.20482295 26.7268491 1.24576132 29.62242859 1.29296875 32.51953125 C1.2890361 33.42274612 1.28510345 34.325961 1.28105164 35.25654602 C1.33608547 37.61177136 1.42438102 39.71546974 2 42 C4.26562695 44.23386675 4.26562695 44.23386675 7 45 C8.89667109 44.71447643 8.89667109 44.71447643 11 44 C17.68071571 43.24572565 17.68071571 43.24572565 20.8515625 45.05859375 C23.8313413 47.66413493 25.42179784 50.0163701 25.8125 54 C25.53481286 57.43803124 24.40843734 59.12968907 21.9375 61.5 C19.21043242 63.51086801 17.81623042 64.03485285 14.375 64.6875 C10.15770744 63.82842189 8.67417982 62.30339861 6 59 C4.5216774 56.04335481 4.93967217 53.25770263 5 50 C4.278125 49.7525 3.55625 49.505 2.8125 49.25 C-0.29567538 47.86858872 -2.52723148 46.33146746 -5 44 C-5 43.01 -5 42.02 -5 41 C-3.68 40.34 -2.36 39.68 -1 39 C-0.67 26.13 -0.34 13.26 0 0 Z " fill="#FFFFFF" transform="translate(298,92)"/>
<path d="M0 0 C3.375 2.125 3.375 2.125 6 5 C6.80964855 9.45306703 6.32411559 11.41659195 4.125 15.375 C2 18 2 18 0 19 C-7.38451634 19.2382102 -7.38451634 19.2382102 -9.8671875 18.27734375 C-13.3168848 17.82875674 -15.3650448 19.6500821 -18.25 21.4375 C-19.32765625 22.09621094 -20.4053125 22.75492188 -21.515625 23.43359375 C-22.74539062 24.20896484 -22.74539062 24.20896484 -24 25 C-25.125 23.25 -25.125 23.25 -26 21 C-24.94581077 17.4948208 -23.07331467 16.08043006 -20 14.25 C-19.29875 13.82203125 -18.5975 13.3940625 -17.875 12.953125 C-16 12 -16 12 -14 12 C-14.103125 10.948125 -14.20625 9.89625 -14.3125 8.8125 C-14 5 -14 5 -11.6875 2.125 C-7.53444743 -1.15880901 -5.02195597 -1.37857615 0 0 Z " fill="#FFFFFF" transform="translate(176,52)"/>
<path d="M0 0 C3.11199254 1.99167522 4.61304528 3.27090501 5.43359375 6.9375 C5.66760384 10.68166136 5.22810333 12.62525882 3.25 15.875 C-0.30120482 19.22891566 -0.30120482 19.22891566 -3 20 C-9.14503817 19.5610687 -9.14503817 19.5610687 -12 17.6875 C-13.97583384 16.74847271 -13.97583384 16.74847271 -15.69140625 17.796875 C-16.92182749 18.5469439 -18.13180052 19.3318262 -19.31640625 20.15234375 C-19.87199219 20.43207031 -20.42757812 20.71179688 -21 21 C-21.99 20.67 -22.98 20.34 -24 20 C-23.67 19.34 -23.34 18.68 -23 18 C-23.66 17.67 -24.32 17.34 -25 17 C-21.98112756 13.51668565 -19.43090471 12.20842856 -15 11 C-14.9175 9.9275 -14.835 8.855 -14.75 7.75 C-14 4 -14 4 -12.5625 1.5625 C-8.50892995 -0.90918905 -4.60955781 -0.84148632 0 0 Z " fill="#FFFFFF" transform="translate(192,81)"/>
<path d="M0 0 C0.66 0.33 1.32 0.66 2 1 C1.67 1.66 1.34 2.32 1 3 C0.34 3 -0.32 3 -1 3 C-0.67 3.99 -0.34 4.98 0 6 C0.66 6.33 1.32 6.66 2 7 C1.02659668 7.46696289 0.05319336 7.93392578 -0.94970703 8.41503906 C-4.30737446 11.24207949 -4.30737446 11.24207949 -4.77294922 15.21777344 C-4.81380885 16.93118616 -4.82247523 18.64556747 -4.8046875 20.359375 C-4.81839386 21.26375305 -4.83210022 22.1681311 -4.84622192 23.09991455 C-4.8835635 25.98378048 -4.87980439 28.86592636 -4.875 31.75 C-4.89312391 33.70705822 -4.91392563 35.6640936 -4.9375 37.62109375 C-4.98938989 42.41435127 -5.0044279 47.20647698 -5 52 C-4.22269531 52.29648438 -3.44539062 52.59296875 -2.64453125 52.8984375 C-0.05249741 53.97813254 1.83376775 55.23492187 4 57 C3.360625 57.12375 2.72125 57.2475 2.0625 57.375 C1.381875 57.58125 0.70125 57.7875 0 58 C-0.33 58.66 -0.66 59.32 -1 60 C-5.06674927 58.60568597 -8.05322122 57.16815009 -11 54 C-11.82820477 50.62649863 -11.84363471 47.29028622 -11.875 43.828125 C-11.89401367 42.83174011 -11.91302734 41.83535522 -11.93261719 40.80877686 C-11.96229613 38.70078899 -11.9782316 36.59256933 -11.98144531 34.484375 C-11.99987333 31.27208047 -12.1033985 28.06975932 -12.2109375 24.859375 C-12.46197352 8.9223347 -12.46197352 8.9223347 -8.48046875 4.76367188 C-5.71257442 2.74726619 -3.1800875 1.25081695 0 0 Z " fill="#FFFFFF" transform="translate(140,150)"/>
<path d="M0 0 C3.92702358 1.42605418 7.24619519 3.29449662 10.75 5.5625 C11.71421875 6.18253906 12.6784375 6.80257812 13.671875 7.44140625 C16 9 16 9 17 10 C17.13841228 12.99466894 17.21319345 15.96459553 17.23828125 18.9609375 C17.246353 19.86244537 17.25442474 20.76395325 17.26274109 21.69277954 C17.27659799 23.60441148 17.28731293 25.51606834 17.29516602 27.42773438 C17.31238792 30.35594387 17.35625995 33.28302726 17.40039062 36.2109375 C17.41051623 38.06509584 17.41903275 39.9192638 17.42578125 41.7734375 C17.44328934 42.65164154 17.46079742 43.52984558 17.47883606 44.43466187 C17.45712458 50.50079577 17.45712458 50.50079577 15.09838867 53.07666016 C13 54 13 54 11 54 C11.04302246 52.80511963 11.08604492 51.61023926 11.13037109 50.37915039 C11.27236974 45.91159099 11.32063707 41.44692484 11.34179688 36.97729492 C11.3637539 35.04975868 11.41055368 33.12232935 11.48339844 31.19604492 C12.27304971 20.64313896 12.27304971 20.64313896 8.5592041 11.20672607 C4.78688313 7.94131155 0.59513135 5.87251789 -4 4 C-2.68 2.68 -1.36 1.36 0 0 Z " fill="#FFFFFF" transform="translate(269,148)"/>
<path d="M0 0 C3.375 1.5625 3.375 1.5625 6 4 C6.66666667 6.33333333 7.33333333 8.66666667 8 11 C10.97465542 13.45749951 10.97465542 13.45749951 14 15 C13.67 16.32 13.34 17.64 13 19 C12.38253906 18.9278125 11.76507813 18.855625 11.12890625 18.78125 C5.37891613 18.1511141 -0.21646559 17.90671719 -6 18 C-5.67 17.01 -5.34 16.02 -5 15 C-4.01 14.67 -3.02 14.34 -2 14 C0.33391203 11.21885944 0.33391203 11.21885944 -0.375 8.3125 C-0.58125 7.549375 -0.7875 6.78625 -1 6 C-5.85128391 6.41582434 -7.77360929 8.5047434 -11 12 C-11.33 12 -11.66 12 -12 12 C-12.48 4.8 -12.48 4.8 -10.5 1.5 C-6.99736411 -0.60158153 -3.92017442 -0.7312633 0 0 Z " fill="#FFFFFF" transform="translate(232,81)"/>
<path d="M0 0 C2.6875 1.6875 2.6875 1.6875 4 4 C3.9375 6.625 3.9375 6.625 3 9 C2.01 9.66 1.02 10.32 0 11 C-0.99 9.35 -1.98 7.7 -3 6 C-4.65 6.33 -6.3 6.66 -8 7 C-8 8.65 -8 10.3 -8 12 C-5.525 12.99 -5.525 12.99 -3 14 C-3 14.66 -3 15.32 -3 16 C-3.66 16 -4.32 16 -5 16 C-5 16.66 -5 17.32 -5 18 C-7.75 18.375 -7.75 18.375 -11 18 C-13.91453146 14.85537395 -14.89425768 12.66970138 -15.5625 8.4375 C-15 5 -15 5 -13.125 2.0625 C-8.76319552 -0.81629096 -5.08934875 -0.92533614 0 0 Z " fill="#FFFFFF" transform="translate(248,52)"/>
<path d="M0 0 C0 12.54 0 25.08 0 38 C-2.475 38.495 -2.475 38.495 -5 39 C-5 26.79 -5 14.58 -5 2 C-1 0 -1 0 0 0 Z " fill="#FFFFFF" transform="translate(298,94)"/>
<path d="M0 0 C2.4375 0.125 2.4375 0.125 5 1 C6.8125 3.0625 6.8125 3.0625 8 5 C9.32 3.35 10.64 1.7 12 0 C12.103125 1.11375 12.20625 2.2275 12.3125 3.375 C12.6528125 5.169375 12.6528125 5.169375 13 7 C13.99 7.66 14.98 8.32 16 9 C15.34 10.32 14.68 11.64 14 13 C12.576875 12.9690625 12.576875 12.9690625 11.125 12.9375 C8.09333717 12.77448174 8.09333717 12.77448174 6 14 C3.3276379 14.13415472 0.67749512 14.04318541 -2 14 C-0.68 13.67 0.64 13.34 2 13 C2 12.34 2 11.68 2 11 C2.66 11 3.32 11 4 11 C4 10.34 4 9.68 4 9 C3.195625 8.855625 2.39125 8.71125 1.5625 8.5625 C-1 8 -1 8 -2 7 C-2.1875 4.5625 -2.1875 4.5625 -2 2 C-1.34 1.34 -0.68 0.68 0 0 Z " fill="#FFFFFF" transform="translate(241,57)"/>
<path d="M0 0 C0.66 0.33 1.32 0.66 2 1 C2.29397316 5.99754367 2.0979156 8.98418348 -1 13 C-4.20380017 15.13586678 -5.01939967 15.23132175 -8.6875 15.125 C-9.49574219 15.10695312 -10.30398437 15.08890625 -11.13671875 15.0703125 C-12.05904297 15.03550781 -12.05904297 15.03550781 -13 15 C-13.33 14.34 -13.66 13.68 -14 13 C-13.05125 13.04125 -12.1025 13.0825 -11.125 13.125 C-7.89755144 13.34973818 -7.89755144 13.34973818 -6 11 C-6.804375 10.690625 -7.60875 10.38125 -8.4375 10.0625 C-11 9 -11 9 -12 8 C-12.1875 5.5625 -12.1875 5.5625 -12 3 C-11.34 2.34 -10.68 1.68 -10 1 C-7 1.125 -7 1.125 -4 2 C-2.625 4.0625 -2.625 4.0625 -2 6 C-1.34 4.02 -0.68 2.04 0 0 Z " fill="#FFFFFF" transform="translate(180,221)"/>
<path d="M0 0 C1.32 1.32 2.64 2.64 4 4 C4.556875 3.319375 5.11375 2.63875 5.6875 1.9375 C6.450625 1.298125 7.21375 0.65875 8 0 C10.75 0.25 10.75 0.25 13 1 C14.06351675 4.38391693 14.21442982 5.5804634 12.5625 8.8125 C12.046875 9.534375 11.53125 10.25625 11 11 C11.99 12.485 11.99 12.485 13 14 C10.0717158 14.29779161 7.85647674 14.49631943 5 14 C1.84678891 11.37232409 0.2605521 9.88815679 -0.30078125 5.8203125 C-0.3125 3.625 -0.3125 3.625 0 0 Z " fill="#FFFFFF" transform="translate(219,86)"/>
<path d="M0 0 C0.8971875 0.495 0.8971875 0.495 1.8125 1 C4.05386471 2.20787988 4.05386471 2.20787988 7 2 C8 3 8 3 8.09765625 4.84765625 C8.04882812 7.92382812 8.04882812 7.92382812 8 11 C7.01 11.495 7.01 11.495 6 12 C5.01 11.34 4.02 10.68 3 10 C2.01 10.66 1.02 11.32 0 12 C-4.54054054 11.45945946 -4.54054054 11.45945946 -6 10 C-6.4375 7.75 -6.4375 7.75 -6 5 C-4.15533163 3.01550254 -2.20759137 1.60970204 0 0 Z " fill="#FFFFFF" transform="translate(189,83)"/>
<path d="M0 0 C0.66 0.33 1.32 0.66 2 1 C2.33722141 5.21526759 2.21887045 7.57789269 0.25 11.375 C-2 14 -2 14 -4.25 14.875 C-4.8275 14.91625 -5.405 14.9575 -6 15 C-5.49396008 12.83125748 -5.00016187 11.00032373 -4 9 C-4.94875 9.20625 -5.8975 9.4125 -6.875 9.625 C-7.90625 9.74875 -8.9375 9.8725 -10 10 C-12 8 -12 8 -12.25 5.5 C-12 3 -12 3 -10 1 C-6.55834679 1.35299007 -4.93127462 2.04581692 -2 4 C-1.34 2.68 -0.68 1.36 0 0 Z " fill="#FFFFFF" transform="translate(180,56)"/>
<path d="M0 0 C0.33 0 0.66 0 1 0 C1.33 13.86 1.66 27.72 2 42 C4.64 43.32 7.28 44.64 10 46 C9.01 46.66 8.02 47.32 7 48 C6.42006301 50.19454681 6.42006301 50.19454681 6.3125 52.625 C6.21388672 53.85089844 6.21388672 53.85089844 6.11328125 55.1015625 C6.07589844 55.72804687 6.03851563 56.35453125 6 57 C5.67 57 5.34 57 5 57 C5 54.69 5 52.38 5 50 C4.278125 49.7525 3.55625 49.505 2.8125 49.25 C-0.29567538 47.86858872 -2.52723148 46.33146746 -5 44 C-5 43.01 -5 42.02 -5 41 C-3.68 40.34 -2.36 39.68 -1 39 C-0.67 26.13 -0.34 13.26 0 0 Z " fill="#FFFFFF" transform="translate(298,92)"/>
<path d="M0 0 C3.0625 2.25 3.0625 2.25 5 5 C4.91236229 8.06731977 4.18647619 8.81352381 2 11 C1.01 9.35 0.02 7.7 -1 6 C-5.85128391 6.41582434 -7.77360929 8.5047434 -11 12 C-11.33 12 -11.66 12 -12 12 C-12.48 4.8 -12.48 4.8 -10.5 1.5 C-7.01922171 -0.58846697 -3.89241643 -0.90002514 0 0 Z " fill="#FFFFFF" transform="translate(232,81)"/>
<path d="M0 0 C3.73754959 3.37755898 5.10854425 7.42253645 7 12 C7.37769531 12.87011719 7.75539062 13.74023438 8.14453125 14.63671875 C8.50933594 15.49910156 8.87414062 16.36148437 9.25 17.25 C9.58515625 18.03890625 9.9203125 18.8278125 10.265625 19.640625 C11.06589437 22.21170319 11.13289174 24.32318057 11 27 C8.40908885 24.64742192 6.79756479 22.15330936 5.0625 19.125 C2.93995904 15.5045062 0.7577018 12.18196361 -2 9 C-1.67 8.443125 -1.34 7.88625 -1 7.3125 C0.1309601 4.69715478 0.15662974 2.8193354 0 0 Z " fill="#FFFFFF" transform="translate(188,278)"/>
<path d="M0 0 C3.48927064 0.03999164 4.86468852 0.10980442 7.875 2 C9.1875 4.3125 9.1875 4.3125 9.125 6.9375 C8.1875 9.3125 8.1875 9.3125 5.1875 11.3125 C2.1875 6.5625 2.1875 6.5625 2.1875 4.3125 C0.8675 4.3125 -0.4525 4.3125 -1.8125 4.3125 C-1.8125 3.6525 -1.8125 2.9925 -1.8125 2.3125 C-4.2875 3.7975 -4.2875 3.7975 -6.8125 5.3125 C-5.70974158 0.42885557 -5.02491638 0.13978538 0 0 Z " fill="#FFFFFF" transform="translate(242.8125,51.6875)"/>
<path d="M0 0 C1.32 0.33 2.64 0.66 4 1 C4.12109311 8.07721931 3.85373239 14.97195301 3 22 C1 21 1 21 0.38110352 19.19433594 C0.00673442 17.03877576 -0.11421297 15.07611194 -0.09765625 12.890625 C-0.09443359 12.13652344 -0.09121094 11.38242188 -0.08789062 10.60546875 C-0.07951172 9.82816406 -0.07113281 9.05085938 -0.0625 8.25 C-0.05798828 7.45722656 -0.05347656 6.66445312 -0.04882812 5.84765625 C-0.03708565 3.89840492 -0.01915146 1.94919262 0 0 Z " fill="#FFFFFF" transform="translate(264,114)"/>
<path d="M0 0 C0.90492188 0.02320312 1.80984375 0.04640625 2.7421875 0.0703125 C4.10730469 0.09738281 4.10730469 0.09738281 5.5 0.125 C6.19867188 0.14820312 6.89734375 0.17140625 7.6171875 0.1953125 C8.2771875 1.8453125 8.9371875 3.4953125 9.6171875 5.1953125 C7.1421875 4.2053125 7.1421875 4.2053125 4.6171875 3.1953125 C3.1940625 4.3709375 3.1940625 4.3709375 1.7421875 5.5703125 C1.20851562 6.01117188 0.67484375 6.45203125 0.125 6.90625 C-1.09332411 7.94782242 -2.24941347 9.06191347 -3.3828125 10.1953125 C-3.3828125 8.8753125 -3.3828125 7.5553125 -3.3828125 6.1953125 C-4.0428125 6.1953125 -4.7028125 6.1953125 -5.3828125 6.1953125 C-4.65745348 2.56851739 -4.09107647 0.33533414 0 0 Z " fill="#FFFFFF" transform="translate(184.3828125,80.8046875)"/>
<path d="M0 0 C0.66 0.33 1.32 0.66 2 1 C-4.01651793 7.73540335 -9.97462506 14.28307598 -17 20 C-17.66 19.67 -18.32 19.34 -19 19 C-12.98348207 12.26459665 -7.02537494 5.71692402 0 0 Z " fill="#FFFFFF" transform="translate(238,291)"/>
<path d="M0 0 C0 1.65 0 3.3 0 5 C-5.17578125 8.22265625 -5.17578125 8.22265625 -7 9 C-7.99 8.67 -8.98 8.34 -10 8 C-9.67 7.34 -9.34 6.68 -9 6 C-9.66 5.67 -10.32 5.34 -11 5 C-7.17906575 1.05170128 -5.52310605 -0.1453449 0 0 Z " fill="#FFFFFF" transform="translate(178,93)"/>
<path d="M0 0 C4.55555556 0.55555556 4.55555556 0.55555556 6 2 C6.1875 4.4375 6.1875 4.4375 6 7 C5.34 7.66 4.68 8.32 4 9 C-0.55555556 8.44444444 -0.55555556 8.44444444 -2 7 C-2.1875 4.5625 -2.1875 4.5625 -2 2 C-1.34 1.34 -0.68 0.68 0 0 Z " fill="#FFFFFF" transform="translate(170,57)"/>
<path d="M0 0 C4.21912747 0.4794463 6.79663178 1.16625119 10 4 C9.67 5.65 9.34 7.3 9 9 C6 9 6 9 4.5625 7.625 C4.046875 7.08875 3.53125 6.5525 3 6 C0.90010348 4.82425289 0.90010348 4.82425289 -1 4 C-0.67 2.68 -0.34 1.36 0 0 Z " fill="#FFFFFF" transform="translate(170,51)"/>
<path d="M0 0 C2.625 0.375 2.625 0.375 5 1 C5.625 3.3125 5.625 3.3125 6 6 C5.01 7.485 5.01 7.485 4 9 C1.375 9.1875 1.375 9.1875 -1 9 C-1.625 5.625 -1.625 5.625 -2 2 C-1.34 1.34 -0.68 0.68 0 0 Z " fill="#FFFFFF" transform="translate(227,86)"/>
<path d="M0 0 C0.66 0.33 1.32 0.66 2 1 C1.67 1.33 1.34 1.66 1 2 C2.32 2.99 3.64 3.98 5 5 C1.37 6.98 -2.26 8.96 -6 11 C-7 7 -7 7 -6.375 4.9375 C-4.59327404 2.42688615 -2.76362568 1.3127222 0 0 Z " fill="#FFFFFF" transform="translate(157,66)"/>
<path d="M0 0 C1.32 0 2.64 0 4 0 C6 3 6 3 5.625 5.6875 C5.41875 6.450625 5.2125 7.21375 5 8 C2.625 8.625 2.625 8.625 0 9 C-2 7 -2 7 -2.25 4.5 C-2 2 -2 2 0 0 Z " fill="#FFFFFF" transform="translate(100,141)"/>
<path d="M0 0 C2.5 0.125 2.5 0.125 3.5 1.125 C3.54092937 3.45797433 3.54241723 5.79205225 3.5 8.125 C0.625 8.25 0.625 8.25 -2.5 8.125 C-3.16 7.465 -3.82 6.805 -4.5 6.125 C-3.77607362 0.18880368 -3.77607362 0.18880368 0 0 Z " fill="#FFFFFF" transform="translate(313.5,141.875)"/>
<path d="M0 0 C4.55555556 0.55555556 4.55555556 0.55555556 6 2 C6.125 4.5 6.125 4.5 6 7 C5 8 5 8 2 8.125 C-1 8 -1 8 -2 7 C-2.1875 4.5625 -2.1875 4.5625 -2 2 C-1.34 1.34 -0.68 0.68 0 0 Z " fill="#FFFFFF" transform="translate(241,57)"/>
<path d="M0 0 C2.625 0.375 2.625 0.375 5 1 C5.38133299 2.9914056 5.71325582 4.99279077 6 7 C5 8 5 8 2 8.125 C-1 8 -1 8 -2 7 C-2.1875 4.5625 -2.1875 4.5625 -2 2 C-1.34 1.34 -0.68 0.68 0 0 Z " fill="#FFFFFF" transform="translate(170,222)"/>
<path d="M0 0 C0.125 2.375 0.125 2.375 0 5 C-0.66 5.66 -1.32 6.32 -2 7 C-6.55555556 6.44444444 -6.55555556 6.44444444 -8 5 C-8.04063832 3.33382885 -8.042721 1.66611905 -8 0 C-4.71023192 -1.09658936 -3.28696233 -0.79953138 0 0 Z " fill="#FFFFFF" transform="translate(191,88)"/>
<path d="M0 0 C-1.20334813 3.6100444 -2.24351928 4.10828588 -5.375 6.125 C-6.16648437 6.64320313 -6.95796875 7.16140625 -7.7734375 7.6953125 C-10 9 -10 9 -13 10 C-12.505 9.1028125 -12.505 9.1028125 -12 8.1875 C-10.79212012 5.94613529 -10.79212012 5.94613529 -11 3 C-9.73160474 2.49384702 -8.46016898 1.99530901 -7.1875 1.5 C-6.12595703 1.08234375 -6.12595703 1.08234375 -5.04296875 0.65625 C-3 0 -3 0 0 0 Z " fill="#FFFFFF" transform="translate(349,178)"/>
<path d="M0 0 C0.66 0.33 1.32 0.66 2 1 C0.38050958 2.50594681 -1.24575974 4.00460668 -2.875 5.5 C-3.77992188 6.3353125 -4.68484375 7.170625 -5.6171875 8.03125 C-8 10 -8 10 -10 10 C-10 10.66 -10 11.32 -10 12 C-9.34 12.33 -8.68 12.66 -8 13 C-10.46278801 15.46278801 -12.70676982 15.99771255 -16 17 C-14.61209773 12.58678268 -12.60196836 10.37736734 -9.125 7.375 C-8.26132813 6.61960937 -7.39765625 5.86421875 -6.5078125 5.0859375 C-4.38215611 3.31786817 -2.23224637 1.63005898 0 0 Z " fill="#FFFFFF" transform="translate(228,318)"/>
<path d="M0 0 C0.66 0 1.32 0 2 0 C2 0.66 2 1.32 2 2 C3.32 2.33 4.64 2.66 6 3 C5.21625 3.2475 4.4325 3.495 3.625 3.75 C0.67682892 5.15389099 0.0975223 6.00675737 -1 9 C-1.33 8.01 -1.66 7.02 -2 6 C-3.32 7.32 -4.64 8.64 -6 10 C-6.1875 6.625 -6.1875 6.625 -6 3 C-3 1 -3 1 -1 1 C-0.67 0.67 -0.34 0.34 0 0 Z " fill="#FFFFFF" transform="translate(239,54)"/>
<path d="M0 0 C8.30622213 0.34826927 8.30622213 0.34826927 11.0625 2.9375 C12 5 12 5 12 7 C7.69235185 5.43358249 3.93828536 3.31663844 0 1 C0 0.67 0 0.34 0 0 Z " fill="#FFFFFF" transform="translate(182,328)"/>
<path d="M0 0 C1.98 0.66 3.96 1.32 6 2 C4.35 3.65 2.7 5.3 1 7 C2.98 7 4.96 7 7 7 C7 7.33 7 7.66 7 8 C0.375 8.25 0.375 8.25 -3 6 C-3 5.34 -3 4.68 -3 4 C-2.01 3.34 -1.02 2.68 0 2 C0 1.34 0 0.68 0 0 Z " fill="#FFFFFF" transform="translate(309,148)"/>
<path d="M0 0 C0.99 0.33 1.98 0.66 3 1 C3.1875 3.875 3.1875 3.875 3 7 C2.01 7.66 1.02 8.32 0 9 C-0.66 6.69 -1.32 4.38 -2 2 C-1.34 1.34 -0.68 0.68 0 0 Z " fill="#FFFFFF" transform="translate(177,219)"/>
<path d="M0 0 C0.66 0.33 1.32 0.66 2 1 C2 3.31 2 5.62 2 8 C0.35 8.33 -1.3 8.66 -3 9 C-2.44271087 5.65626525 -1.64826111 2.96687001 0 0 Z " fill="#FFFFFF" transform="translate(180,56)"/>
<path d="M0 0 C0.33 0.66 0.66 1.32 1 2 C1.66 2.33 2.32 2.66 3 3 C2.0479279 4.00596297 1.08812654 5.00461563 0.125 6 C-0.40867188 6.556875 -0.94234375 7.11375 -1.4921875 7.6875 C-3 9 -3 9 -5 9 C-3.7508258 5.54074837 -2.32472205 2.85306797 0 0 Z " fill="#FFFFFF" transform="translate(216,314)"/>
<path d="M0 0 C0.33 0.66 0.66 1.32 1 2 C1.66 2 2.32 2 3 2 C2.125 5.875 2.125 5.875 1 7 C-0.66617115 7.04063832 -2.33388095 7.042721 -4 7 C-2.68 4.69 -1.36 2.38 0 0 Z " fill="#FFFFFF" transform="translate(192,92)"/>
<path d="M0 0 C0.57234375 0.21527344 1.1446875 0.43054688 1.734375 0.65234375 C0.49493224 1.52175869 -0.75769559 2.37239832 -2.015625 3.21484375 C-2.71171875 3.69050781 -3.4078125 4.16617188 -4.125 4.65625 C-6.265625 5.65234375 -6.265625 5.65234375 -8.53125 5.3046875 C-9.10359375 5.08941406 -9.6759375 4.87414062 -10.265625 4.65234375 C-9.02618224 3.78292881 -7.77355441 2.93228918 -6.515625 2.08984375 C-5.81953125 1.61417969 -5.1234375 1.13851562 -4.40625 0.6484375 C-2.265625 -0.34765625 -2.265625 -0.34765625 0 0 Z " fill="#FFFFFF" transform="translate(161.265625,101.34765625)"/>
<path d="M0 0 C1.32 0.33 2.64 0.66 4 1 C-0.455 3.97 -0.455 3.97 -5 7 C-5.66 6.67 -6.32 6.34 -7 6 C-4.74259377 3.66475218 -2.7194239 1.81294927 0 0 Z " fill="#FFFFFF" transform="translate(144,74)"/>
<path d="M0 0 C3.0916909 2.52956528 3.90931332 5.22454612 5 9 C1.83884224 7.63016497 1.0072908 7.0109362 -1 4 C-0.625 1.8125 -0.625 1.8125 0 0 Z " fill="#FFFFFF" transform="translate(190,313)"/>
<path d="M0 0 C-1 3 -1 3 -4.0625 4.6875 C-5.031875 5.120625 -6.00125 5.55375 -7 6 C-7.66 5.34 -8.32 4.68 -9 4 C-3.375 0 -3.375 0 0 0 Z " fill="#FFFFFF" transform="translate(349,178)"/>
<path d="M0 0 C0.66 0.33 1.32 0.66 2 1 C2 3.31 2 5.62 2 8 C1.34 8 0.68 8 0 8 C-1.09658936 4.71023192 -0.79953138 3.28696233 0 0 Z " fill="#FFFFFF" transform="translate(180,221)"/>
</svg>
